<svg width="391" height="442" viewBox="0 0 391 442" fill="none" xmlns="http://www.w3.org/2000/svg">
<g clip-path="url(#clip0_25_50)">
<path d="M0 405.951L13.2947 407.4C13.2947 407.4 31.021 409.765 37.5206 405.626C44.0203 401.487 49.5154 403.852 53.5629 405.626C57.6104 407.4 58.0063 406.957 60.7598 405.697C63.5192 404.443 66.899 405.786 68.1634 408.068C69.4279 410.351 70.6097 409.759 72.3823 410.351C74.1549 410.942 72.3823 412.716 71.7914 414.49C71.2005 416.264 72.3823 415.673 74.1549 415.673C75.9276 415.673 72.9732 416.264 72.9732 418.038C72.9732 419.812 75.3367 420.403 76.5184 419.812C77.7002 419.221 77.7002 420.403 77.7002 420.995C77.7002 421.586 77.1093 424.542 78.2911 424.542C79.4728 424.542 82.4272 423.951 82.4272 425.725C82.4272 427.499 84.1998 429.864 85.9724 428.682C87.7451 427.499 87.7451 425.725 88.9268 425.725C90.1086 425.725 88.9268 422.177 90.1086 420.995C91.2903 419.812 88.9268 416.264 85.9724 414.49C83.0181 412.716 77.1093 402.072 81.8363 399.116C86.5633 396.159 84.7907 392.02 87.1542 392.611C89.5177 393.202 93.0629 393.202 94.2447 391.429C95.4265 389.655 99.5626 388.472 103.108 387.881C106.653 387.289 105.471 386.107 107.835 385.515C110.198 384.924 114.334 386.107 114.925 384.333C115.516 382.559 120.243 382.559 119.652 379.602C119.061 376.646 117.88 377.237 117.289 375.463C116.698 373.689 113.744 377.237 114.334 374.28C114.925 371.324 116.698 370.732 114.925 369.55C113.153 368.367 111.38 367.184 113.153 365.41C114.925 363.637 116.698 363.045 117.289 363.045C117.88 363.045 118.471 364.228 117.88 364.228C117.289 364.228 115.516 364.228 115.516 364.819C115.516 365.41 114.925 368.367 116.107 367.776C117.289 367.184 119.061 367.776 118.471 368.367C117.88 368.958 118.471 370.141 119.061 370.141C119.652 370.141 119.652 370.732 117.88 371.324C116.107 371.915 117.289 373.689 117.88 373.098C118.471 372.506 117.88 372.506 119.061 371.915C120.243 371.324 120.834 368.958 122.607 368.367C124.379 367.776 124.379 366.593 123.198 366.002C122.016 365.41 119.652 363.637 120.834 363.637C122.016 363.637 123.074 364.181 124.019 364.795C124.97 365.41 125.561 366.593 126.152 365.41C126.743 364.228 126.152 363.045 127.925 362.454C129.697 361.863 131.866 360.674 131.074 359.497C130.288 358.315 128.515 359.497 129.106 358.315C129.697 357.132 130.424 358.38 131.245 357.162C132.067 355.943 134.076 354.891 135.73 354.826C137.385 354.761 145.651 354.761 146.833 354.169C148.014 353.578 148.605 352.396 149.196 352.396C149.787 352.396 149.787 352.396 149.787 352.396C149.787 352.396 149.787 354.169 152.151 353.578C154.514 352.987 157.12 353.578 156.996 352.396C156.872 351.213 156.31 351 156.31 351C156.31 351 28.0666 355.949 0 359.503V405.951Z" fill="#DADADA" stroke="black" stroke-width="0.5" stroke-miterlimit="10"/>
<path d="M0 359.222C0 359.222 278.217 337.963 391 360" stroke="white" stroke-width="1.5" stroke-miterlimit="10" stroke-linecap="round" stroke-linejoin="round"/>
<path d="M0 193.427C0 193.427 203.5 162.705 391 194.205" stroke="white" stroke-opacity="0.3" stroke-width="1.5" stroke-miterlimit="10" stroke-linejoin="round" stroke-dasharray="3 3"/>
<path d="M201 386.892L211.67 385.084L209.299 380.867L305.326 364L308.29 368.217L317.774 366.41L332 390.506L323.701 392.313L326.072 396.53L230.045 414L226.489 409.181L216.412 411.59L201 386.892Z" fill="#DADADA" stroke="black" stroke-width="0.5" stroke-miterlimit="10" stroke-linecap="round" stroke-linejoin="round"/>
<path d="M217 411.226V416L201 391.727V387L217 411.226Z" fill="#DADADA" stroke="black" stroke-width="0.5" stroke-miterlimit="10" stroke-linecap="round" stroke-linejoin="round"/>
<path d="M231 413.477V419L227 413.477V409L231 413.477Z" fill="#DADADA" stroke="black" stroke-width="0.5" stroke-miterlimit="10" stroke-linecap="round" stroke-linejoin="round"/>
<path d="M217 416L227 413.636V409L217 411.318V416Z" fill="#DADADA" stroke="black" stroke-width="0.5" stroke-miterlimit="10" stroke-linecap="round" stroke-linejoin="round"/>
<path d="M326 396V402.604L231 419V413.16L326 396Z" fill="#DADADA" stroke="black" stroke-width="0.5" stroke-miterlimit="10" stroke-linecap="round" stroke-linejoin="round"/>
<path d="M210 381V385L212 384.651L210 381Z" fill="#DADADA" stroke="black" stroke-width="0.5" stroke-miterlimit="10" stroke-linecap="round" stroke-linejoin="round"/>
<path d="M332 394.685V391L324 392.616L326.051 396L332 394.685Z" fill="#DADADA" stroke="black" stroke-width="0.5" stroke-miterlimit="10" stroke-linecap="round" stroke-linejoin="round"/>
<path d="M96.4842 231.133C96.4842 231.068 96.4427 231.015 96.3835 230.991C96.3657 230.985 96.3539 230.985 96.3362 230.985C96.2888 230.985 96.2473 231.003 96.2177 231.044L95.4363 232.039L95.8921 229.978C95.9099 229.907 95.8685 229.836 95.8033 229.812C95.7856 229.807 95.7678 229.801 95.7441 229.801C95.6968 229.801 95.6494 229.824 95.6198 229.866L94.8501 231.021L95.2942 228.794C95.3001 228.752 95.2942 228.705 95.2646 228.669C95.235 228.634 95.1935 228.616 95.1521 228.616H94.7495C94.9863 227.728 96.0579 223.854 97.5676 221.272C97.9998 221.538 99.4206 222.338 100.901 222.397C100.794 223.226 100.297 227.035 99.7936 229.653L99.397 229.256C99.3674 229.226 99.3318 229.214 99.2904 229.214C99.2785 229.214 99.2608 229.214 99.249 229.22C99.1957 229.238 99.1601 229.279 99.1483 229.333L98.8523 230.825V229.949C98.8523 229.872 98.7931 229.807 98.7161 229.801C98.7102 229.801 98.7043 229.801 98.7043 229.801C98.6332 229.801 98.574 229.848 98.5563 229.919L98.0767 232.442L97.6623 231.092C97.6445 231.033 97.5913 230.991 97.5321 230.985C97.5261 230.985 97.5261 230.985 97.5202 230.985C97.4669 230.985 97.4136 231.015 97.39 231.068L96.4842 232.874V231.133Z" fill="#73D7F9"/>
<path d="M97.6209 221.473C98.1537 221.787 99.4029 222.433 100.735 222.534C100.599 223.57 100.161 226.893 99.6989 229.345L99.5035 229.149C99.4443 229.09 99.3733 229.06 99.2963 229.06C99.2667 229.06 99.2371 229.066 99.2134 229.072C99.1069 229.102 99.0299 229.191 99.0062 229.297L98.9174 229.741C98.87 229.694 98.8049 229.658 98.7339 229.653C98.722 229.653 98.7161 229.653 98.7043 229.653C98.5622 229.653 98.4379 229.753 98.4142 229.895L98.0471 231.832L97.8044 231.05C97.7689 230.932 97.6682 230.855 97.5439 230.843C97.538 230.843 97.5261 230.843 97.5202 230.843C97.4077 230.843 97.3071 230.908 97.2538 231.009L96.6322 232.259V231.133C96.6322 231.009 96.5493 230.896 96.4309 230.855C96.4013 230.843 96.3658 230.837 96.3362 230.837C96.2473 230.837 96.1585 230.879 96.1053 230.95L95.7204 231.441L96.0342 230.014C96.0638 229.878 95.9928 229.735 95.8625 229.676C95.827 229.658 95.7856 229.653 95.7441 229.653C95.6494 229.653 95.5547 229.7 95.4955 229.783L95.1403 230.316L95.4363 228.823C95.454 228.735 95.4303 228.646 95.3771 228.575C95.3238 228.504 95.235 228.468 95.1462 228.468H94.939C95.2527 227.343 96.2533 223.89 97.6209 221.473ZM97.5202 221.065C95.7441 224.026 94.5601 228.764 94.5601 228.764H95.1521L94.5601 231.725L95.7441 229.949L95.1521 232.638L96.3362 231.133V233.502L97.5202 231.133L98.1122 233.052L98.7043 229.949V232.318L99.2963 229.356L99.8883 229.949C100.48 226.987 101.072 222.249 101.072 222.249C99.2963 222.249 97.5202 221.065 97.5202 221.065Z" fill="black"/>
<path d="M96.4842 231.133C96.4842 231.068 96.4427 231.015 96.3835 230.991C96.3657 230.985 96.3539 230.985 96.3362 230.985C96.2888 230.985 96.2473 231.003 96.2177 231.044L95.4363 232.039L95.8921 229.978C95.9099 229.907 95.8685 229.836 95.8033 229.812C95.7856 229.807 95.7678 229.801 95.7441 229.801C95.6968 229.801 95.6494 229.824 95.6198 229.866L94.8501 231.021L95.2942 228.794C95.3001 228.752 95.2942 228.705 95.2646 228.669C95.235 228.634 95.1935 228.616 95.1521 228.616H94.7495C94.9863 227.728 96.0579 223.854 97.5676 221.272C97.9998 221.538 99.4206 222.338 100.901 222.397C100.794 223.226 100.297 227.035 99.7936 229.653L99.397 229.256C99.3674 229.226 99.3318 229.214 99.2904 229.214C99.2785 229.214 99.2608 229.214 99.249 229.22C99.1957 229.238 99.1601 229.279 99.1483 229.333L98.8523 230.825V229.949C98.8523 229.872 98.7931 229.807 98.7161 229.801C98.7102 229.801 98.7043 229.801 98.7043 229.801C98.6332 229.801 98.574 229.848 98.5563 229.919L98.0767 232.442L97.6623 231.092C97.6445 231.033 97.5913 230.991 97.5321 230.985C97.5261 230.985 97.5261 230.985 97.5202 230.985C97.4669 230.985 97.4136 231.015 97.39 231.068L96.4842 232.874V231.133Z" fill="#BBECF9"/>
<path d="M97.6209 221.473C98.1537 221.787 99.4029 222.433 100.735 222.534C100.599 223.57 100.161 226.893 99.6989 229.345L99.5035 229.149C99.4443 229.09 99.3733 229.06 99.2963 229.06C99.2667 229.06 99.2371 229.066 99.2134 229.072C99.1069 229.102 99.0299 229.191 99.0062 229.297L98.9174 229.741C98.87 229.694 98.8049 229.658 98.7339 229.653C98.722 229.653 98.7161 229.653 98.7043 229.653C98.5622 229.653 98.4379 229.753 98.4142 229.895L98.0471 231.832L97.8044 231.05C97.7689 230.932 97.6682 230.855 97.5439 230.843C97.538 230.843 97.5261 230.843 97.5202 230.843C97.4077 230.843 97.3071 230.908 97.2538 231.009L96.6322 232.259V231.133C96.6322 231.009 96.5493 230.896 96.4309 230.855C96.4013 230.843 96.3658 230.837 96.3362 230.837C96.2473 230.837 96.1585 230.879 96.1053 230.95L95.7204 231.441L96.0342 230.014C96.0638 229.878 95.9928 229.735 95.8625 229.676C95.827 229.658 95.7856 229.653 95.7441 229.653C95.6494 229.653 95.5547 229.7 95.4955 229.783L95.1403 230.316L95.4363 228.823C95.454 228.735 95.4303 228.646 95.3771 228.575C95.3238 228.504 95.235 228.468 95.1462 228.468H94.939C95.2527 227.343 96.2533 223.89 97.6209 221.473ZM97.5202 221.065C95.7441 224.026 94.5601 228.764 94.5601 228.764H95.1521L94.5601 231.725L95.7441 229.949L95.1521 232.638L96.3362 231.133V233.502L97.5202 231.133L98.1122 233.052L98.7043 229.949V232.318L99.2963 229.356L99.8883 229.949C100.48 226.987 101.072 222.249 101.072 222.249C99.2963 222.249 97.5202 221.065 97.5202 221.065Z" fill="black"/>
<path d="M86 336C86 336 90.7853 272.012 97 236" stroke="#BBECF9" stroke-width="0.75" stroke-miterlimit="10" stroke-linejoin="round"/>
<path d="M179.104 85.6531L172.598 88.5081L174.025 91.7624L180.531 88.9075L179.104 85.6531Z" fill="#B2B2B2" stroke="black" stroke-width="0.5" stroke-miterlimit="10"/>
<path d="M179.104 85.7722L172.598 88.6272L174.025 91.8816L180.531 89.0266L179.104 85.7722Z" stroke="black" stroke-width="1.5" stroke-miterlimit="10" stroke-linecap="round" stroke-linejoin="round"/>
<path d="M123 146C123 146 128.447 133.773 133 127" stroke="#BBECF9" stroke-width="0.75" stroke-miterlimit="10" stroke-linejoin="round"/>
<path d="M90 352H83V415H90V352Z" fill="#B2B2B2" stroke="black" stroke-width="0.5" stroke-miterlimit="10"/>
<path d="M90 348H83V352H90V348Z" fill="#DADADA" stroke="black" stroke-width="0.5" stroke-miterlimit="10"/>
<path d="M90 346H83V348H90V346Z" fill="#DADADA" stroke="black" stroke-width="0.5" stroke-miterlimit="10"/>
<path d="M84 353V348.257C84 348.257 83.5766 347.679 83.0007 348.257V352.389C82.9922 352.394 83.0515 352.686 84 353Z" fill="#DADADA" stroke="black" stroke-width="0.5" stroke-miterlimit="10"/>
<path d="M89 353V348.267C89 348.267 89.5384 347.666 89.9998 348.267V352.528C90.0075 352.528 89.7537 352.983 89 353Z" fill="#DADADA" stroke="black" stroke-width="0.5" stroke-miterlimit="10"/>
<path d="M83 346L84.2366 343H88.7634L90 346H83Z" fill="#DADADA" stroke="black" stroke-width="0.5" stroke-miterlimit="10"/>
<path d="M84 343C84 341 86.5 341 86.5 341C86.5 341 89 341 89 343H84Z" fill="#DADADA" stroke="black" stroke-width="0.5" stroke-miterlimit="10"/>
<path d="M85.9927 415L85 416H87L85.9927 415Z" fill="#4D4D4D" stroke="black" stroke-width="0.5" stroke-miterlimit="10" stroke-linecap="round" stroke-linejoin="round"/>
<path d="M83.4964 415L83 416H84L83.4964 415Z" fill="#4D4D4D" stroke="black" stroke-width="0.5" stroke-miterlimit="10" stroke-linecap="round" stroke-linejoin="round"/>
<path d="M89.4982 415L89 416H90L89.4982 415Z" fill="#4D4D4D" stroke="black" stroke-width="0.5" stroke-miterlimit="10" stroke-linecap="round" stroke-linejoin="round"/>
<path d="M83 360H90" stroke="black" stroke-width="0.5" stroke-miterlimit="10" stroke-linecap="round" stroke-linejoin="round"/>
<path d="M83 369H90" stroke="black" stroke-width="0.5" stroke-miterlimit="10" stroke-linecap="round" stroke-linejoin="round"/>
<path d="M83 413H90" stroke="black" stroke-width="0.5" stroke-miterlimit="10" stroke-linecap="round" stroke-linejoin="round"/>
<path d="M82 415H84L83.2763 412.262C83.1829 411.9 82.5603 411.919 82.4903 412.281L82 415Z" fill="#B2B2B2" stroke="black" stroke-width="0.5" stroke-miterlimit="10"/>
<path d="M91 415H89L89.7238 412.262C89.8171 411.9 90.4397 411.919 90.5097 412.281L91 415Z" fill="#B2B2B2" stroke="black" stroke-width="0.5" stroke-miterlimit="10"/>
<path d="M90.0149 352.031L90.2293 351.77V347.277C90.2293 347.277 90.2025 346.975 89.8273 346.975V346.643L88.7014 342.992C88.7014 342.992 88.7014 341.006 86.6374 341C86.6374 341 84.5733 341 84.5733 342.992L83.4475 346.643V346.904C83.4475 346.904 83.0722 346.975 82.9918 347.253V351.622L83.2197 351.93V411.697C83.2197 411.697 82.583 411.151 82.4557 411.75L82 414.34H83.7223L82.9315 416H84.7677L83.8429 414.157H86.6106L85.6992 416H87.5354L86.6843 414.157H89.3246L88.4133 416H90.2494L89.4185 414.34H91L90.5778 411.845C90.5778 411.845 90.5778 411.483 90.0149 411.584V352.031Z" stroke="black" stroke-width="1.5" stroke-miterlimit="10" stroke-linecap="round" stroke-linejoin="round"/>
<path d="M90.0149 352.031L90.2293 351.77V347.277C90.2293 347.277 90.2025 346.975 89.8273 346.975V346.643L88.7014 342.992C88.7014 342.992 88.7014 341.006 86.6374 341C86.6374 341 84.5733 341 84.5733 342.992L83.4475 346.643V346.904C83.4475 346.904 83.0722 346.975 82.9918 347.253V351.622L83.2197 351.93V411.697C83.2197 411.697 82.583 411.151 82.4557 411.75L82 414.34H83.7223L82.9315 416H84.7677L83.8429 414.157H86.6106L85.6992 416H87.5354L86.6843 414.157H89.3246L88.4133 416H90.2494L89.4185 414.34H91L90.5778 411.845C90.5778 411.845 90.5778 411.483 90.0149 411.584V352.031Z" stroke="black" stroke-width="1.5" stroke-miterlimit="10" stroke-linecap="round" stroke-linejoin="round"/>
<path d="M115.425 157.848L97.5715 217.578L103.323 219.298L121.177 159.568L115.425 157.848Z" fill="#B2B2B2" stroke="black" stroke-width="0.5" stroke-miterlimit="10"/>
<path d="M116.706 153.562L115.424 157.852L120.937 159.502L122.22 155.212L116.706 153.562Z" fill="#DADADA" stroke="black" stroke-width="0.5" stroke-miterlimit="10"/>
<path d="M122.468 154.622L117.068 153.006L116.878 153.642L122.278 155.257L122.468 154.622Z" fill="#DADADA" stroke="black" stroke-width="0.5" stroke-miterlimit="10"/>
<path d="M115.507 158L117 153.356C117 153.356 116.889 152.708 116.303 153.161L115.002 157.209C115.002 157.209 114.946 157.507 115.507 158Z" fill="#DADADA" stroke="black" stroke-width="0.5" stroke-miterlimit="10"/>
<path d="M120 159.965L121.317 155.164C121.317 155.164 121.852 154.676 122 155.384L120.814 159.703C120.814 159.709 120.514 160.12 120 159.965Z" fill="#DADADA" stroke="black" stroke-width="0.5" stroke-miterlimit="10"/>
<path d="M117 152.995L118.818 149L122 150.297L121.919 155L117 152.995Z" fill="#DADADA" stroke="black" stroke-width="0.5" stroke-miterlimit="10"/>
<path d="M119 149.16C119.473 147.631 120.925 148.054 120.925 148.054C120.925 148.054 122.378 148.471 121.905 150L119 149.16Z" fill="#DADADA" stroke="black" stroke-width="0.5" stroke-miterlimit="10"/>
<path d="M99.8327 219L99 219.766L100 220L99.8327 219Z" fill="#4D4D4D" stroke="black" stroke-width="0.5" stroke-miterlimit="10" stroke-linecap="round" stroke-linejoin="round"/>
<path d="M97.8359 218L97 219.537L98 220L97.8359 218Z" fill="#4D4D4D" stroke="black" stroke-width="0.5" stroke-miterlimit="10" stroke-linecap="round" stroke-linejoin="round"/>
<path d="M101.836 219L101 220.533L102 221L101.836 219Z" fill="#4D4D4D" stroke="black" stroke-width="0.5" stroke-miterlimit="10" stroke-linecap="round" stroke-linejoin="round"/>
<path d="M113 165L118 166" stroke="black" stroke-width="0.5" stroke-miterlimit="10" stroke-linecap="round" stroke-linejoin="round"/>
<path d="M110 174L116 176" stroke="black" stroke-width="0.5" stroke-miterlimit="10" stroke-linecap="round" stroke-linejoin="round"/>
<path d="M98 216L103 218" stroke="black" stroke-width="0.5" stroke-miterlimit="10" stroke-linecap="round" stroke-linejoin="round"/>
<path d="M97 217.545L97.8813 218L97.9995 215.34C98.0138 214.99 97.738 214.867 97.6484 215.18L97 217.545Z" fill="#B2B2B2" stroke="black" stroke-width="0.5" stroke-miterlimit="10"/>
<path d="M103.6 220L102 219.538L103.372 217.166C103.554 216.854 104.048 217.016 103.996 217.366L103.6 220Z" fill="#B2B2B2" stroke="black" stroke-width="0.5" stroke-miterlimit="10"/>
<path d="M120.507 159.514L120.756 159.318L121.983 155.005C121.983 155.005 122.04 154.708 121.74 154.613L121.831 154.292L121.916 150.502C121.916 150.502 122.459 148.596 120.79 148.067C120.79 148.067 119.121 147.538 118.578 149.451L116.672 152.671L116.599 152.92C116.599 152.92 116.276 152.89 116.135 153.14L114.941 157.334L115.043 157.69L98.7082 215.078C98.7082 215.078 98.3462 214.395 98.0747 214.935L97 217.305L98.3914 217.745L97.2998 219.135L98.7874 219.604L98.5442 217.596L100.784 218.297L99.5453 219.836L101.033 220.305L100.846 218.321L102.979 218.992L101.74 220.531L103.227 221L103.007 219.194L104.285 219.598L104.625 217.097C104.625 217.097 104.721 216.753 104.24 216.705L120.507 159.514Z" stroke="black" stroke-width="1.5" stroke-miterlimit="10" stroke-linecap="round" stroke-linejoin="round"/>
<path d="M120.507 159.514L120.756 159.318L121.983 155.005C121.983 155.005 122.04 154.708 121.74 154.613L121.831 154.292L121.916 150.502C121.916 150.502 122.459 148.596 120.79 148.067C120.79 148.067 119.121 147.538 118.578 149.451L116.672 152.671L116.599 152.92C116.599 152.92 116.276 152.89 116.135 153.14L114.941 157.334L115.043 157.69L98.7082 215.078C98.7082 215.078 98.3462 214.395 98.0747 214.935L97 217.305L98.3914 217.745L97.2998 219.135L98.7874 219.604L98.5442 217.596L100.784 218.297L99.5453 219.836L101.033 220.305L100.846 218.321L102.979 218.992L101.74 220.531L103.227 221L103.007 219.194L104.285 219.598L104.625 217.097C104.625 217.097 104.721 216.753 104.24 216.705L120.507 159.514Z" stroke="black" stroke-width="1.5" stroke-miterlimit="10" stroke-linecap="round" stroke-linejoin="round"/>
<path d="M217 46L220 51" stroke="black" stroke-width="0.5" stroke-miterlimit="10"/>
<path d="M220.67 43.2809L216.774 45.4852L219.607 50.496L223.503 48.2917L220.67 43.2809Z" fill="#DADADA" stroke="black" stroke-width="0.5" stroke-miterlimit="10"/>
<path d="M224.125 48.0416L221.35 43.1339L220.773 43.4605L223.547 48.3681L224.125 48.0416Z" fill="#DADADA" stroke="black" stroke-width="0.5" stroke-miterlimit="10"/>
<path d="M208 52.8613L209.773 56L220 51.3107L217.174 46L208 52.8613Z" fill="#DADADA" stroke="black" stroke-width="0.5" stroke-miterlimit="10"/>
<path d="M217.003 46L220.909 43.5954C220.909 43.5954 221.254 43.052 220.601 43L217.194 45.0983C217.199 45.0983 216.971 45.2775 217.003 46Z" fill="#DADADA" stroke="black" stroke-width="0.5" stroke-miterlimit="10"/>
<path d="M219 50.5557L223.499 48C223.499 48 224.279 48.0493 223.892 48.6959L219.841 50.993C219.841 50.9991 219.307 51.073 219 50.5557Z" fill="#DADADA" stroke="black" stroke-width="0.5" stroke-miterlimit="10"/>
<path d="M221 42.9563L225.028 42L227 45.265L224.052 48L221 42.9563Z" fill="#DADADA" stroke="black" stroke-width="0.5" stroke-miterlimit="10"/>
<path d="M207.99 52L206 55.6667L210 56L207.99 52Z" fill="#4D4D4D" stroke="black" stroke-width="0.5" stroke-miterlimit="10" stroke-linecap="round" stroke-linejoin="round"/>
<path d="M226 42.3642C227.208 41.2449 227.837 43.0628 227.837 43.0628C227.837 43.0628 228.466 44.8808 227.254 46L226 42.3642Z" fill="#DADADA" stroke="black" stroke-width="0.5" stroke-miterlimit="10"/>
<path d="M219.807 50.9644L220.126 51L223.946 48.7866C223.946 48.7866 224.189 48.6145 224.027 48.3297L224.311 48.1635L226.933 45.4992C226.933 45.4992 228.623 44.5201 227.749 42.9298C227.749 42.9298 226.875 41.3395 225.179 42.3186L221.596 43.2502L221.376 43.3808C221.376 43.3808 221.156 43.1256 220.884 43.2027L217.168 45.3568L217 45.6831" stroke="black" stroke-width="1.5" stroke-miterlimit="10" stroke-linecap="round" stroke-linejoin="round"/>
<path d="M219.724 51.397L220.046 51.4343L223.905 49.1141C223.905 49.1141 224.15 48.9337 223.987 48.6351L224.273 48.461L226.922 45.668C226.922 45.668 228.629 44.6417 227.747 42.9746C227.747 42.9746 226.864 41.3076 225.15 42.3339L221.531 43.3105L221.309 43.4474C221.309 43.4474 221.086 43.1799 220.812 43.2608L217.058 45.5187L216.888 45.8609L208 52.2678L209.754 56L219.724 51.397Z" stroke="black" stroke-width="1.5" stroke-miterlimit="10" stroke-linecap="round" stroke-linejoin="round"/>
<path d="M206 56L208.206 52L210 56H206Z" stroke="black" stroke-width="1.5" stroke-miterlimit="10" stroke-linecap="round" stroke-linejoin="round"/>
<path d="M206 56L202 56.9551L203.188 59L206 56Z" fill="#4D4D4D" stroke="black" stroke-width="0.5" stroke-miterlimit="10" stroke-linecap="round" stroke-linejoin="round"/>
<path d="M202 56.9L206 56L203.485 59L202 56.9Z" stroke="black" stroke-width="1.5" stroke-miterlimit="10" stroke-linecap="round" stroke-linejoin="round"/>
<path d="M194.116 63.7646C194.152 63.7113 194.146 63.6343 194.098 63.5869C194.069 63.5573 194.027 63.5395 193.992 63.5395C193.968 63.5395 193.945 63.5455 193.927 63.5573L192.429 64.2917L193.483 63.196C193.53 63.1486 193.536 63.0717 193.501 63.0183C193.471 62.971 193.424 62.9473 193.376 62.9473C193.364 62.9473 193.347 62.9473 193.335 62.9532L192.459 63.2138L193.98 62.0648C194.039 62.0233 194.057 61.9404 194.022 61.8753C193.998 61.8279 193.945 61.7983 193.891 61.7983C193.874 61.7983 193.856 61.7983 193.838 61.8101L192.897 62.1596L194.495 60.9158C194.531 60.8921 194.548 60.8507 194.554 60.8092C194.554 60.7677 194.543 60.7263 194.507 60.6967L194.329 60.5249C195.046 60.0215 198.272 57.7827 200.848 56.6633C200.901 57.1371 201.102 58.3158 201.777 59.0679C201.167 59.5951 198.308 62.047 196.23 63.6817L196.283 63.3263C196.289 63.2671 196.265 63.2079 196.212 63.1783C196.188 63.1664 196.165 63.1605 196.135 63.1605C196.105 63.1605 196.07 63.1723 196.046 63.1901L195.318 63.7587L195.525 63.5395C195.579 63.4862 195.579 63.3974 195.531 63.3382C195.502 63.3086 195.46 63.2908 195.419 63.2908C195.389 63.2908 195.354 63.3026 195.33 63.3204L193.518 64.7478L194.116 63.7646Z" fill="#BBECF9"/>
<path d="M157 100.351C157 100.351 157.065 100.274 157.195 100.132" stroke="#BBECF9" stroke-width="0.75" stroke-linejoin="round" stroke-dasharray="2 2"/>
<path d="M159.232 97.935C165.146 91.5859 181.51 74.422 192.208 66.995" stroke="#BBECF9" stroke-width="0.75" stroke-linejoin="round" stroke-dasharray="2 2"/>
<path d="M193.457 66.1595C193.54 66.1064 193.623 66.0532 193.706 66" stroke="#BBECF9" stroke-width="0.75" stroke-linejoin="round" stroke-dasharray="2 2"/>
<path d="M162 100.084C162 100.084 243.266 52.5517 261 188" stroke="#BBECF9" stroke-width="0.75" stroke-miterlimit="10" stroke-linejoin="round"/>
<path d="M247 111.769L249.745 91L250.122 107.269L250.639 103.867L251.005 108.686L252.422 106.938L250.87 113.959L254.206 110.003L252.091 116.835L255.156 114.06L252.141 120.426L254.335 119.498L252.248 122.292L256 119.433C256 119.433 254.611 124.536 249.571 126L247 111.769Z" fill="#BBECF9"/>
<path d="M265.272 178.998C259.398 178.855 254.266 175.255 254.266 175.255H259.451L255.967 171.162L261.384 173.831L256.163 167.366L259.326 168.274L253.595 160.486L258.946 164.045L253 152.775L259.326 161.079C259.326 161.079 256.568 135.574 261.919 116C261.919 116 268.858 136.944 268.656 159.685L272.027 153.368L269.054 163.451L272.027 158.748L270.243 167.01L273.841 161.079L270.838 169.976L273.811 168.197L270.838 173.535L273.841 172.022L270.838 175.907L275 174.128C274.994 174.128 270.416 179.122 265.272 178.998Z" fill="#BBECF9"/>
<path d="M233 42C233 42 254.626 30.8148 269 29" stroke="#BBECF9" stroke-width="0.5" stroke-miterlimit="10" stroke-linejoin="round" stroke-dasharray="1 1"/>
<path d="M243.24 113.376L233 96L238.601 110.556L236.862 107.737L238.277 112.141L236.282 111.12L240.341 116.76L235.702 114.504L240.231 119.766L236.282 118.452L241.5 122.964H239.059L242.08 124.656L237.442 123.528C237.442 123.528 240.642 127.532 246 126.94L243.24 113.376Z" fill="#BBECF9"/>
<path d="M186.704 111.898L189.83 113.562L209 77.6414L206.14 75.9001L186.704 111.898Z" fill="#B2B2B2" stroke="black" stroke-width="0.5" stroke-miterlimit="10"/>
<path d="M189.982 113.516L186.666 111.745L186.144 112.722L189.461 114.493L189.982 113.516Z" fill="#4D4D4D" stroke="black" stroke-width="0.5" stroke-miterlimit="10"/>
<path d="M186.461 112.893L185.597 113.734L188.918 115.505L189.084 114.291L186.461 112.893Z" fill="#4D4D4D" stroke="black" stroke-width="0.5" stroke-miterlimit="10"/>
<path d="M186.635 114.279L186.535 114.467L187.704 115.091L187.804 114.904L186.635 114.279Z" fill="#4D4D4D" stroke="black" stroke-width="0.5" stroke-miterlimit="10"/>
<path d="M189.084 114.291L187.805 114.913L187.799 113.61L186.633 114.285L186.461 112.893L189.084 114.291Z" fill="#4D4D4D" stroke="black" stroke-width="0.5" stroke-miterlimit="10" stroke-linecap="round" stroke-linejoin="round"/>
<path d="M209.219 77.286L189.883 113.468L190.055 113.556L189.451 114.694L189.131 114.522L188.989 115.552L187.876 114.96L187.776 115.15L186.609 114.522L186.71 114.332L185.674 113.781L186.402 113.065L185.999 112.852L186.603 111.714L186.757 111.797L206.359 75.5388L209.219 77.286Z" stroke="black" stroke-width="1.5" stroke-miterlimit="10" stroke-linecap="round" stroke-linejoin="round"/>
<path d="M267.534 324.93C267.516 324.871 267.463 324.83 267.398 324.824H267.392C267.333 324.824 267.279 324.859 267.256 324.919L266.782 326.097L266.634 323.995C266.628 323.924 266.575 323.864 266.504 323.858C266.498 323.858 266.492 323.858 266.486 323.858C266.421 323.858 266.362 323.9 266.344 323.965L265.929 325.292L265.728 323.029C265.722 322.988 265.699 322.946 265.663 322.923C265.639 322.905 265.61 322.899 265.58 322.899C265.568 322.899 265.551 322.899 265.539 322.905L265.189 323.006C265.308 322.017 265.781 317.983 265.835 315.182C266.196 315.277 267.025 315.46 267.96 315.46C268.452 315.46 268.901 315.407 269.31 315.306C269.44 316.129 270.038 319.926 270.287 322.579L269.795 322.313C269.772 322.301 269.748 322.295 269.724 322.295C269.695 322.295 269.665 322.301 269.642 322.319C269.594 322.348 269.57 322.402 269.576 322.455L269.713 323.971L269.464 323.13C269.446 323.065 269.387 323.023 269.322 323.023C269.31 323.023 269.304 323.023 269.292 323.023C269.215 323.035 269.168 323.106 269.174 323.183L269.422 325.736L268.641 324.557C268.611 324.516 268.57 324.492 268.517 324.492C268.505 324.492 268.499 324.492 268.487 324.492C268.428 324.504 268.381 324.551 268.369 324.611L268.013 326.601L267.534 324.93Z" fill="#BBECF9"/>
<path d="M265.983 315.36C266.409 315.46 267.149 315.602 267.966 315.602C268.404 315.602 268.819 315.561 269.192 315.478C269.357 316.508 269.867 319.825 270.115 322.307L269.872 322.171C269.831 322.147 269.778 322.135 269.73 322.135C269.671 322.135 269.618 322.153 269.571 322.182C269.482 322.242 269.428 322.348 269.44 322.455L269.482 322.905C269.44 322.881 269.387 322.864 269.334 322.864C269.316 322.864 269.298 322.864 269.275 322.869C269.127 322.899 269.02 323.035 269.038 323.189L269.227 325.15L268.777 324.469C268.724 324.386 268.629 324.338 268.529 324.338C268.511 324.338 268.487 324.338 268.469 324.344C268.351 324.368 268.262 324.463 268.238 324.581L267.99 325.955L267.676 324.883C267.641 324.765 267.534 324.676 267.404 324.67C267.398 324.67 267.392 324.67 267.392 324.67C267.273 324.67 267.161 324.741 267.12 324.854L266.889 325.428L266.788 323.971C266.776 323.829 266.67 323.716 266.527 323.699C266.516 323.699 266.504 323.699 266.492 323.699C266.362 323.699 266.249 323.782 266.208 323.906L266.018 324.516L265.882 323C265.876 322.911 265.829 322.834 265.752 322.781C265.705 322.745 265.645 322.727 265.586 322.727C265.557 322.727 265.533 322.733 265.503 322.739L265.367 322.781C265.515 321.549 265.918 317.977 265.983 315.36ZM265.693 314.98C265.657 318.196 265.018 323.201 265.018 323.201L265.586 323.035L265.853 326.044L266.486 324.007L266.676 326.755L267.386 324.978L268.055 327.252L268.523 324.646L269.63 326.322L269.322 323.177L269.991 325.452L269.724 322.443L270.459 322.846C270.192 319.837 269.428 315.123 269.428 315.123C268.949 315.265 268.44 315.312 267.96 315.312C266.747 315.306 265.693 314.98 265.693 314.98Z" fill="black"/>
<path d="M245.623 126.036L249.098 125.343L241.171 85.4002L237.856 85.8681L245.623 126.036Z" fill="#B2B2B2" stroke="black" stroke-width="0.5" stroke-miterlimit="10"/>
<path d="M249.166 125.197L245.479 125.93L245.695 127.016L249.382 126.284L249.166 125.197Z" fill="#4D4D4D" stroke="black" stroke-width="0.5" stroke-miterlimit="10"/>
<path d="M246.067 126.96L245.931 128.156L249.619 127.421L248.98 126.385L246.067 126.96Z" fill="#4D4D4D" stroke="black" stroke-width="0.5" stroke-miterlimit="10"/>
<path d="M248.371 127.652L247.07 127.911L247.112 128.12L248.412 127.861L248.371 127.652Z" fill="#4D4D4D" stroke="black" stroke-width="0.5" stroke-miterlimit="10"/>
<path d="M248.98 126.385L248.382 127.67L247.553 126.663L247.085 127.931L246.067 126.96L248.98 126.385Z" fill="#4D4D4D" stroke="black" stroke-width="0.5" stroke-miterlimit="10" stroke-linecap="round" stroke-linejoin="round"/>
<path d="M241.112 84.9856L249.075 125.236L249.27 125.195L249.519 126.456L249.163 126.527L249.708 127.416L248.471 127.658L248.512 127.872L247.21 128.126L247.168 127.919L246.02 128.15L246.132 127.131L245.682 127.22L245.434 125.959L245.599 125.923L237.796 85.4535L241.112 84.9856Z" stroke="black" stroke-width="1.5" stroke-miterlimit="10" stroke-linecap="round" stroke-linejoin="round"/>
<path d="M262.857 179.642L266.391 179.44L264.071 138.787H260.726L262.857 179.642Z" fill="#B2B2B2" stroke="black" stroke-width="0.5" stroke-miterlimit="10"/>
<path d="M266.497 179.338L262.743 179.552L262.807 180.658L266.56 180.444L266.497 179.338Z" fill="#4D4D4D" stroke="black" stroke-width="0.5" stroke-miterlimit="10"/>
<path d="M263.165 180.625L262.869 181.786L266.622 181.572L266.131 180.453L263.165 180.625Z" fill="#4D4D4D" stroke="black" stroke-width="0.5" stroke-miterlimit="10"/>
<path d="M265.37 181.663L264.046 181.739L264.058 181.951L265.382 181.875L265.37 181.663Z" fill="#4D4D4D" stroke="black" stroke-width="0.5" stroke-miterlimit="10"/>
<path d="M266.131 180.453L265.361 181.643L264.68 180.536L264.041 181.72L263.165 180.625L266.131 180.453Z" fill="#4D4D4D" stroke="black" stroke-width="0.5" stroke-miterlimit="10" stroke-linecap="round" stroke-linejoin="round"/>
<path d="M264.071 138.367L266.385 179.328L266.581 179.316L266.652 180.601L266.291 180.625L266.711 181.578L265.45 181.649L265.462 181.863L264.136 181.94L264.124 181.72L262.952 181.792L263.206 180.797L262.75 180.826L262.673 179.541L262.851 179.529L260.726 138.367H264.071Z" stroke="black" stroke-width="1.5" stroke-miterlimit="10" stroke-linecap="round" stroke-linejoin="round"/>
<path d="M272 277H263V278H272V277Z" stroke="black" stroke-width="1.5" stroke-miterlimit="10" stroke-linecap="round" stroke-linejoin="round"/>
<path d="M265.302 250.364L268.843 250.234L267.356 209.545L264.006 209.474L265.302 250.364Z" fill="#B2B2B2" stroke="black" stroke-width="0.5" stroke-miterlimit="10"/>
<path d="M268.943 250.105L265.186 250.243L265.226 251.349L268.983 251.212L268.943 250.105Z" fill="#4D4D4D" stroke="black" stroke-width="0.5" stroke-miterlimit="10"/>
<path d="M265.592 251.353L265.272 252.514L269.032 252.372L268.564 251.241L265.592 251.353Z" fill="#4D4D4D" stroke="black" stroke-width="0.5" stroke-miterlimit="10"/>
<path d="M267.764 252.4L266.438 252.448L266.446 252.661L267.771 252.612L267.764 252.4Z" fill="#4D4D4D" stroke="black" stroke-width="0.5" stroke-miterlimit="10"/>
<path d="M268.564 251.241L267.771 252.419L267.108 251.294L266.445 252.467L265.592 251.353L268.564 251.241Z" fill="#4D4D4D" stroke="black" stroke-width="0.5" stroke-miterlimit="10" stroke-linecap="round" stroke-linejoin="round"/>
<path d="M267.363 209.125L268.837 250.127L269.032 250.121L269.079 251.401L268.718 251.418L269.115 252.378L267.854 252.425L267.86 252.638L266.54 252.686L266.528 252.473L265.356 252.514L265.628 251.531L265.172 251.543L265.125 250.263L265.296 250.258L264.018 209.054L267.363 209.125Z" stroke="black" stroke-width="1.5" stroke-miterlimit="10" stroke-linecap="round" stroke-linejoin="round"/>
<path d="M268 396C275.18 396 281 392.866 281 389C281 385.134 275.18 382 268 382C260.82 382 255 385.134 255 389C255 392.866 260.82 396 268 396Z" stroke="black" stroke-width="0.5" stroke-miterlimit="10" stroke-linecap="round" stroke-linejoin="round"/>
<path d="M269 331V345" stroke="white" stroke-opacity="0.51" stroke-width="2" stroke-miterlimit="10" stroke-linecap="round" stroke-linejoin="round"/>
<path d="M265.924 314.536L269.47 314.548L269.606 273.83L266.261 273.628L265.924 314.536Z" fill="#B2B2B2" stroke="black" stroke-width="0.5" stroke-miterlimit="10"/>
<path d="M269.58 314.437L265.821 314.425L265.817 315.533L269.577 315.545L269.58 314.437Z" fill="#4D4D4D" stroke="black" stroke-width="0.5" stroke-miterlimit="10"/>
<path d="M266.178 315.531L265.811 316.68L269.571 316.692L269.15 315.543L266.178 315.531Z" fill="#4D4D4D" stroke="black" stroke-width="0.5" stroke-miterlimit="10"/>
<path d="M266.985 316.681L266.984 316.894L268.311 316.899L268.311 316.686L266.985 316.681Z" fill="#4D4D4D" stroke="black" stroke-width="0.5" stroke-miterlimit="10"/>
<path d="M269.15 315.543L268.31 316.686L267.694 315.537L266.983 316.68L266.178 315.531L269.15 315.543Z" fill="#4D4D4D" stroke="black" stroke-width="0.5" stroke-miterlimit="10" stroke-linecap="round" stroke-linejoin="round"/>
<path d="M269.63 273.409L269.47 314.435H269.665L269.659 315.721H269.298L269.659 316.698L268.392 316.692V316.911L267.066 316.905V316.692L265.894 316.686L266.208 315.709H265.746L265.752 314.424H265.93L266.291 273.208L269.63 273.409Z" stroke="black" stroke-width="1.5" stroke-miterlimit="10" stroke-linecap="round" stroke-linejoin="round"/>
<path d="M273 353H265V354H273V353Z" stroke="black" stroke-width="1.5" stroke-miterlimit="10" stroke-linecap="round" stroke-linejoin="round"/>
<path d="M268.5 401C282.031 401 293 395.404 293 388.5C293 381.596 282.031 376 268.5 376C254.969 376 244 381.596 244 388.5C244 395.404 254.969 401 268.5 401Z" stroke="black" stroke-width="0.5" stroke-miterlimit="10" stroke-linecap="round" stroke-linejoin="round"/>
<path d="M265.651 386.876L269.192 386.929L269.784 346.211L266.445 345.974L265.651 386.876Z" fill="#B2B2B2" stroke="black" stroke-width="0.5" stroke-miterlimit="10"/>
<path d="M269.325 386.806L265.566 386.752L265.55 387.859L269.309 387.913L269.325 386.806Z" fill="#4D4D4D" stroke="black" stroke-width="0.5" stroke-miterlimit="10"/>
<path d="M265.894 387.877L265.509 389.02L269.275 389.073L268.866 387.918L265.894 387.877Z" fill="#4D4D4D" stroke="black" stroke-width="0.5" stroke-miterlimit="10"/>
<path d="M266.67 389.02L266.667 389.233L267.993 389.252L267.996 389.04L266.67 389.02Z" fill="#4D4D4D" stroke="black" stroke-width="0.5" stroke-miterlimit="10"/>
<path d="M268.866 387.918L268.013 389.055L267.41 387.9L266.687 389.037L265.894 387.877L268.866 387.918Z" fill="#4D4D4D" stroke="black" stroke-width="0.5" stroke-miterlimit="10" stroke-linecap="round" stroke-linejoin="round"/>
<path d="M269.813 345.796L269.198 386.816L269.393 386.822L269.375 388.108L269.008 388.102L269.357 389.079L268.096 389.061V389.28L266.77 389.257V389.043L265.598 389.026L265.924 388.054L265.462 388.048L265.48 386.763L265.657 386.769L266.474 345.553L269.813 345.796Z" stroke="black" stroke-width="1.5" stroke-miterlimit="10" stroke-linecap="round" stroke-linejoin="round"/>
<path d="M265.975 383L257 393L266 387.612" stroke="black" stroke-width="1.5" stroke-miterlimit="10" stroke-linecap="round" stroke-linejoin="round"/>
<path d="M270 383L280 393L270.096 387.679" stroke="black" stroke-width="1.5" stroke-miterlimit="10" stroke-linecap="round" stroke-linejoin="round"/>
<path d="M268 256V271" stroke="#BBECF9" stroke-width="0.75" stroke-miterlimit="10" stroke-linejoin="round"/>
<path d="M265 206L263 197" stroke="black" stroke-width="0.5" stroke-miterlimit="10" stroke-linecap="round" stroke-linejoin="round"/>
<path d="M266 206V192" stroke="black" stroke-width="0.5" stroke-miterlimit="10" stroke-linecap="round" stroke-linejoin="round"/>
<path d="M268 206V197" stroke="black" stroke-width="0.5" stroke-miterlimit="10" stroke-linecap="round" stroke-linejoin="round"/>
<path d="M287 13.3327L290.13 12L292 15.0151L289.894 18L287 13.3327Z" fill="#DADADA" stroke="black" stroke-width="0.5" stroke-miterlimit="10"/>
<path d="M273.583 27L272 30L276 29.9273L273.583 27Z" fill="#4D4D4D" stroke="black" stroke-width="0.5" stroke-miterlimit="10" stroke-linecap="round" stroke-linejoin="round"/>
<path d="M272 31L273.823 27L276 30.5528L272 31Z" stroke="black" stroke-width="1.5" stroke-miterlimit="10" stroke-linecap="round" stroke-linejoin="round"/>
<path d="M272 31L269 32.6181L270.115 35L272 31Z" fill="#4D4D4D" stroke="black" stroke-width="0.5" stroke-miterlimit="10" stroke-linecap="round" stroke-linejoin="round"/>
<path d="M279.78 20H282L279.487 5C279.487 5 275.954 8.65666 279.78 20Z" fill="#DADADA" stroke="black" stroke-width="0.5" stroke-miterlimit="10"/>
<path d="M269 32.603L272 31L270.324 35L269 32.603Z" stroke="black" stroke-width="1.5" stroke-miterlimit="10" stroke-linecap="round" stroke-linejoin="round"/>
<path d="M279.782 20H282L279.49 5C279.484 5 275.954 8.65666 279.782 20Z" stroke="black" stroke-width="1.5" stroke-miterlimit="10" stroke-linecap="round" stroke-linejoin="round"/>
<path d="M283.432 23.5896L283 21.323L298 21C298 21 295.155 25.324 283.432 23.5896Z" fill="#DADADA" stroke="black" stroke-width="0.5" stroke-miterlimit="10"/>
<path d="M283.432 23.5918L283 21.3232L298 21C298 20.994 295.15 25.3216 283.432 23.5918Z" stroke="black" stroke-width="1.5" stroke-miterlimit="10" stroke-linecap="round" stroke-linejoin="round"/>
<path d="M279.693 20L283 23.0829L275.831 30L274.5 27L279.693 20Z" fill="#DADADA" stroke="black" stroke-width="0.5" stroke-miterlimit="10"/>
<path d="M280.027 21L283 24.0829L276.55 31L274 27.3942L280.027 21Z" stroke="black" stroke-width="1.5" stroke-miterlimit="10" stroke-linecap="round" stroke-linejoin="round"/>
<path d="M287 13.3374L290.124 12L292 15.0181L289.894 18L287 13.3374Z" stroke="black" stroke-width="1.5" stroke-miterlimit="10" stroke-linecap="round" stroke-linejoin="round"/>
<path d="M86 422H168" stroke="#BBECF9"/>
<circle cx="86" cy="422" r="2" fill="#BBECF9"/>
<text fill="white" xml:space="preserve" style="white-space: pre" font-family="Assistant" font-size="9" font-weight="bold" letter-spacing="0em"><tspan x="97" y="418.303">CABO CA&#xd1;AVERAL</tspan></text>
<text fill="white" xml:space="preserve" style="white-space: pre" font-family="Assistant" font-size="11" font-weight="bold" letter-spacing="0em"><tspan x="25.043" y="151.037">PRIMERA ETAPA</tspan></text>
<text fill="white" xml:space="preserve" style="white-space: pre" font-family="Assistant" font-size="11" font-weight="bold" letter-spacing="0em"><tspan x="12.208" y="294.037">LANZAMIENTO</tspan></text>
<text fill="white" xml:space="preserve" style="white-space: pre" font-family="Assistant" font-size="11" font-weight="bold" letter-spacing="0em"><tspan x="63.8955" y="90.037">SEGUNDA ETAPA</tspan></text>
<text fill="white" xml:space="preserve" style="white-space: pre" font-family="Assistant" font-size="11" font-weight="bold" letter-spacing="0em"><tspan x="137.815" y="43.037">PROPULSI&#xd3;N</tspan></text>
<text fill="white" xml:space="preserve" style="white-space: pre" font-family="Assistant" font-size="11" font-weight="bold" letter-spacing="0em"><tspan x="284" y="43.037">LANZAMIENTO</tspan></text>
<circle cx="270" cy="393" r="2" fill="white"/>
<text fill="white" xml:space="preserve" style="white-space: pre" font-family="Assistant" font-size="9" font-weight="bold" letter-spacing="0em"><tspan x="274" y="423.303">PLATAFORMA FLOTANTE</tspan></text>
<text fill="white" xml:space="preserve" style="white-space: pre" font-family="Assistant" font-size="7" letter-spacing="0em"><tspan x="163" y="361.069">OC&#xc9;ANO PAC&#xcd;FICO</tspan></text>
<path d="M270 393V427H372" stroke="white"/>
<text fill="white" xml:space="preserve" style="white-space: pre" font-family="Assistant" font-size="9" letter-spacing="0em"><tspan x="53.6338" y="163.303">3 minutos de </tspan><tspan x="29.5957" y="175.303">m&#xe1;xima propulsi&#xf3;n</tspan></text>
<text fill="white" xml:space="preserve" style="white-space: pre" font-family="Assistant" font-size="9" letter-spacing="0em"><tspan x="64.0566" y="102.303">Separaci&#xf3;n de partes</tspan></text>
<text fill="white" xml:space="preserve" style="white-space: pre" font-family="Assistant" font-size="11" font-weight="bold" letter-spacing="0em"><tspan x="283" y="102.037">TERCERA ETAPA</tspan></text>
<text fill="white" xml:space="preserve" style="white-space: pre" font-family="Assistant" font-size="9" letter-spacing="0em"><tspan x="283" y="115.303">El cuerpo principal </tspan><tspan x="283" y="127.303">vuelve a la tierra</tspan></text>
<text fill="white" xml:space="preserve" style="white-space: pre" font-family="Assistant" font-size="9" letter-spacing="0em"><tspan x="284" y="55.303">Colocaci&#xf3;n del material </tspan><tspan x="284" y="67.303">transportado</tspan></text>
<text fill="white" xml:space="preserve" style="white-space: pre" font-family="Assistant" font-size="11" font-weight="bold" letter-spacing="0em"><tspan x="283" y="160.037">CUARTA ETAPA</tspan></text>
<text fill="white" xml:space="preserve" style="white-space: pre" font-family="Assistant" font-size="9" letter-spacing="0em"><tspan x="283" y="173.303">Entrada a la </tspan><tspan x="283" y="185.303">atm&#xf3;sfera</tspan></text>
<text fill="white" xml:space="preserve" style="white-space: pre" font-family="Assistant" font-size="11" font-weight="bold" letter-spacing="0em"><tspan x="283" y="220.037">QUINTA ETAPA</tspan></text>
<text fill="white" xml:space="preserve" style="white-space: pre" font-family="Assistant" font-size="9" letter-spacing="0em"><tspan x="283" y="233.303">Ca&#xed;da libre</tspan></text>
<text fill="white" xml:space="preserve" style="white-space: pre" font-family="Assistant" font-size="11" font-weight="bold" letter-spacing="0em"><tspan x="283" y="263.037">SEXTA ETAPA</tspan></text>
<text fill="white" xml:space="preserve" style="white-space: pre" font-family="Assistant" font-size="9" letter-spacing="0em"><tspan x="283" y="276.303">Motores encedidos y </tspan><tspan x="283" y="288.303">control de trayectoria</tspan></text>
<text fill="white" xml:space="preserve" style="white-space: pre" font-family="Assistant" font-size="11" font-weight="bold" letter-spacing="0em"><tspan x="283" y="316.037">S&#xc9;PTIMA ETAPA</tspan></text>
<text fill="white" xml:space="preserve" style="white-space: pre" font-family="Assistant" font-size="9" letter-spacing="0em"><tspan x="283" y="329.303">Despliegue de patas </tspan><tspan x="283" y="341.303">y aterrizaje</tspan></text>
<path d="M135.576 122.654L138.217 125.011L165.308 94.6158L162.94 92.2467L135.576 122.654Z" fill="#B2B2B2" stroke="black" stroke-width="0.5" stroke-miterlimit="10"/>
<path d="M138.389 124.997L135.583 122.494L134.846 123.321L137.652 125.824L138.389 124.997Z" fill="#4D4D4D" stroke="black" stroke-width="0.5" stroke-miterlimit="10"/>
<path d="M135.102 123.566L134.066 124.176L136.879 126.681L137.323 125.544L135.102 123.566Z" fill="#4D4D4D" stroke="black" stroke-width="0.5" stroke-miterlimit="10"/>
<path d="M134.941 124.943L134.799 125.103L135.789 125.985L135.931 125.826L134.941 124.943Z" fill="#4D4D4D" stroke="black" stroke-width="0.5" stroke-miterlimit="10"/>
<path d="M137.323 125.544L135.937 125.84L136.233 124.573L134.943 124.958L135.102 123.566L137.323 125.544Z" fill="#4D4D4D" stroke="black" stroke-width="0.5" stroke-miterlimit="10" stroke-linecap="round" stroke-linejoin="round"/>
<path d="M165.604 94.3196L138.294 124.928L138.442 125.058L137.583 126.018L137.317 125.775L136.938 126.746L135.996 125.905L135.848 126.065L134.86 125.183L135.002 125.023L134.126 124.241L135.008 123.72L134.664 123.412L135.517 122.452L135.647 122.571L163.236 91.9506L165.604 94.3196Z" stroke="black" stroke-width="1.5" stroke-miterlimit="10" stroke-linecap="round" stroke-linejoin="round"/>
<text fill="white" xml:space="preserve" style="white-space: pre" font-family="Assistant" font-size="7" letter-spacing="0em"><tspan x="169" y="190.069">ATM&#xd3;SFERA</tspan></text>
</g>
<defs>
<clipPath id="clip0_25_50">
<rect width="391" height="442" fill="white"/>
</clipPath>
</defs>
</svg>
