<svg width="391" height="282" viewBox="0 0 391 282" fill="none" xmlns="http://www.w3.org/2000/svg">
<path d="M69 265.779L77.7795 266.736C77.7795 266.736 89.4856 268.298 93.7778 265.564C98.07 262.831 101.699 264.393 104.372 265.564C107.045 266.736 107.306 266.443 109.124 265.611C110.947 264.783 113.179 265.67 114.014 267.177C114.849 268.685 115.629 268.294 116.8 268.684C117.97 269.075 116.8 270.246 116.409 271.418C116.019 272.589 116.8 272.199 117.97 272.199C119.141 272.199 117.19 272.589 117.19 273.761C117.19 274.932 118.751 275.323 119.531 274.932C120.311 274.542 120.311 275.323 120.311 275.713C120.311 276.104 119.921 278.056 120.702 278.056C121.482 278.056 123.433 277.666 123.433 278.837C123.433 280.009 124.604 281.571 125.774 280.79C126.945 280.009 126.945 278.837 127.725 278.837C128.506 278.837 127.725 276.494 128.506 275.713C129.286 274.932 127.725 272.589 125.774 271.418C123.823 270.246 119.921 263.218 123.043 261.265C126.164 259.313 124.994 256.579 126.555 256.97C128.115 257.36 130.457 257.36 131.237 256.189C132.017 255.017 134.749 254.236 137.09 253.846C139.431 253.455 138.651 252.674 140.212 252.284C141.772 251.893 144.504 252.674 144.894 251.503C145.284 250.331 148.406 250.331 148.016 248.379C147.626 246.426 146.845 246.817 146.455 245.645C146.065 244.474 144.114 246.817 144.504 244.864C144.894 242.912 146.065 242.521 144.894 241.74C143.724 240.959 142.553 240.178 143.724 239.007C144.894 237.835 146.065 237.445 146.455 237.445C146.845 237.445 147.235 238.226 146.845 238.226C146.455 238.226 145.284 238.226 145.284 238.616C145.284 239.007 144.894 240.959 145.675 240.569C146.455 240.178 147.626 240.569 147.235 240.959C146.845 241.35 147.235 242.131 147.626 242.131C148.016 242.131 148.016 242.521 146.845 242.912C145.675 243.302 146.455 244.474 146.845 244.083C147.235 243.693 146.845 243.693 147.626 243.302C148.406 242.912 148.796 241.35 149.967 240.959C151.137 240.569 151.137 239.788 150.357 239.397C149.577 239.007 148.016 237.835 148.796 237.835C149.577 237.835 150.275 238.195 150.899 238.601C151.528 239.007 151.918 239.788 152.308 239.007C152.698 238.226 152.308 237.445 153.479 237.054C154.649 236.664 156.081 235.879 155.558 235.102C155.039 234.321 153.869 235.102 154.259 234.321C154.649 233.54 155.129 234.364 155.671 233.56C156.214 232.755 157.541 232.06 158.633 232.017C159.726 231.974 165.185 231.974 165.965 231.584C166.745 231.193 167.136 230.412 167.526 230.412C167.916 230.412 167.916 230.412 167.916 230.412C167.916 230.412 167.916 231.584 169.477 231.193C171.038 230.803 172.758 231.193 172.676 230.412C172.594 229.631 172.224 229.491 172.224 229.491C172.224 229.491 102 232.017 69 239.007L50.5 243L50 246L49 252.284L53 259L60 264L69 265.779Z" fill="#DADADA" stroke="black" stroke-width="0.330189" stroke-miterlimit="10"/>
<path d="M0 262C14 251.167 71.8 229.5 191 229.5C310.2 229.5 374 251.167 391 262" stroke="white"/>
<path d="M0 147.5C14 136.667 71.8 115 191 115C310.2 115 374 136.667 391 147.5" stroke="#4F5E78" stroke-dasharray="2 2"/>
<path d="M201.736 253.193L208.782 251.999L207.216 249.214L270.63 238.075L272.587 240.86L278.851 239.667L288.245 255.579L282.765 256.773L284.331 259.558L220.917 271.094L218.568 267.912L211.913 269.503L201.736 253.193Z" fill="#DADADA" stroke="black" stroke-width="0.330189" stroke-miterlimit="10" stroke-linecap="round" stroke-linejoin="round"/>
<path d="M212.302 269.262V272.415L201.736 256.386V253.264L212.302 269.262Z" fill="#DADADA" stroke="black" stroke-width="0.330189" stroke-miterlimit="10" stroke-linecap="round" stroke-linejoin="round"/>
<path d="M221.547 270.749V274.396L218.906 270.749V267.792L221.547 270.749Z" fill="#DADADA" stroke="black" stroke-width="0.330189" stroke-miterlimit="10" stroke-linecap="round" stroke-linejoin="round"/>
<path d="M212.302 272.415L218.906 270.854V267.792L212.302 269.323V272.415Z" fill="#DADADA" stroke="black" stroke-width="0.330189" stroke-miterlimit="10" stroke-linecap="round" stroke-linejoin="round"/>
<path d="M284.283 259.208V263.568L221.547 274.396V270.539L284.283 259.208Z" fill="#DADADA" stroke="black" stroke-width="0.330189" stroke-miterlimit="10" stroke-linecap="round" stroke-linejoin="round"/>
<path d="M207.679 249.302V251.943L209 251.713L207.679 249.302Z" fill="#DADADA" stroke="black" stroke-width="0.330189" stroke-miterlimit="10" stroke-linecap="round" stroke-linejoin="round"/>
<path d="M288.245 258.339V255.906L282.962 256.973L284.317 259.208L288.245 258.339Z" fill="#DADADA" stroke="black" stroke-width="0.330189" stroke-miterlimit="10" stroke-linecap="round" stroke-linejoin="round"/>
<path d="M132.716 150.333C132.716 150.29 132.689 150.255 132.649 150.239C132.638 150.235 132.63 150.235 132.618 150.235C132.587 150.235 132.56 150.247 132.54 150.275L132.024 150.932L132.325 149.571C132.337 149.524 132.309 149.477 132.266 149.461C132.255 149.457 132.243 149.453 132.227 149.453C132.196 149.453 132.165 149.469 132.145 149.496L131.637 150.259L131.93 148.788C131.934 148.761 131.93 148.73 131.911 148.706C131.891 148.683 131.864 148.671 131.836 148.671H131.57C131.727 148.084 132.434 145.526 133.431 143.821C133.717 143.997 134.655 144.525 135.633 144.564C135.562 145.112 135.234 147.627 134.901 149.355L134.64 149.093C134.62 149.074 134.596 149.066 134.569 149.066C134.561 149.066 134.55 149.066 134.542 149.07C134.507 149.082 134.483 149.109 134.475 149.144L134.28 150.13V149.551C134.28 149.5 134.241 149.457 134.19 149.453C134.186 149.453 134.182 149.453 134.182 149.453C134.135 149.453 134.096 149.485 134.084 149.531L133.768 151.198L133.494 150.306C133.482 150.267 133.447 150.239 133.408 150.235C133.404 150.235 133.404 150.235 133.4 150.235C133.365 150.235 133.33 150.255 133.314 150.29L132.716 151.483V150.333Z" fill="#73D7F9"/>
<path d="M133.467 143.954C133.818 144.161 134.643 144.588 135.523 144.654C135.433 145.339 135.144 147.533 134.839 149.152L134.71 149.023C134.671 148.984 134.624 148.964 134.573 148.964C134.553 148.964 134.534 148.968 134.518 148.972C134.448 148.992 134.397 149.05 134.381 149.121L134.323 149.414C134.292 149.383 134.249 149.359 134.202 149.355C134.194 149.355 134.19 149.355 134.182 149.355C134.088 149.355 134.006 149.422 133.99 149.516L133.748 150.795L133.588 150.278C133.564 150.2 133.498 150.149 133.416 150.142C133.412 150.142 133.404 150.142 133.4 150.142C133.326 150.142 133.259 150.185 133.224 150.251L132.814 151.076V150.333C132.814 150.251 132.759 150.177 132.681 150.149C132.661 150.142 132.638 150.138 132.618 150.138C132.56 150.138 132.501 150.165 132.466 150.212L132.212 150.537L132.419 149.594C132.438 149.504 132.391 149.41 132.305 149.371C132.282 149.359 132.255 149.355 132.227 149.355C132.165 149.355 132.102 149.387 132.063 149.441L131.828 149.793L132.024 148.808C132.036 148.749 132.02 148.691 131.985 148.644C131.95 148.597 131.891 148.573 131.832 148.573H131.696C131.903 147.83 132.563 145.55 133.467 143.954ZM133.4 143.684C132.227 145.64 131.445 148.769 131.445 148.769H131.836L131.445 150.724L132.227 149.551L131.836 151.327L132.618 150.333V151.898L133.4 150.333L133.791 151.6L134.182 149.551V151.115L134.573 149.16L134.964 149.551C135.355 147.595 135.746 144.466 135.746 144.466C134.573 144.466 133.4 143.684 133.4 143.684Z" fill="black"/>
<path d="M132.716 150.333C132.716 150.29 132.689 150.255 132.649 150.239C132.638 150.235 132.63 150.235 132.618 150.235C132.587 150.235 132.56 150.247 132.54 150.275L132.024 150.932L132.325 149.571C132.337 149.524 132.309 149.477 132.266 149.461C132.255 149.457 132.243 149.453 132.227 149.453C132.196 149.453 132.165 149.469 132.145 149.496L131.637 150.259L131.93 148.788C131.934 148.761 131.93 148.73 131.911 148.706C131.891 148.683 131.864 148.671 131.836 148.671H131.57C131.727 148.084 132.434 145.526 133.431 143.821C133.717 143.997 134.655 144.525 135.633 144.564C135.562 145.112 135.234 147.627 134.901 149.355L134.64 149.093C134.62 149.074 134.596 149.066 134.569 149.066C134.561 149.066 134.55 149.066 134.542 149.07C134.507 149.082 134.483 149.109 134.475 149.144L134.28 150.13V149.551C134.28 149.5 134.241 149.457 134.19 149.453C134.186 149.453 134.182 149.453 134.182 149.453C134.135 149.453 134.096 149.485 134.084 149.531L133.768 151.198L133.494 150.306C133.482 150.267 133.447 150.239 133.408 150.235C133.404 150.235 133.404 150.235 133.4 150.235C133.365 150.235 133.33 150.255 133.314 150.29L132.716 151.483V150.333Z" fill="#BBECF9"/>
<path d="M133.467 143.954C133.818 144.161 134.643 144.588 135.523 144.654C135.433 145.339 135.144 147.533 134.839 149.152L134.71 149.023C134.671 148.984 134.624 148.964 134.573 148.964C134.553 148.964 134.534 148.968 134.518 148.972C134.448 148.992 134.397 149.05 134.381 149.121L134.323 149.414C134.292 149.383 134.249 149.359 134.202 149.355C134.194 149.355 134.19 149.355 134.182 149.355C134.088 149.355 134.006 149.422 133.99 149.516L133.748 150.795L133.588 150.278C133.564 150.2 133.498 150.149 133.416 150.142C133.412 150.142 133.404 150.142 133.4 150.142C133.326 150.142 133.259 150.185 133.224 150.251L132.814 151.076V150.333C132.814 150.251 132.759 150.177 132.681 150.149C132.661 150.142 132.638 150.138 132.618 150.138C132.56 150.138 132.501 150.165 132.466 150.212L132.212 150.537L132.419 149.594C132.438 149.504 132.391 149.41 132.305 149.371C132.282 149.359 132.255 149.355 132.227 149.355C132.165 149.355 132.102 149.387 132.063 149.441L131.828 149.793L132.024 148.808C132.036 148.749 132.02 148.691 131.985 148.644C131.95 148.597 131.891 148.573 131.832 148.573H131.696C131.903 147.83 132.563 145.55 133.467 143.954ZM133.4 143.684C132.227 145.64 131.445 148.769 131.445 148.769H131.836L131.445 150.724L132.227 149.551L131.836 151.327L132.618 150.333V151.898L133.4 150.333L133.791 151.6L134.182 149.551V151.115L134.573 149.16L134.964 149.551C135.355 147.595 135.746 144.466 135.746 144.466C134.573 144.466 133.4 143.684 133.4 143.684Z" fill="black"/>
<path d="M125.792 219.585C125.792 219.585 128.953 177.329 133.057 153.547" stroke="#BBECF9" stroke-width="0.495283" stroke-miterlimit="10" stroke-linejoin="round"/>
<path d="M187.276 54.2615L182.98 56.1469L183.922 58.296L188.219 56.4106L187.276 54.2615Z" fill="#B2B2B2" stroke="black" stroke-width="0.330189" stroke-miterlimit="10"/>
<path d="M187.276 54.3401L182.98 56.2255L183.922 58.3746L188.219 56.4892L187.276 54.3401Z" stroke="black" stroke-width="0.990566" stroke-miterlimit="10" stroke-linecap="round" stroke-linejoin="round"/>
<path d="M150.226 94.1132C150.226 94.1132 153.823 86.0385 156.83 81.566" stroke="#BBECF9" stroke-width="0.495283" stroke-miterlimit="10" stroke-linejoin="round"/>
<path d="M128.434 230.151H123.811V271.755H128.434V230.151Z" fill="#B2B2B2" stroke="black" stroke-width="0.330189" stroke-miterlimit="10"/>
<path d="M128.434 227.509H123.811V230.151H128.434V227.509Z" fill="#DADADA" stroke="black" stroke-width="0.330189" stroke-miterlimit="10"/>
<path d="M128.434 226.189H123.811V227.509H128.434V226.189Z" fill="#DADADA" stroke="black" stroke-width="0.330189" stroke-miterlimit="10"/>
<path d="M124.472 230.811V227.679C124.472 227.679 124.192 227.298 123.812 227.679V230.408C123.806 230.411 123.845 230.604 124.472 230.811Z" fill="#DADADA" stroke="black" stroke-width="0.330189" stroke-miterlimit="10"/>
<path d="M127.774 230.811V227.686C127.774 227.686 128.129 227.289 128.434 227.686V230.5C128.439 230.5 128.271 230.8 127.774 230.811Z" fill="#DADADA" stroke="black" stroke-width="0.330189" stroke-miterlimit="10"/>
<path d="M123.811 226.189L124.628 224.208H127.617L128.434 226.189H123.811Z" fill="#DADADA" stroke="black" stroke-width="0.330189" stroke-miterlimit="10"/>
<path d="M124.472 224.208C124.472 222.887 126.123 222.887 126.123 222.887C126.123 222.887 127.774 222.887 127.774 224.208H124.472Z" fill="#DADADA" stroke="black" stroke-width="0.330189" stroke-miterlimit="10"/>
<path d="M125.788 271.755L125.132 272.415H126.453L125.788 271.755Z" fill="#4D4D4D" stroke="black" stroke-width="0.330189" stroke-miterlimit="10" stroke-linecap="round" stroke-linejoin="round"/>
<path d="M124.139 271.755L123.811 272.415H124.472L124.139 271.755Z" fill="#4D4D4D" stroke="black" stroke-width="0.330189" stroke-miterlimit="10" stroke-linecap="round" stroke-linejoin="round"/>
<path d="M128.103 271.755L127.774 272.415H128.434L128.103 271.755Z" fill="#4D4D4D" stroke="black" stroke-width="0.330189" stroke-miterlimit="10" stroke-linecap="round" stroke-linejoin="round"/>
<path d="M123.811 235.434H128.434" stroke="black" stroke-width="0.330189" stroke-miterlimit="10" stroke-linecap="round" stroke-linejoin="round"/>
<path d="M123.811 241.377H128.434" stroke="black" stroke-width="0.330189" stroke-miterlimit="10" stroke-linecap="round" stroke-linejoin="round"/>
<path d="M123.811 270.434H128.434" stroke="black" stroke-width="0.330189" stroke-miterlimit="10" stroke-linecap="round" stroke-linejoin="round"/>
<path d="M123.151 271.755H124.472L123.994 269.946C123.932 269.708 123.521 269.72 123.475 269.959L123.151 271.755Z" fill="#B2B2B2" stroke="black" stroke-width="0.330189" stroke-miterlimit="10"/>
<path d="M129.094 271.755H127.774L128.252 269.946C128.313 269.708 128.724 269.72 128.771 269.959L129.094 271.755Z" fill="#B2B2B2" stroke="black" stroke-width="0.330189" stroke-miterlimit="10"/>
<path d="M128.444 230.171L128.585 229.999V227.032C128.585 227.032 128.568 226.833 128.32 226.833V226.613L127.576 224.202C127.576 224.202 127.576 222.891 126.213 222.887C126.213 222.887 124.85 222.887 124.85 224.202L124.107 226.613V226.786C124.107 226.786 123.859 226.833 123.806 227.017V229.901L123.956 230.105V269.573C123.956 269.573 123.536 269.213 123.452 269.609L123.151 271.319H124.288L123.766 272.415H124.979L124.368 271.198H126.196L125.594 272.415H126.806L126.244 271.198H127.988L127.386 272.415H128.599L128.05 271.319H129.094L128.815 269.671C128.815 269.671 128.815 269.432 128.444 269.499V230.171Z" stroke="black" stroke-width="0.990566" stroke-miterlimit="10" stroke-linecap="round" stroke-linejoin="round"/>
<path d="M128.444 230.171L128.585 229.999V227.032C128.585 227.032 128.568 226.833 128.32 226.833V226.613L127.576 224.202C127.576 224.202 127.576 222.891 126.213 222.887C126.213 222.887 124.85 222.887 124.85 224.202L124.107 226.613V226.786C124.107 226.786 123.859 226.833 123.806 227.017V229.901L123.956 230.105V269.573C123.956 269.573 123.536 269.213 123.452 269.609L123.151 271.319H124.288L123.766 272.415H124.979L124.368 271.198H126.196L125.594 272.415H126.806L126.244 271.198H127.988L127.386 272.415H128.599L128.05 271.319H129.094L128.815 269.671C128.815 269.671 128.815 269.432 128.444 269.499V230.171Z" stroke="black" stroke-width="0.990566" stroke-miterlimit="10" stroke-linecap="round" stroke-linejoin="round"/>
<path d="M145.224 101.937L133.434 141.381L137.232 142.518L149.023 103.073L145.224 101.937Z" fill="#B2B2B2" stroke="black" stroke-width="0.330189" stroke-miterlimit="10"/>
<path d="M146.07 99.1072L145.223 101.94L148.864 103.029L149.711 100.196L146.07 99.1072Z" fill="#DADADA" stroke="black" stroke-width="0.330189" stroke-miterlimit="10"/>
<path d="M149.875 99.8069L146.309 98.7401L146.184 99.1598L149.75 100.227L149.875 99.8069Z" fill="#DADADA" stroke="black" stroke-width="0.330189" stroke-miterlimit="10"/>
<path d="M145.278 102.038L146.264 98.9708C146.264 98.9708 146.191 98.5429 145.804 98.842L144.944 101.515C144.944 101.515 144.908 101.712 145.278 102.038Z" fill="#DADADA" stroke="black" stroke-width="0.330189" stroke-miterlimit="10"/>
<path d="M148.245 103.335L149.115 100.165C149.115 100.165 149.469 99.8425 149.566 100.31L148.783 103.163C148.783 103.166 148.585 103.438 148.245 103.335Z" fill="#DADADA" stroke="black" stroke-width="0.330189" stroke-miterlimit="10"/>
<path d="M146.264 98.7326L147.465 96.0944L149.566 96.9511L149.513 100.057L146.264 98.7326Z" fill="#DADADA" stroke="black" stroke-width="0.330189" stroke-miterlimit="10"/>
<path d="M147.585 96.1998C147.897 95.1903 148.856 95.4693 148.856 95.4693C148.856 95.4693 149.816 95.7452 149.504 96.7547L147.585 96.1998Z" fill="#DADADA" stroke="black" stroke-width="0.330189" stroke-miterlimit="10"/>
<path d="M134.927 142.321L134.377 142.827L135.038 142.981L134.927 142.321Z" fill="#4D4D4D" stroke="black" stroke-width="0.330189" stroke-miterlimit="10" stroke-linecap="round" stroke-linejoin="round"/>
<path d="M133.609 141.66L133.057 142.675L133.717 142.981L133.609 141.66Z" fill="#4D4D4D" stroke="black" stroke-width="0.330189" stroke-miterlimit="10" stroke-linecap="round" stroke-linejoin="round"/>
<path d="M136.25 142.321L135.698 143.333L136.358 143.641L136.25 142.321Z" fill="#4D4D4D" stroke="black" stroke-width="0.330189" stroke-miterlimit="10" stroke-linecap="round" stroke-linejoin="round"/>
<path d="M143.623 106.66L146.925 107.321" stroke="black" stroke-width="0.330189" stroke-miterlimit="10" stroke-linecap="round" stroke-linejoin="round"/>
<path d="M141.641 112.604L145.604 113.925" stroke="black" stroke-width="0.330189" stroke-miterlimit="10" stroke-linecap="round" stroke-linejoin="round"/>
<path d="M133.717 140.34L137.019 141.66" stroke="black" stroke-width="0.330189" stroke-miterlimit="10" stroke-linecap="round" stroke-linejoin="round"/>
<path d="M133.057 141.36L133.639 141.66L133.717 139.904C133.726 139.672 133.544 139.591 133.485 139.798L133.057 141.36Z" fill="#B2B2B2" stroke="black" stroke-width="0.330189" stroke-miterlimit="10"/>
<path d="M137.415 142.981L136.359 142.676L137.265 141.11C137.385 140.904 137.711 141.011 137.677 141.242L137.415 142.981Z" fill="#B2B2B2" stroke="black" stroke-width="0.330189" stroke-miterlimit="10"/>
<path d="M148.58 103.037L148.745 102.908L149.555 100.06C149.555 100.06 149.593 99.8638 149.395 99.8011L149.454 99.5892L149.51 97.0865C149.51 97.0865 149.869 95.8273 148.767 95.4782C148.767 95.4782 147.665 95.1291 147.307 96.3922L146.048 98.5183L145.999 98.6831C145.999 98.6831 145.786 98.6635 145.693 98.8282L144.905 101.598L144.972 101.833L134.185 139.731C134.185 139.731 133.946 139.279 133.766 139.636L133.057 141.202L133.976 141.492L133.255 142.41L134.237 142.72L134.076 141.394L135.556 141.857L134.737 142.873L135.72 143.183L135.597 141.872L137.005 142.316L136.187 143.332L137.169 143.642L137.023 142.449L137.868 142.716L138.092 141.064C138.092 141.064 138.155 140.837 137.838 140.805L148.58 103.037Z" stroke="black" stroke-width="0.990566" stroke-miterlimit="10" stroke-linecap="round" stroke-linejoin="round"/>
<path d="M148.58 103.037L148.745 102.908L149.555 100.06C149.555 100.06 149.593 99.8638 149.395 99.8011L149.454 99.5892L149.51 97.0865C149.51 97.0865 149.869 95.8273 148.767 95.4782C148.767 95.4782 147.665 95.1291 147.307 96.3922L146.048 98.5183L145.999 98.6831C145.999 98.6831 145.786 98.6635 145.693 98.8282L144.905 101.598L144.972 101.833L134.185 139.731C134.185 139.731 133.946 139.279 133.766 139.636L133.057 141.202L133.976 141.492L133.255 142.41L134.237 142.72L134.076 141.394L135.556 141.857L134.737 142.873L135.72 143.183L135.597 141.872L137.005 142.316L136.187 143.332L137.169 143.642L137.023 142.449L137.868 142.716L138.092 141.064C138.092 141.064 138.155 140.837 137.838 140.805L148.58 103.037Z" stroke="black" stroke-width="0.990566" stroke-miterlimit="10" stroke-linecap="round" stroke-linejoin="round"/>
<path d="M212.302 28.0756L214.283 31.3774" stroke="black" stroke-width="0.330189" stroke-miterlimit="10"/>
<path d="M214.725 26.2798L212.153 27.7355L214.024 31.0445L216.596 29.5888L214.725 26.2798Z" fill="#DADADA" stroke="black" stroke-width="0.330189" stroke-miterlimit="10"/>
<path d="M217.007 29.4236L215.174 26.1827L214.793 26.3984L216.626 29.6393L217.007 29.4236Z" fill="#DADADA" stroke="black" stroke-width="0.330189" stroke-miterlimit="10"/>
<path d="M206.358 32.6066L207.53 34.6793L214.283 31.5826L212.417 28.0756L206.358 32.6066Z" fill="#DADADA" stroke="black" stroke-width="0.330189" stroke-miterlimit="10"/>
<path d="M212.304 28.0755L214.883 26.4875C214.883 26.4875 215.111 26.1287 214.68 26.0944L212.43 27.48C212.433 27.48 212.283 27.5983 212.304 28.0755Z" fill="#DADADA" stroke="black" stroke-width="0.330189" stroke-miterlimit="10"/>
<path d="M213.623 31.084L216.594 29.3962C216.594 29.3962 217.109 29.4288 216.853 29.8558L214.178 31.3727C214.178 31.3768 213.825 31.4256 213.623 31.084Z" fill="#DADADA" stroke="black" stroke-width="0.330189" stroke-miterlimit="10"/>
<path d="M214.943 26.0655L217.604 25.434L218.906 27.5901L216.959 29.3962L214.943 26.0655Z" fill="#DADADA" stroke="black" stroke-width="0.330189" stroke-miterlimit="10"/>
<path d="M206.352 32.0377L205.038 34.4591L207.679 34.6792L206.352 32.0377Z" fill="#4D4D4D" stroke="black" stroke-width="0.330189" stroke-miterlimit="10" stroke-linecap="round" stroke-linejoin="round"/>
<path d="M218.245 25.6744C219.043 24.9353 219.458 26.1358 219.458 26.1358C219.458 26.1358 219.873 27.3363 219.073 28.0755L218.245 25.6744Z" fill="#DADADA" stroke="black" stroke-width="0.330189" stroke-miterlimit="10"/>
<path d="M214.156 31.3538L214.366 31.3774L216.889 29.9157C216.889 29.9157 217.049 29.802 216.942 29.614L217.13 29.5042L218.861 27.7447C218.861 27.7447 219.977 27.0982 219.4 26.048C219.4 26.048 218.823 24.9978 217.703 25.6443L215.337 26.2596L215.192 26.3458C215.192 26.3458 215.046 26.1773 214.867 26.2282L212.413 27.6507L212.302 27.8662" stroke="black" stroke-width="0.990566" stroke-miterlimit="10" stroke-linecap="round" stroke-linejoin="round"/>
<path d="M214.101 31.6395L214.313 31.6641L216.862 30.1319C216.862 30.1319 217.024 30.0128 216.916 29.8157L217.105 29.7006L218.854 27.8562C218.854 27.8562 219.982 27.1785 219.399 26.0776C219.399 26.0776 218.815 24.9767 217.684 25.6545L215.294 26.2994L215.147 26.3898C215.147 26.3898 215 26.2131 214.819 26.2665L212.34 27.7577L212.228 27.9836L206.358 32.2146L207.517 34.6792L214.101 31.6395Z" stroke="black" stroke-width="0.990566" stroke-miterlimit="10" stroke-linecap="round" stroke-linejoin="round"/>
<path d="M205.038 34.6792L206.495 32.0377L207.679 34.6792H205.038Z" stroke="black" stroke-width="0.990566" stroke-miterlimit="10" stroke-linecap="round" stroke-linejoin="round"/>
<path d="M205.038 34.6793L202.396 35.31L203.181 36.6605L205.038 34.6793Z" fill="#4D4D4D" stroke="black" stroke-width="0.330189" stroke-miterlimit="10" stroke-linecap="round" stroke-linejoin="round"/>
<path d="M202.396 35.2737L205.038 34.6793L203.377 36.6605L202.396 35.2737Z" stroke="black" stroke-width="0.990566" stroke-miterlimit="10" stroke-linecap="round" stroke-linejoin="round"/>
<path d="M197.19 39.8068C197.213 39.7716 197.209 39.7208 197.178 39.6895C197.159 39.6699 197.131 39.6582 197.108 39.6582C197.092 39.6582 197.077 39.6621 197.065 39.6699L196.076 40.1549L196.772 39.4314C196.803 39.4001 196.807 39.3492 196.783 39.314C196.764 39.2827 196.733 39.2671 196.701 39.2671C196.693 39.2671 196.682 39.2671 196.674 39.271L196.095 39.4431L197.1 38.6843C197.139 38.6569 197.151 38.6022 197.127 38.5592C197.112 38.5279 197.077 38.5083 197.041 38.5083C197.03 38.5083 197.018 38.5083 197.006 38.5161L196.385 38.7469L197.44 37.9255C197.464 37.9099 197.475 37.8825 197.479 37.8551C197.479 37.8278 197.471 37.8004 197.448 37.7808L197.331 37.6674C197.804 37.335 199.935 35.8565 201.635 35.1173C201.67 35.4302 201.803 36.2085 202.249 36.7053C201.846 37.0534 199.958 38.6726 198.586 39.7521L198.621 39.5174C198.625 39.4783 198.609 39.4392 198.574 39.4196C198.558 39.4118 198.543 39.4079 198.523 39.4079C198.504 39.4079 198.48 39.4157 198.464 39.4274L197.984 39.8029L198.12 39.6582C198.156 39.623 198.156 39.5643 198.124 39.5252C198.105 39.5057 198.077 39.4939 198.05 39.4939C198.031 39.4939 198.007 39.5018 197.991 39.5135L196.795 40.4561L197.19 39.8068Z" fill="#BBECF9"/>
<path d="M172.679 63.9671C172.679 63.9671 172.722 63.9165 172.808 63.8232" stroke="#BBECF9" stroke-width="0.495283" stroke-linejoin="round" stroke-dasharray="1.32 1.32"/>
<path d="M174.153 62.3722C178.059 58.1794 188.865 46.8447 195.93 41.9401" stroke="#BBECF9" stroke-width="0.495283" stroke-linejoin="round" stroke-dasharray="1.32 1.32"/>
<path d="M196.755 41.388C196.809 41.353 196.864 41.318 196.918 41.283" stroke="#BBECF9" stroke-width="0.495283" stroke-linejoin="round" stroke-dasharray="1.32 1.32"/>
<path d="M175.981 63.7916C175.981 63.7916 229.647 32.4021 241.358 121.849" stroke="#BBECF9" stroke-width="0.495283" stroke-miterlimit="10" stroke-linejoin="round"/>
<path d="M232.113 71.5075L233.926 57.7925L234.175 68.536L234.517 66.2898L234.758 69.4719L235.694 68.3176L234.669 72.9543L236.872 70.3415L235.475 74.8534L237.499 73.0206L235.508 77.2244L236.957 76.6122L235.579 78.4567L238.057 76.5693C238.057 76.5693 237.139 79.9386 233.811 80.9057L232.113 71.5075Z" fill="#BBECF9"/>
<path d="M244.18 115.904C240.3 115.81 236.912 113.433 236.912 113.433H240.336L238.035 110.73L241.612 112.492L238.164 108.223L240.253 108.822L236.468 103.679L240.002 106.029L236.075 98.5872L240.253 104.071C240.253 104.071 238.431 87.2279 241.965 74.3019C241.965 74.3019 246.548 88.1327 246.414 103.15L248.64 98.9789L246.677 105.638L248.64 102.532L247.462 107.988L249.838 104.071L247.855 109.946L249.818 108.771L247.855 112.297L249.838 111.298L247.855 113.863L250.604 112.688C250.6 112.688 247.576 115.986 244.18 115.904Z" fill="#BBECF9"/>
<path d="M222.868 25.4339C222.868 25.4339 237.149 18.0475 246.642 16.849" stroke="#BBECF9" stroke-width="0.330189" stroke-miterlimit="10" stroke-linejoin="round" stroke-dasharray="0.66 0.66"/>
<path d="M229.63 72.5693L222.868 61.0944L226.567 70.7071L225.418 68.8449L226.352 71.7537L225.035 71.0796L227.716 74.804L224.652 73.3142L227.643 76.7891L225.035 75.9213L228.481 78.9009H226.869L228.864 80.0182L225.801 79.2733C225.801 79.2733 227.915 81.9177 231.453 81.5266L229.63 72.5693Z" fill="#BBECF9"/>
<path d="M192.295 71.5931L194.359 72.6921L207.019 48.9707L205.13 47.8208L192.295 71.5931Z" fill="#B2B2B2" stroke="black" stroke-width="0.330189" stroke-miterlimit="10"/>
<path d="M194.46 72.6616L192.27 71.4921L191.925 72.1373L194.115 73.3068L194.46 72.6616Z" fill="#4D4D4D" stroke="black" stroke-width="0.330189" stroke-miterlimit="10"/>
<path d="M192.135 72.2501L191.564 72.8055L193.757 73.975L193.867 73.1732L192.135 72.2501Z" fill="#4D4D4D" stroke="black" stroke-width="0.330189" stroke-miterlimit="10"/>
<path d="M192.249 73.1656L192.183 73.2896L192.955 73.7019L193.021 73.5779L192.249 73.1656Z" fill="#4D4D4D" stroke="black" stroke-width="0.330189" stroke-miterlimit="10"/>
<path d="M193.867 73.1732L193.022 73.5838L193.018 72.7234L192.248 73.1692L192.135 72.2501L193.867 73.1732Z" fill="#4D4D4D" stroke="black" stroke-width="0.330189" stroke-miterlimit="10" stroke-linecap="round" stroke-linejoin="round"/>
<path d="M207.163 48.7361L194.394 72.6295L194.508 72.6882L194.109 73.4391L193.898 73.3257L193.804 74.0063L193.069 73.6152L193.002 73.7403L192.232 73.3257L192.299 73.2006L191.615 72.8368L192.095 72.3636L191.83 72.2228L192.228 71.4718L192.33 71.5266L205.275 47.5822L207.163 48.7361Z" stroke="black" stroke-width="0.990566" stroke-miterlimit="10" stroke-linecap="round" stroke-linejoin="round"/>
<path d="M245.673 212.275C245.662 212.236 245.626 212.208 245.583 212.204H245.579C245.54 212.204 245.505 212.228 245.49 212.267L245.177 213.045L245.079 211.657C245.075 211.61 245.04 211.571 244.993 211.567C244.989 211.567 244.985 211.567 244.981 211.567C244.938 211.567 244.899 211.594 244.887 211.637L244.614 212.513L244.481 211.019C244.477 210.992 244.461 210.965 244.438 210.949C244.422 210.937 244.403 210.933 244.383 210.933C244.375 210.933 244.364 210.933 244.356 210.937L244.125 211.004C244.203 210.351 244.516 207.687 244.551 205.837C244.79 205.9 245.337 206.021 245.955 206.021C246.279 206.021 246.576 205.986 246.846 205.919C246.932 206.463 247.327 208.97 247.491 210.722L247.167 210.546C247.151 210.538 247.136 210.534 247.12 210.534C247.1 210.534 247.081 210.538 247.065 210.55C247.034 210.57 247.018 210.605 247.022 210.64L247.112 211.641L246.948 211.086C246.936 211.043 246.897 211.015 246.854 211.015C246.846 211.015 246.842 211.015 246.835 211.015C246.784 211.023 246.752 211.07 246.756 211.121L246.921 212.807L246.404 212.028C246.385 212.001 246.358 211.985 246.322 211.985C246.315 211.985 246.311 211.985 246.303 211.985C246.264 211.993 246.232 212.025 246.225 212.064L245.99 213.378L245.673 212.275Z" fill="#BBECF9"/>
<path d="M244.649 205.954C244.93 206.021 245.419 206.115 245.959 206.115C246.248 206.115 246.522 206.087 246.768 206.033C246.877 206.713 247.214 208.903 247.378 210.542L247.218 210.452C247.19 210.437 247.155 210.429 247.124 210.429C247.085 210.429 247.05 210.441 247.018 210.46C246.96 210.499 246.924 210.57 246.932 210.64L246.96 210.937C246.932 210.922 246.897 210.91 246.862 210.91C246.85 210.91 246.838 210.91 246.823 210.914C246.725 210.933 246.655 211.023 246.666 211.125L246.791 212.42L246.494 211.97C246.459 211.915 246.397 211.884 246.33 211.884C246.318 211.884 246.303 211.884 246.291 211.888C246.213 211.903 246.154 211.966 246.139 212.044L245.974 212.952L245.767 212.244C245.744 212.165 245.673 212.107 245.587 212.103C245.583 212.103 245.579 212.103 245.579 212.103C245.501 212.103 245.427 212.15 245.4 212.224L245.247 212.603L245.181 211.641C245.173 211.547 245.103 211.473 245.009 211.461C245.001 211.461 244.993 211.461 244.985 211.461C244.899 211.461 244.825 211.516 244.798 211.598L244.672 212.001L244.583 211C244.579 210.941 244.547 210.89 244.497 210.855C244.465 210.832 244.426 210.82 244.387 210.82C244.368 210.82 244.352 210.824 244.332 210.828L244.242 210.855C244.34 210.042 244.606 207.683 244.649 205.954ZM244.457 205.704C244.434 207.828 244.012 211.133 244.012 211.133L244.387 211.023L244.563 213.01L244.981 211.665L245.106 213.48L245.576 212.306L246.017 213.808L246.326 212.087L247.057 213.194L246.854 211.117L247.296 212.619L247.12 210.632L247.605 210.898C247.429 208.911 246.924 205.798 246.924 205.798C246.608 205.892 246.272 205.923 245.955 205.923C245.153 205.919 244.457 205.704 244.457 205.704Z" fill="black"/>
<path d="M231.204 80.9292L233.499 80.4716L228.264 54.0945L226.074 54.4034L231.204 80.9292Z" fill="#B2B2B2" stroke="black" stroke-width="0.330189" stroke-miterlimit="10"/>
<path d="M233.544 80.3757L231.109 80.8595L231.251 81.5768L233.686 81.093L233.544 80.3757Z" fill="#4D4D4D" stroke="black" stroke-width="0.330189" stroke-miterlimit="10"/>
<path d="M231.497 81.5393L231.407 82.3294L233.843 81.8444L233.421 81.1599L231.497 81.5393Z" fill="#4D4D4D" stroke="black" stroke-width="0.330189" stroke-miterlimit="10"/>
<path d="M233.018 81.9969L232.16 82.1676L232.187 82.3054L233.046 82.1347L233.018 81.9969Z" fill="#4D4D4D" stroke="black" stroke-width="0.330189" stroke-miterlimit="10"/>
<path d="M233.42 81.1599L233.026 82.0086L232.478 81.3437L232.169 82.1807L231.497 81.5393L233.42 81.1599Z" fill="#4D4D4D" stroke="black" stroke-width="0.330189" stroke-miterlimit="10" stroke-linecap="round" stroke-linejoin="round"/>
<path d="M228.225 53.8207L233.483 80.4011L233.612 80.3738L233.776 81.2068L233.542 81.2538L233.901 81.8405L233.084 82.0008L233.112 82.1416L232.251 82.3098L232.224 82.1729L231.466 82.3255L231.54 81.6527L231.243 81.7114L231.079 80.8783L231.188 80.8548L226.035 54.1297L228.225 53.8207Z" stroke="black" stroke-width="0.990566" stroke-miterlimit="10" stroke-linecap="round" stroke-linejoin="round"/>
<path d="M242.585 116.329L244.919 116.196L243.386 89.35H241.177L242.585 116.329Z" fill="#B2B2B2" stroke="black" stroke-width="0.330189" stroke-miterlimit="10"/>
<path d="M244.988 116.129L242.51 116.27L242.551 117.001L245.03 116.859L244.988 116.129Z" fill="#4D4D4D" stroke="black" stroke-width="0.330189" stroke-miterlimit="10"/>
<path d="M242.788 116.979L242.592 117.745L245.071 117.604L244.747 116.865L242.788 116.979Z" fill="#4D4D4D" stroke="black" stroke-width="0.330189" stroke-miterlimit="10"/>
<path d="M244.244 117.664L243.37 117.714L243.378 117.854L244.252 117.804L244.244 117.664Z" fill="#4D4D4D" stroke="black" stroke-width="0.330189" stroke-miterlimit="10"/>
<path d="M244.747 116.865L244.239 117.651L243.789 116.92L243.367 117.702L242.788 116.979L244.747 116.865Z" fill="#4D4D4D" stroke="black" stroke-width="0.330189" stroke-miterlimit="10" stroke-linecap="round" stroke-linejoin="round"/>
<path d="M243.386 89.0723L244.915 116.122L245.044 116.114L245.091 116.963L244.852 116.979L245.13 117.608L244.297 117.655L244.305 117.796L243.429 117.847L243.421 117.702L242.647 117.749L242.815 117.092L242.514 117.112L242.464 116.263L242.581 116.255L241.177 89.0723H243.386Z" stroke="black" stroke-width="0.990566" stroke-miterlimit="10" stroke-linecap="round" stroke-linejoin="round"/>
<path d="M248.623 180.623H242.679V181.283H248.623V180.623Z" stroke="black" stroke-width="0.990566" stroke-miterlimit="10" stroke-linecap="round" stroke-linejoin="round"/>
<path d="M244.199 163.033L246.537 162.947L245.556 136.077L243.343 136.03L244.199 163.033Z" fill="#B2B2B2" stroke="black" stroke-width="0.330189" stroke-miterlimit="10"/>
<path d="M246.604 162.862L244.123 162.953L244.15 163.684L246.63 163.593L246.604 162.862Z" fill="#4D4D4D" stroke="black" stroke-width="0.330189" stroke-miterlimit="10"/>
<path d="M244.391 163.686L244.18 164.453L246.663 164.359L246.354 163.612L244.391 163.686Z" fill="#4D4D4D" stroke="black" stroke-width="0.330189" stroke-miterlimit="10"/>
<path d="M245.825 164.377L244.95 164.409L244.955 164.55L245.83 164.518L245.825 164.377Z" fill="#4D4D4D" stroke="black" stroke-width="0.330189" stroke-miterlimit="10"/>
<path d="M246.354 163.612L245.83 164.39L245.392 163.647L244.954 164.421L244.391 163.686L246.354 163.612Z" fill="#4D4D4D" stroke="black" stroke-width="0.330189" stroke-miterlimit="10" stroke-linecap="round" stroke-linejoin="round"/>
<path d="M245.56 135.799L246.534 162.876L246.663 162.872L246.694 163.717L246.455 163.729L246.717 164.363L245.885 164.394L245.888 164.535L245.017 164.566L245.009 164.425L244.235 164.453L244.415 163.803L244.113 163.811L244.082 162.966L244.196 162.962L243.351 135.752L245.56 135.799Z" stroke="black" stroke-width="0.990566" stroke-miterlimit="10" stroke-linecap="round" stroke-linejoin="round"/>
<path d="M245.981 259.208C250.722 259.208 254.566 257.138 254.566 254.585C254.566 252.032 250.722 249.962 245.981 249.962C241.24 249.962 237.396 252.032 237.396 254.585C237.396 257.138 241.24 259.208 245.981 259.208Z" stroke="black" stroke-width="0.330189" stroke-miterlimit="10" stroke-linecap="round" stroke-linejoin="round"/>
<path d="M246 215V224.245" stroke="white" stroke-opacity="0.51" stroke-width="1.32075" stroke-miterlimit="10" stroke-linecap="round" stroke-linejoin="round"/>
<path d="M244.61 205.411L246.952 205.418L247.042 178.529L244.833 178.396L244.61 205.411Z" fill="#B2B2B2" stroke="black" stroke-width="0.330189" stroke-miterlimit="10"/>
<path d="M247.025 205.346L244.542 205.337L244.54 206.069L247.022 206.077L247.025 205.346Z" fill="#4D4D4D" stroke="black" stroke-width="0.330189" stroke-miterlimit="10"/>
<path d="M244.778 206.068L244.536 206.826L247.018 206.834L246.741 206.076L244.778 206.068Z" fill="#4D4D4D" stroke="black" stroke-width="0.330189" stroke-miterlimit="10"/>
<path d="M245.311 206.827L245.31 206.968L246.186 206.971L246.187 206.83L245.311 206.827Z" fill="#4D4D4D" stroke="black" stroke-width="0.330189" stroke-miterlimit="10"/>
<path d="M246.741 206.076L246.186 206.83L245.779 206.072L245.31 206.826L244.778 206.068L246.741 206.076Z" fill="#4D4D4D" stroke="black" stroke-width="0.330189" stroke-miterlimit="10" stroke-linecap="round" stroke-linejoin="round"/>
<path d="M247.057 178.251L246.952 205.344H247.081L247.077 206.193H246.838L247.077 206.838L246.24 206.834V206.979L245.365 206.975V206.834L244.59 206.83L244.798 206.185H244.493L244.497 205.336H244.614L244.852 178.118L247.057 178.251Z" stroke="black" stroke-width="0.990566" stroke-miterlimit="10" stroke-linecap="round" stroke-linejoin="round"/>
<path d="M246.311 262.509C255.247 262.509 262.491 258.814 262.491 254.255C262.491 249.696 255.247 246 246.311 246C237.376 246 230.132 249.696 230.132 254.255C230.132 258.814 237.376 262.509 246.311 262.509Z" stroke="black" stroke-width="0.330189" stroke-miterlimit="10" stroke-linecap="round" stroke-linejoin="round"/>
<path d="M244.43 253.182L246.768 253.217L247.159 226.328L244.954 226.171L244.43 253.182Z" fill="#B2B2B2" stroke="black" stroke-width="0.330189" stroke-miterlimit="10"/>
<path d="M246.856 253.136L244.374 253.1L244.363 253.832L246.846 253.867L246.856 253.136Z" fill="#4D4D4D" stroke="black" stroke-width="0.330189" stroke-miterlimit="10"/>
<path d="M244.59 253.843L244.336 254.598L246.823 254.633L246.553 253.87L244.59 253.843Z" fill="#4D4D4D" stroke="black" stroke-width="0.330189" stroke-miterlimit="10"/>
<path d="M245.103 254.598L245.101 254.739L245.976 254.752L245.978 254.611L245.103 254.598Z" fill="#4D4D4D" stroke="black" stroke-width="0.330189" stroke-miterlimit="10"/>
<path d="M246.553 253.87L245.99 254.621L245.591 253.859L245.114 254.61L244.59 253.843L246.553 253.87Z" fill="#4D4D4D" stroke="black" stroke-width="0.330189" stroke-miterlimit="10" stroke-linecap="round" stroke-linejoin="round"/>
<path d="M247.179 226.054L246.772 253.143L246.901 253.147L246.889 253.996L246.647 253.992L246.877 254.637L246.045 254.625V254.77L245.169 254.754V254.614L244.395 254.602L244.61 253.96L244.305 253.956L244.317 253.108L244.434 253.112L244.973 225.894L247.179 226.054Z" stroke="black" stroke-width="0.990566" stroke-miterlimit="10" stroke-linecap="round" stroke-linejoin="round"/>
<path d="M244.644 250.623L238.717 257.226L244.66 253.669" stroke="black" stroke-width="0.990566" stroke-miterlimit="10" stroke-linecap="round" stroke-linejoin="round"/>
<path d="M247.302 250.623L253.906 257.226L247.365 253.713" stroke="black" stroke-width="0.990566" stroke-miterlimit="10" stroke-linecap="round" stroke-linejoin="round"/>
<path d="M245.981 166.755V176.66" stroke="#BBECF9" stroke-width="0.495283" stroke-miterlimit="10" stroke-linejoin="round"/>
<path d="M244 133.736L242.679 127.792" stroke="black" stroke-width="0.330189" stroke-miterlimit="10" stroke-linecap="round" stroke-linejoin="round"/>
<path d="M244.66 133.736V124.491" stroke="black" stroke-width="0.330189" stroke-miterlimit="10" stroke-linecap="round" stroke-linejoin="round"/>
<path d="M245.981 133.736V127.792" stroke="black" stroke-width="0.330189" stroke-miterlimit="10" stroke-linecap="round" stroke-linejoin="round"/>
<path d="M258.528 6.50274L260.595 5.62268L261.83 7.61377L260.44 9.58494L258.528 6.50274Z" fill="#DADADA" stroke="black" stroke-width="0.330189" stroke-miterlimit="10"/>
<path d="M249.668 15.5283L248.623 17.5095L251.264 17.4615L249.668 15.5283Z" fill="#4D4D4D" stroke="black" stroke-width="0.330189" stroke-miterlimit="10" stroke-linecap="round" stroke-linejoin="round"/>
<path d="M248.623 18.1698L249.826 15.5283L251.264 17.8745L248.623 18.1698Z" stroke="black" stroke-width="0.990566" stroke-miterlimit="10" stroke-linecap="round" stroke-linejoin="round"/>
<path d="M248.623 18.1698L246.642 19.2384L247.378 20.8113L248.623 18.1698Z" fill="#4D4D4D" stroke="black" stroke-width="0.330189" stroke-miterlimit="10" stroke-linecap="round" stroke-linejoin="round"/>
<path d="M253.76 10.9057H255.226L253.567 1C253.567 1 251.234 3.41477 253.76 10.9057Z" fill="#DADADA" stroke="black" stroke-width="0.330189" stroke-miterlimit="10"/>
<path d="M246.642 19.2284L248.623 18.1698L247.516 20.8113L246.642 19.2284Z" stroke="black" stroke-width="0.990566" stroke-miterlimit="10" stroke-linecap="round" stroke-linejoin="round"/>
<path d="M253.762 10.9057H255.226L253.569 1C253.565 1 251.234 3.41477 253.762 10.9057Z" stroke="black" stroke-width="1.32075" stroke-miterlimit="10" stroke-linecap="round" stroke-linejoin="round"/>
<path d="M256.172 13.2762L255.887 11.7793L265.792 11.566C265.792 11.566 263.914 14.4215 256.172 13.2762Z" fill="#DADADA" stroke="black" stroke-width="0.330189" stroke-miterlimit="10"/>
<path d="M256.172 13.2776L255.887 11.7795L265.792 11.566C265.792 11.5621 263.91 14.4199 256.172 13.2776Z" stroke="black" stroke-width="1.32075" stroke-miterlimit="10" stroke-linecap="round" stroke-linejoin="round"/>
<path d="M253.703 10.9056L255.887 12.9415L251.153 17.5094L250 15.5L253.703 10.9056Z" fill="#DADADA" stroke="black" stroke-width="0.330189" stroke-miterlimit="10"/>
<path d="M253.924 11.566L255.887 13.6019L251.627 18.1698L249.943 15.7886L253.924 11.566Z" stroke="black" stroke-width="1.32075" stroke-miterlimit="10" stroke-linecap="round" stroke-linejoin="round"/>
<path d="M258.528 6.50584L260.592 5.62268L261.83 7.61575L260.44 9.58494L258.528 6.50584Z" stroke="black" stroke-width="1.32075" stroke-miterlimit="10" stroke-linecap="round" stroke-linejoin="round"/>
<path d="M126 276H188" stroke="white" stroke-width="0.660377"/>
<circle cx="125.792" cy="276.377" r="1.32075" fill="white"/>
<text fill="white" xml:space="preserve" style="white-space: pre" font-family="Assistant" font-size="7" font-weight="bold" letter-spacing="0em"><tspan x="133" y="274.069">CABO CA&#xd1;AVERAL</tspan></text>
<text fill="white" xml:space="preserve" style="white-space: pre" font-family="Assistant" font-size="8" font-weight="bold" letter-spacing="0em"><tspan x="80.2482" y="94.936">PRIMERA ETAPA</tspan></text>
<text fill="white" xml:space="preserve" style="white-space: pre" font-family="Assistant" font-size="8" font-weight="bold" letter-spacing="0em"><tspan x="72.4558" y="192.521">LANZAMIENTO</tspan></text>
<text fill="white" xml:space="preserve" style="white-space: pre" font-family="Assistant" font-size="8" font-weight="bold" letter-spacing="0em"><tspan x="105.737" y="57.8039">SEGUNDA ETAPA</tspan></text>
<text fill="white" xml:space="preserve" style="white-space: pre" font-family="Assistant" font-size="8" font-weight="bold" letter-spacing="0em"><tspan x="154.937" y="26.7662">PROPULSI&#xd3;N</tspan></text>
<text fill="white" xml:space="preserve" style="white-space: pre" font-family="Assistant" font-size="8" font-weight="bold" letter-spacing="0em"><tspan x="257" y="26.936">LANZAMIENTO</tspan></text>
<circle cx="265.792" cy="253.264" r="1.32075" fill="white"/>
<text fill="white" xml:space="preserve" style="white-space: pre" font-family="Assistant" font-size="7" font-weight="bold" letter-spacing="0em"><tspan x="268" y="274.069">PLATAFORMA FLOTANTE</tspan></text>
<path d="M266 253V277H342" stroke="white" stroke-width="0.660377"/>
<text fill="white" xml:space="preserve" style="white-space: pre" font-family="Assistant" font-size="7" letter-spacing="0em"><tspan x="98.4844" y="103.299">3 minutos de&#10;</tspan><tspan x="79.7539" y="111.299">m&#xe1;xima propulsi&#xf3;n</tspan></text>
<text fill="white" xml:space="preserve" style="white-space: pre" font-family="Assistant" font-size="7" letter-spacing="0em"><tspan x="102.044" y="66.45">Separaci&#xf3;n de partes</tspan></text>
<text fill="white" xml:space="preserve" style="white-space: pre" font-family="Assistant" font-size="8" font-weight="bold" letter-spacing="0em"><tspan x="256" y="61.936">TERCERA ETAPA</tspan></text>
<text fill="white" xml:space="preserve" style="white-space: pre" font-family="Assistant" font-size="7" letter-spacing="0em"><tspan x="256" y="70.45">El cuerpo principal vuelve </tspan><tspan x="256" y="78.45">a la tierra</tspan></text>
<text fill="white" xml:space="preserve" style="white-space: pre" font-family="Assistant" font-size="7" letter-spacing="0em"><tspan x="257" y="34.45">Colocaci&#xf3;n del material </tspan><tspan x="257" y="42.45">transportado</tspan></text>
<text fill="white" xml:space="preserve" style="white-space: pre" font-family="Assistant" font-size="8" font-weight="bold" letter-spacing="0em"><tspan x="256" y="98.936">CUARTA ETAPA</tspan></text>
<text fill="white" xml:space="preserve" style="white-space: pre" font-family="Assistant" font-size="7" letter-spacing="0em"><tspan x="256" y="107.45">Entrada a la atm&#xf3;sfera</tspan></text>
<text fill="white" xml:space="preserve" style="white-space: pre" font-family="Assistant" font-size="8" font-weight="bold" letter-spacing="0em"><tspan x="255" y="138.936">QUINTA ETAPA</tspan></text>
<text fill="white" xml:space="preserve" style="white-space: pre" font-family="Assistant" font-size="7" letter-spacing="0em"><tspan x="255" y="147.45">Ca&#xed;da libre</tspan></text>
<text fill="white" xml:space="preserve" style="white-space: pre" font-family="Assistant" font-size="8" font-weight="bold" letter-spacing="0em"><tspan x="256" y="173.936">SEXTA ETAPA</tspan></text>
<text fill="white" xml:space="preserve" style="white-space: pre" font-family="Assistant" font-size="7" letter-spacing="0em"><tspan x="256" y="182.45">Motores encedidos y </tspan><tspan x="256" y="190.45">control de trayectoria</tspan></text>
<text fill="white" xml:space="preserve" style="white-space: pre" font-family="Assistant" font-size="8" font-weight="bold" letter-spacing="0em"><tspan x="256" y="207.936">S&#xc9;PTIMA ETAPA</tspan></text>
<path d="M158.531 78.6958L160.275 80.2525L178.166 60.1802L176.602 58.6157L158.531 78.6958Z" fill="#B2B2B2" stroke="black" stroke-width="0.330189" stroke-miterlimit="10"/>
<path d="M160.389 80.2431L158.536 78.5906L158.049 79.1365L159.903 80.7891L160.389 80.2431Z" fill="#4D4D4D" stroke="black" stroke-width="0.330189" stroke-miterlimit="10"/>
<path d="M158.219 79.2981L157.534 79.701L159.392 81.3554L159.685 80.6045L158.219 79.2981Z" fill="#4D4D4D" stroke="black" stroke-width="0.330189" stroke-miterlimit="10"/>
<path d="M158.112 80.2079L158.018 80.313L158.672 80.896L158.766 80.7909L158.112 80.2079Z" fill="#4D4D4D" stroke="black" stroke-width="0.330189" stroke-miterlimit="10"/>
<path d="M159.685 80.6045L158.77 80.8L158.965 79.963L158.113 80.2173L158.219 79.2981L159.685 80.6045Z" fill="#4D4D4D" stroke="black" stroke-width="0.330189" stroke-miterlimit="10" stroke-linecap="round" stroke-linejoin="round"/>
<path d="M178.361 59.9847L160.326 80.1977L160.423 80.2837L159.857 80.9174L159.681 80.757L159.43 81.3984L158.809 80.8431L158.711 80.9487L158.058 80.3659L158.152 80.2603L157.573 79.744L158.156 79.3998L157.929 79.1964L158.492 78.5628L158.578 78.641L176.797 58.4202L178.361 59.9847Z" stroke="black" stroke-width="0.990566" stroke-miterlimit="10" stroke-linecap="round" stroke-linejoin="round"/>
<text fill="white" xml:space="preserve" style="white-space: pre" font-family="Assistant" font-size="7" letter-spacing="0em"><tspan x="169.343" y="237.922">OC&#xc9;ANO PAC&#xcd;FICO</tspan></text>
<text fill="white" xml:space="preserve" style="white-space: pre" font-family="Assistant" font-size="7" letter-spacing="0em"><tspan x="177.836" y="125.45">ATM&#xd3;SFERA</tspan></text>
<text fill="white" xml:space="preserve" style="white-space: pre" font-family="Assistant" font-size="7" letter-spacing="0em"><tspan x="256" y="216.45">Despliegue de patas </tspan><tspan x="256" y="224.45">y aterrizaje</tspan></text>
</svg>
