<?xml version="1.0" encoding="utf-8"?>
<!-- Generator: Adobe Illustrator 22.0.1, SVG Export Plug-In . SVG Version: 6.00 Build 0)  -->
<svg version="1.1" id="Capa_1" xmlns="http://www.w3.org/2000/svg" xmlns:xlink="http://www.w3.org/1999/xlink" x="0px" y="0px"
	 viewBox="0 0 77.5 77.8" style="enable-background:new 0 0 77.5 77.8;" xml:space="preserve">
<style type="text/css">
	.st0{fill:none;stroke:#BBECF9;stroke-width:0.7;}
	.st1{fill:#D9D9D9;filter:url(#Adobe_OpacityMaskFilter);}
	.st2{mask:url(#mask0_75_291_1_);}
	.st3{fill:#FFFFFF;}
	.st4{fill:#1F1E25;}
	.st5{fill:#BEE3F2;}
	.st6{fill:#C69784;}
	.st7{fill:#DADADA;}
</style>
<path class="st0" d="M76.4,38.4C76.4,59.2,59.5,76,38.7,76S1.1,59.2,1.1,38.4S17.9,0.7,38.7,0.7S76.4,17.6,76.4,38.4z"/>
<defs>
	<filter id="Adobe_OpacityMaskFilter" filterUnits="userSpaceOnUse" x="4.5" y="-5.7" width="68.4" height="97.8">
		<feColorMatrix  type="matrix" values="1 0 0 0 0  0 1 0 0 0  0 0 1 0 0  0 0 0 1 0"/>
	</filter>
</defs>
<mask maskUnits="userSpaceOnUse" x="4.5" y="-5.7" width="68.4" height="97.8" id="mask0_75_291_1_">
	<circle class="st1" cx="38.7" cy="38.4" r="34.2"/>
</mask>
<g class="st2">
	<path class="st3" d="M72.9-5.7H4.5v97.8h68.4V-5.7z"/>
	<path class="st4" d="M54.1,15.3c0,0.1,0.1,0.1,0.1,0.2v0l0.2,0.2l0.2,0.1c0,0,0,0,0,0c0,0,0,0,0,0l0,0.3L54.3,16c0,0.1,0,0.1,0,0.2
		l-0.5-0.1l0,0.1l0.3,0.2l-0.7,0.1l-0.9-0.2c0,0,0,0.1,0,0.1l1,0.5l0.3,0l0.4,0.2c0.1,0.1,0.2,0.2,0.1,0.2c-0.3,0.4,0,0.4,0.3,0.5
		l0.2,0.1l-0.3,0.2l-0.3,0.2l0.7,0.3h-0.7l0.3,0.6c0,0.1-0.1,0.3-0.1,0.4L54,19.5l0-0.1l-0.2,0c0,0,0,0.1,0,0.1c0,0,0,0,0.1,0.1
		c-0.1,0-0.3-0.1-0.4,0c-0.1,0-0.1,0.2-0.1,0.3c0,0.1,0.1,0.2,0.1,0.2c0.2,0.3,0.3,0.5,0.2,0.9c-0.1,0.3,0.2,0.6,0.2,1
		c0,0,0,0.1,0,0.1L53.8,22c0-0.1,0-0.2,0-0.2l-0.1,0l0,0.3c-0.1,0.3-0.2,0.6-0.3,0.9l-0.1-0.1c0,0.4,0,0.6,0,1
		c-0.1-0.2-0.1-0.3-0.2-0.4l-0.1,0c0,0.4-0.1,0.8-0.1,1.2c0,0.1-0.1,0.1-0.1,0.2c-0.3,0.4-0.4,1.3-0.2,1.7c0.1,0.1,0.3,0.3,0,0.4
		c0,0,0,0.3,0.1,0.5c-0.2,0.3-0.3,0.8-0.8,0.6c-0.1,0-0.2,0.2-0.3,0.3c-0.1,0.1-0.1,0.3-0.2,0.4c0-0.1,0-0.1,0-0.2
		c0.1-0.4-0.1-0.6-0.5-0.8c0,0.2,0,0.4,0,0.6s0,0.4,0,0.6l-0.3,1c-0.1,0.3-0.1,0.6-0.2,0.8l-0.1-0.2L50,31.3
		c-0.1,0.4-0.2,0.8-0.3,1.2c-0.1,0-0.2-0.1-0.3-0.1c-0.1,0.2-0.3,0.3-0.4,0.5c0.1-0.7,0.1-1.3,0.2-1.9l0.2,0.1c0-0.2,0-0.3,0.1-0.5
		c-0.7-0.4,0.2-1-0.1-1.5l0.2,0.2c-0.4-0.5-0.2-1-0.3-1.5c0-0.4,0.1-0.8,0.1-1.2c0-0.2,0-0.4,0.1-0.6c0.2-0.4,0.2-0.8,0-1.2
		c-0.1-0.3-0.4-0.5-0.4-0.8c-0.1-0.9-1-0.9-1.4-1.4l0.3,0v-0.1l-0.3-0.1c0,0,0-0.1,0-0.1c0,0,0,0,0,0c0.1,0,0.3,0,0.5-0.1l-0.3-0.3
		c0.1-0.3,0.2-0.6,0.2-0.8c0-0.1-0.2-0.2-0.4-0.3l0.3,0l0.3,0l0-0.1l-0.2-0.1L48,20.7l0,0c0.2,0,0.5,0.3,0.7-0.1l0,0l0.1,0L48.1,19
		l0.2-0.1l-0.2,0c0-0.1,0-0.3,0-0.4c-0.2-0.3-0.4-0.5-0.7-0.8h0c-0.3-0.4-0.6-0.9-0.9-1.3c-0.2-0.3-0.3-0.5-0.7-0.5c0,0,0,0,0,0
		l0.2-0.2c-0.2-0.2-0.3-0.3-0.4-0.4c-0.2-0.1-0.4,0-0.6-0.2c-0.2-0.2-0.4-0.4-0.6-0.6l0.1,0l0,0.1L44,14.7l0.2-0.4
		c-0.5,0.3-0.8,0.2-1.2,0c-0.3-0.2-0.8,0.4-1.1-0.1l-0.7,0.3c0-0.1-0.1-0.2-0.1-0.3l-0.5,0.4l-0.2-0.2l-0.7,0.3l-1.1-0.5l-0.3,0.4
		c-0.1,0-0.3-0.1-0.4-0.1c-0.3,0-0.5,0.1-0.8,0.1c-0.1,0-0.3,0-0.4,0.1c-0.3,0.3-0.8-0.2-1.1,0.1c-0.3-0.3-0.5,0-0.7,0.1
		c-0.1,0-0.3,0.1-0.4,0c-0.3-0.1-0.7-0.1-1,0.1l0,0c-0.2,0-0.5,0.2-0.6,0.1c-0.2-0.1-0.3-0.1-0.4,0c-0.1,0.1-0.3,0.2-0.5,0.3
		c-0.5,0.4-1.2,0.6-1.5,1.3c0,0.1,0,0.1-0.1,0.1c-0.4,0.1-0.6,0.4-0.6,0.7c-0.2,0.1-0.3,0.2-0.4,0.3c-0.4,0.6-0.8,1.3-0.8,2.1
		c0,0.2,0,0.5-0.4,0.6c0-0.2,0.1-0.4,0.1-0.5c-0.1,0.1-0.2,0.3-0.2,0.4c-0.4,0.8-0.1,1.9-0.7,2.6c0,0,0,0.2,0.1,0.2
		c0.1,0.4,0.3,0.7,0.2,1.1c0,0.1,0.1,0.4,0.1,0.5c0.2,0.4,0.3,0.7,0.5,1.1h1.5v-0.6l0.6,0.3l-0.3,0.1l0.3,0.1l0,0l0,0
		c0.3,0,0.6-0.1,0.9,0c0.5,0.1,0.9,0.4,1.3,0.5c0.4,0.1,0.4,0.2,0.4,0.5h-1.5v0l-1.7-0.6l-0.3,0.4c-0.4-0.1-0.6,0.1-0.8,0.6l0.6,0.1
		v1.3l0.1,0l-0.3,0.3l0,0.1l0.6-0.3c0,0.1,0,0.2,0,0.3c0.3-0.2,0.7-0.4,1-0.5c0.3-0.1,0.7-0.1,1.1-0.2l0.7,0.1
		c0.1,0.1,0.3,0.1,0.4,0.2c0.4,0.3,0.7,0.5,1.1,0.8l-0.1,0.1l-0.6-0.4l-0.6-0.5c-0.2,0.9-0.6,1.2-1.4,0.9l-0.4-0.9
		c0,0-0.1,0-0.2,0.1c-0.4,0.2-0.6,0.7-0.8,1.1C30.1,30,30,30.1,29.8,30c-0.1-0.1-0.2-0.1-0.3-0.1c-0.5,0.2-0.6-0.2-0.8-0.4
		c-0.2-0.2-0.4-0.4-0.6-0.6l-0.3,0.4c0.1,0,0.1,0,0.1,0.1c0.1,0.5,0.3,1.1-0.1,1.6c-0.1,0.1-0.1,0.3-0.1,0.4c0,0.4,0,0.8,0,1.1
		c0,0.3,0,0.5,0.3,0.6c0.2,0.1,0.4,0.3,0,0.5l-0.1-0.3l-0.1,0.1l0.2,0.2c0,0.1,0,0.3,0.1,0.4c0.4,0.4,0.3,0.7,0.1,1.1
		c0.1,0.2,0.2,0.6,0.3,0.6c0.4,0,0.2,0.4,0.4,0.5c0.1,0.1,0.1,0.3,0.2,0.4c0.2,0.3,0.4,0.5,0.6,0.7c0.1,0.3,0.2,0.6,0.6,0.7
		c0,0,0,0.1,0,0.1L30,38.5l0.2,0.2l-0.5,0.2l-0.2-0.5c-0.1,0.3-0.1,0.4-0.2,0.7c-0.1-0.4-0.2-0.7-0.3-0.9l-0.1,0
		c0,0.1,0,0.2-0.1,0.4l-0.4-1.1l-0.1,0c0,0.1,0,0.1,0,0.2c0,0.6,0.4,1.2,0.1,1.9l0,0c0.1,0.1,0.1,0.1,0.2,0.2c0.1,0.3,0.2,0.7,0.4,1
		c0.2,0.4,0.4,0.7,0.7,1.1c0.1,0.1,0.2,0.1,0.4,0.2c0-0.1,0.1-0.2,0.1-0.4c0-0.3-0.1-0.5-0.1-0.8c0.3,0.4,0.4,0.8,0.7,1.1
		c0.5,0.6,1,1.2,1.4,1.9c0.3,0.6,0.7,1.2,1,1.8c0.2,0.3,0.2,1,0.9,0.7c0,0,0,0,0.1,0c0,0,0,0,0.1,0c0.1,0.1,0.3,0.2,0.4,0.4v0.5
		c0.4,0,0.4,0.2,0.3,0.5c-0.1,0.5,0,0.7,0.4,0.9c0.1,0,0.1,0.2,0.2,0.2l-1.1,0.6v0.3c-0.2,0-0.5,0-0.6,0.1c-0.2,0.2-0.3,0.5-0.4,0.8
		L33,49.9c-0.2-0.4-0.4-0.9-0.6-1.3c-0.5-0.9-1-1.7-1.1-2.7c0-0.2-0.1-0.3-0.1-0.5c-0.4,1.1-0.6,2.2-0.6,3.3
		c-0.1,1.7-0.2,3.4-0.4,5.1c-0.1,0.9-0.2,1.8-0.2,2.7c0,1,0.2,2,0.3,3L30,59c0,0.3-0.1,0.4-0.1,0.6c-0.1,2.2-0.3,4.3-0.4,6.5
		c-0.1,2.2-0.1,4.4-0.1,6.6c0.1,2.5,0.2,5,0.4,7.6c0.3,2.5,0.6,4.9,1.2,7.4c0.4,1.4,0.7,2.9,1,4.4c0,0,0,0.1,0.1,0.1H4.5
		c0-1.5,0-3,0-4.5c0-1.8,0.1-3.7,0.6-5.4c0-0.1,0-0.2,0-0.3c0.1-1.5,0.1-3,0.3-4.4c0.1-0.6,0.3-1.2,0.5-1.8c0.1-0.3,0.2-0.7,0.2-1.1
		c0-0.4,0.1-0.9,0-1.3c0-0.4-0.1-0.9-0.2-1.3c-0.3-1.1,0.1-2,0.5-2.9c0.2-0.5,0.4-1,0.7-1.6c0-0.1,0-0.2,0-0.3
		c-0.4-1.5-0.3-2.9-0.1-4.4c0.2-1.2,0.2-2.4,0.3-3.5c0.2-1.4,0.5-2.7,1.6-3.7c0.1-0.1,0.4-0.2,0.6-0.2c0.2-0.1,0.5-0.1,0.7-0.3
		c0.5-0.2,1-0.5,1.5-0.7c1.4-0.6,2.9-1.2,4.3-1.8c1-0.4,2-0.8,2.9-1.2c2.4-1,4.7-2.1,7.1-3.1c0.7-0.3,1.6-0.4,2.3-0.8
		c0.9-0.4,1.7-1,2.1-1.9c0.3-0.7,0.3-0.9-0.4-1.3c-0.2-0.1-0.4-0.4-0.5-0.7c-0.5-0.9-1.1-1.8-1.5-2.8c-0.5-1.3-0.6-2.7-0.6-4.1
		c0-0.8-0.1-1.7-0.2-2.6c0-0.2-0.2-0.4-0.3-0.5c-0.2-0.4-0.3-0.7-0.5-1.1c-0.2-0.4-0.4-0.7-0.5-1C26,31.2,26,30.9,26,30.7
		c0.1,0.3,0.2,0.5,0.3,0.8c0-0.4,0-0.9,0-1.3c0-0.1-0.2-0.2-0.3-0.3c-0.1-0.3-0.2-0.5-0.2-0.8c-0.1-0.5-0.1-1-0.2-1.5
		c-0.2-1.3-0.3-2.6-0.5-3.9c0-0.2-0.1-0.4-0.2-0.6c-0.1-0.1-0.2-0.2-0.2-0.3c-0.1-0.4-0.1-0.8-0.1-1.2c0-0.2,0.1-0.5,0.1-0.7
		c0-0.3,0.1-0.6-0.3-0.9c-0.2-0.1-0.3-0.4-0.5-0.6c-0.1-0.1-0.2-0.1-0.3-0.1c-0.2,0-0.5,0.1-0.4-0.3c0,0-0.2-0.1-0.3-0.2
		c0,0,0,0,0,0c0,0,0,0,0,0c0.3-0.1,0.5-0.1,0.8-0.2c0,0,0.1,0,0.1,0c0,0,0,0,0.1-0.1c0.1-0.3,0.2-0.6,0.3-0.9c0.1-0.2,0-0.3-0.3-0.4
		c-0.4-0.1-0.8-0.2-1.2-0.4c0-0.2-0.1-0.4-0.1-0.6l0.6,0.2l0.1-0.3c0.4,0.3,0.7,0,1-0.3c0.4-0.4,0.8-0.8,1.3-1.2
		c0.2-0.2,0.4-0.5,0.1-0.8c-0.1-0.2-0.1-0.5-0.1-0.7l1-0.9c0.3-0.4,0.5-0.7,0.8-1.1c0.2-0.4,0.5-0.7,0.5-1.2l0.6-0.2
		c0.2,0.3,0.6,0.6,0.3,1.1c0,0.1,0.2,0.3,0.4,0.5c0.1,0.1,0.2,0,0.4,0c-0.2-0.3-0.4-0.5-0.4-0.7c-0.1-0.4-0.1-0.8-0.1-1.2l0-0.1
		c0,0,0,0,0,0c0,0,0,0,0,0c0,0,0,0,0,0c0,0,0,0,0,0c0.2-0.3,0.3-0.6,0.6-0.9c0.3-0.3,0.5-0.2,0.8,0.2c0.1,0.1,0.3,0.2,0.4,0.1
		c0.2-0.2,0.4-0.1,0.5,0l0.5,0.8l0.1-0.1c0-0.2,0-0.4,0.1-0.7l0,0c0.1,0,0.2,0,0.2,0c0.1-0.3,0.2-0.7,0.2-1c0.1-0.2,0.3-0.3,0.4-0.5
		c0.2-0.2,0.4-0.4,0.6-0.5c0.3-0.1,0.5-0.1,0.8-0.1c0.3,0.1,0.7,0.2,0.9,0.5c0.1,0.1,0.2,0.2,0.4,0.3c0.4-0.6,0.9-1,1.5-1.1l0.7,0.2
		l0,0.1l-0.9,0.1c0,0.2,0,0.3,0,0.4c0.2,0.5,0.5,0.2,0.8,0.1c0.3-0.1,0.5-0.1,0.8-0.1c0.2,0,0.5,0,0.6-0.2c0.3-0.3,0.5-0.4,0.9-0.3
		c0.5,0.2,1.1,0.4,1.6-0.1l0.1,0l0.3,0.1l2,0.7l0.2,0c0.2,0.2,0.5,0.4,0.7,0.6c0.5,0.3,1,0.7,1.5,1c0,0,0.1,0,0.2,0l0,0l0,0.1
		l0.1-0.1l0.1,0l0.8,0.8c0,0.2,0.1,0.4,0.1,0.5l0.1,0v-0.2c0-1-0.4-1.9-1-2.6l0.1-0.1l0.6,0.8c0.2,0.8,0.4,1.5,0.7,2.3
		c0.1-0.2,0.2-0.4,0.1-0.5C48,9.5,47.8,9,47.6,8.5l0.1,0l-0.1-0.1l0,0l-0.2-0.2C47.9,8,47.9,8.4,48,8.6c0.2,0.4,0.3,0.8,0.5,1.2
		c0,0.1,0.1,0.1,0.1,0.2v0c0.2,0.2-0.1,0.4,0,0.5c0,0.2,0.1,0.5,0.1,0.7c0.1,0.4,0.2,0.8,0.3,1.3c0,0.1,0.1,0.2,0.1,0.3
		c0-0.1,0.1-0.2,0.1-0.2c0.2-0.3-0.1-0.4-0.1-0.6c0-0.3,0.1-0.7,0.1-1c0,0.6,0.1,1.1,0.1,1.7c0,0.1,0,0.1-0.1,0.3l0.2-0.2
		c0.1,0.1,0.1,0.2,0.2,0.2c0,0,0.1-0.1,0.2-0.1c0.1-0.1,0.2-0.3,0.2-0.4l0.1,0.1c0,0.1,0,0.3,0,0.6l0.4-0.3l0,0l1.2-0.4l1,0.1
		l-0.2,0.3L53,13l0,0c0.2,0.3,0.2,0.6-0.2,0.7c-0.3,0.1-0.6,0.3-0.8,0.4c0.2,0.1,0.4,0.3,0.6,0.2c0.5,0,0.9-0.1,1.3-0.2
		c0,0.1,0.1,0.1,0.1,0.2c0.1,0.1,0.2,0.2,0.2,0.3l-0.1,0l0,0l0,0l-0.2,0c-0.1,0-0.2,0.1-0.3,0.1c0,0,0,0.1,0,0.2l0.1,0.1L54.1,15.3z
		 M26.7,32.8l0.1,0L26.7,32.8l-0.1-0.1C26.7,32.7,26.7,32.7,26.7,32.8L26.7,32.8z M47.9,11.6L47.9,11.6L47.9,11.6l-0.2-0.5l-0.2-0.4
		c-0.2,0.3,0.1,0.3,0.2,0.4L47.9,11.6z M50.5,28.3c-0.3,0.6-0.2,0.7,0,1.5C50.6,29.2,50.8,28.8,50.5,28.3L50.5,28.3z M32,28.5
		c0.3,0.5,0.4,0.5,0.8,0.1L32,28.5z M49.3,32.4L49.3,32.4l0.1-0.2h-0.1L49.3,32.4z M24.2,16.1l-0.1-0.1c0,0-0.1,0.1-0.1,0.1
		C24,16.1,24.1,16.1,24.2,16.1C24.1,16.1,24.2,16.1,24.2,16.1z"/>
	<path class="st4" d="M42.6,92.1c0.9-2.9,1.8-5.8,2.6-8.8c0.9-3.3,1.7-6.6,2.3-9.9c0.6-3,1-6,1.5-9c0.2-1.5,0.5-2.9,0.7-4.4
		c0.1-0.9,0.3-1.8,0.4-2.8c0.1-1,0.3-1.9,0.4-2.9c0.1-1,0.2-1.9,0.3-2.9c0.1-1,0.3-1.9,0.4-2.9c0.1-1.9,0.2-3.8-0.3-5.7
		c0-0.1,0-0.1-0.1-0.2c-0.1-0.2-0.2-0.4-0.3-0.6c0.4,0,0.9,0.6,1.3,1.2c0.5,0.7,1.1,1.5,1.7,2.2c0.4,0.5,0.9,1,1.6,1.3
		c0.2,0.1,0.3,0.2,0.5,0.3c0.6,0.7,1.4,0.9,2.2,1.1c1.5,0.5,3,0.9,4.5,1.4c1.6,0.6,3.2,1.2,4.7,2.1c0.9,0.5,1.8,1.1,2.8,1.6
		c0.5,0.3,1.1,0.5,1.7,0.7c0.5,0.2,1,0.5,1.6,0.7v37.4L42.6,92.1z"/>
	<path class="st5" d="M48.1,19l0.7,1.6l-0.1,0c0,0-0.1-0.1-0.1-0.1c0,0,0,0,0,0l0.1,0c-0.2,0.4-0.5,0.1-0.7,0.1l-0.3-0.1l0,0l0,0
		l0.3,0.1l0.1,0.1L48.1,21l-0.3,0c0.2,0.1,0.4,0.2,0.4,0.3c0,0.3-0.1,0.5-0.2,0.8l0.3,0.3c-0.2,0-0.4,0.1-0.5,0.1c0,0,0,0,0,0
		c0,0,0,0.1,0,0.1l-0.1,0.1l-0.1,0l0.1,0l0.1,0.1c0.5,0.5,1.3,0.5,1.4,1.4c0,0.3,0.2,0.5,0.4,0.8c0.2,0.4,0.2,0.8,0,1.2
		c-0.1,0.2,0,0.4-0.1,0.6c0,0.4-0.1,0.8-0.1,1.2c0,0.5-0.2,1.1,0.3,1.5l-0.2-0.2c0.3,0.5-0.6,1.1,0.1,1.5c0,0.2,0,0.3-0.1,0.5
		L49.3,31c-0.1,0.6-0.1,1.3-0.2,1.9c0.1-0.2,0.2-0.4,0.4-0.5c0,0,0.2,0,0.3,0.1l-0.2,0.4c0,0.2-0.1,0.3-0.1,0.4
		c0,0.1-0.1,0.3-0.1,0.3c0.4,0.2,0.2,0.5,0.2,0.7c0,0.8,0,1.7,0,2.6l1.1-0.4l0,0c-0.2,0.1-0.4,0.4-0.6,0.4c-0.5,0-0.6,0.4-0.6,0.8
		c0,0.3,0,0.7,0,1c0,0.7,0,1.5,0,2.2c0,0.3,0.3,0.6,0.5,0.9c0.1,0.3,0.2,0.7,0.4,1c-0.3-0.1-0.3,0.1-0.3,0.3c0,0.6,0.1,1.1,0.1,1.7
		c0,0,0.1,0.1,0.1,0.1c-0.5,1.6-1.5,2.9-2.4,4.1c-0.5,0.6-0.9,1.3-1.4,1.9c-0.6,0.6-1.2,1.2-1.9,1.7c-0.7,0.5-1.2,1-1.5,1.8
		c-0.2,0.6-0.1,2,0.4,2.3c0.5,0.3,0.7,0.8,1,1.2c-0.9,1.6-2,2.9-3.4,4L40.7,62l0.9-0.9l-0.5-0.2l0.4-0.3l-0.2-0.3l0.3-0.1
		c0.1-0.8,0.3-1.5,0.4-2.2c-0.2-0.1-0.3-0.3-0.5-0.4c-0.1-0.1,0-0.2,0-0.4l0.1,0.1c0,0,0,0.1-0.1,0.1l0,0c0,0,0-0.1,0-0.1l0.4-0.2
		l0.1-0.1l0-0.1l-0.1,0.1c-0.3-0.3-0.3-0.3-1.2,0c-0.3-0.4-0.3-1.4,0-1.8l-0.4,0l-0.4-0.4c0.1-0.2,0-0.2-0.3-0.3
		c-0.5-0.1-0.9-0.3-1.4-0.4c-0.1,0-0.2,0-0.3,0c-0.3-0.1-0.6-0.2-0.8-0.5c-0.8-0.9-1.7-1.6-3-1.6c-0.4,0-0.7-0.2-0.8-0.6
		c-0.1-0.3-0.1-0.5-0.2-0.8c0.1-0.3,0.2-0.5,0.4-0.8c0.1-0.1,0.3-0.1,0.6-0.1v-0.3l1.1-0.6c0,0-0.1-0.2-0.2-0.2
		c-0.4-0.2-0.5-0.4-0.4-0.9c0.1-0.3,0.1-0.5-0.3-0.5v-0.5c-0.2-0.1-0.3-0.3-0.4-0.4c0,0,0,0-0.1,0c0,0,0,0-0.1,0
		c-0.7,0.3-0.7-0.4-0.9-0.7c-0.4-0.6-0.7-1.2-1-1.8c-0.3-0.7-0.9-1.3-1.4-1.9c-0.3-0.3-0.4-0.7-0.7-1.1c0,0.3,0.1,0.5,0.1,0.8
		c0,0.1-0.1,0.2-0.1,0.4C30,42,29.8,42,29.7,41.9c-0.3-0.3-0.5-0.7-0.7-1.1c-0.2-0.3-0.3-0.7-0.4-1c-0.1-0.1-0.1-0.2-0.2-0.2l0,0
		c0.2-0.6-0.1-1.2-0.1-1.9c0-0.1,0-0.1,0-0.2l0.1,0l0.4,1.1c0-0.2,0-0.3,0.1-0.4l0.1,0c0.1,0.3,0.1,0.5,0.3,0.9
		c0.1-0.3,0.1-0.4,0.2-0.7l0.2,0.5l0.5-0.2L30,38.5l0.3-0.2c0-0.1,0-0.1,0-0.1c-0.4-0.1-0.4-0.4-0.6-0.7c-0.1-0.3-0.4-0.5-0.6-0.7
		c-0.1-0.1-0.1-0.3-0.2-0.4c-0.1-0.2,0-0.5-0.4-0.5c-0.1,0-0.2-0.4-0.3-0.6c0.2-0.4,0.3-0.7-0.1-1.1C28,33.9,28,33.7,28,33.6l0,0
		c0.4-0.2,0.1-0.4,0-0.5c-0.3-0.1-0.3-0.3-0.3-0.6c0-0.4,0-0.8,0-1.1c0-0.2,0-0.3,0.1-0.4c0.4-0.5,0.2-1.1,0.1-1.6
		c0,0-0.1,0-0.1-0.1l0.3-0.4c0.2,0.2,0.4,0.4,0.6,0.6c0.2,0.2,0.4,0.6,0.8,0.4c0.1,0,0.2,0,0.3,0.1c0.2,0.2,0.2,0,0.4-0.2
		c0.2-0.4,0.4-0.9,0.8-1.1c0.1,0,0.1-0.1,0.2-0.1l0.4,0.9c0,0.1,0,0.2,0,0.3c0.6-0.1,0.7,0,0.8,0.4c0.5,0.1,0.9,0,1.2-0.5
		c-0.1-0.1-0.2-0.1-0.4-0.1c-0.1,0-0.2,0-0.3,0c-0.1,0-0.2,0-0.3,0l0.9-0.3l-0.1-0.3l0.6,0.4l0.1-0.1c-0.4-0.3-0.7-0.5-1.1-0.8
		c-0.1-0.1-0.3-0.1-0.4-0.2l0.3-0.2l0.8,0.3c0-0.1,0-0.1,0-0.2l-1.7-0.4h1.4c-0.3-0.7-1-0.8-1.5-0.3c0,0-0.1,0-0.1,0
		c-0.1,0.1-0.2,0.1-0.3,0.2l0.3,0.2c-0.4,0.1-0.9,0.2-1.3,0.3c-0.1,0-0.3,0.2-0.4,0.3l0,0L30,28.6l0,0L29.4,29l0-0.1l0.3-0.3l-0.1,0
		v-1.2l-0.6-0.1c0.1-0.4,0.4-0.6,0.8-0.6l0.3-0.4l1.7,0.6v0h1.5c0-0.3,0-0.5-0.4-0.5c-0.5-0.1-0.9-0.4-1.3-0.5c-0.3-0.1-0.6,0-0.9,0
		l0,0l-0.3-0.1l0.3-0.1l-0.6-0.3v0.6h-1.5c-0.2-0.4-0.4-0.8-0.5-1.1c-0.1-0.2-0.2-0.4-0.1-0.5c0.1-0.4-0.1-0.7-0.2-1.1
		c0-0.1-0.1-0.2-0.1-0.2c0.6-0.8,0.3-1.8,0.7-2.6c0.1-0.1,0.1-0.3,0.2-0.4c0,0.1-0.1,0.3-0.1,0.5c0.3-0.1,0.4-0.3,0.4-0.6
		c0-0.8,0.4-1.4,0.8-2.1c0.1-0.1,0.2-0.2,0.4-0.3c0.1-0.3,0.2-0.6,0.6-0.7c0,0,0.1-0.1,0.1-0.1c0.3-0.7,0.9-0.9,1.5-1.3
		c0.1-0.1,0.3-0.2,0.5-0.3c0.2-0.1,0.3-0.1,0.4,0c0.1,0.1,0.4,0,0.6-0.1c0,0,0,0.1,0,0.1l0,0L33.7,15c0.3-0.2,0.7-0.1,1-0.1
		c0.1,0,0.3,0,0.4,0c0.2-0.1,0.4-0.4,0.7-0.1c0.3-0.4,0.8,0.2,1.1-0.1c0.1-0.1,0.3-0.1,0.4-0.1c0.3,0,0.5-0.1,0.8-0.1
		c0.1,0,0.3,0,0.4,0.1l0.3-0.4l1.1,0.5l0.7-0.3l0.2,0.2l0.5-0.4c0,0.1,0.1,0.2,0.1,0.3l0.7-0.3c0.3,0.4,0.8-0.1,1.1,0.1
		c0.4,0.2,0.7,0.3,1.2,0L44,14.7l0.4-0.1l0,0c0.2,0.2,0.4,0.5,0.6,0.6c0.2,0.1,0.4,0.1,0.6,0.2c0.1,0.1,0.2,0.2,0.4,0.4L45.8,16
		c0,0,0,0,0,0c0.4,0,0.5,0.2,0.7,0.5c0.3,0.5,0.6,0.9,0.9,1.3h0h0c0.2,0.2,0.5,0.5,0.7,0.8C48.2,18.6,48.1,18.8,48.1,19L48.1,19
		l-0.2-0.1c0,0,0,0.1,0,0.1L48.1,19L48.1,19z M45,42.5L45,42.5l0.5-0.1c0.3-0.5,0.5-1.1,0.8-1.6c0.1-0.2,0.2-0.6,0.6-0.4l-0.2-0.6
		c0.5,0.1,0.5-0.3,0.5-0.5c0-0.7,0-0.7,0.2-1.4l-1,0.1l-0.1-0.4l-0.2,0c-0.1,0.3-0.2,0.6-0.3,0.9l-0.1,0c-0.1-0.2-0.1-0.4-0.2-0.6
		C45.5,37.9,45.2,38,45,38c-0.4,0-0.6,0.1-0.7,0.6c-0.1-0.1-0.3-0.2-0.3-0.3c-0.2-0.3-0.4-0.4-0.7-0.6c-0.4-0.2-0.7-0.4-1-0.7
		c-0.2-0.2-0.3-0.6-0.6-0.9c-0.6-0.7-1.2-1.3-1.9-2c-0.1-0.1-0.1-0.2-0.2-0.3c0.6,0.3,1.1,0.6,1.7,0.9c0.2,0.1,0.3,0.2,0.4,0.3
		c0.3,0.3,0.6,0.6,0.9,0.9c0.2,0.2,0.4,0.4,0.6,0.5c0.5,0.2,1.1,0.3,1.6,0.5l0.5-0.8c0,0,0.1,0,0.1,0.1c0,0,0.1,0,0.1,0
		c0,0,0.1,0,0.1-0.1c0,0,0.1-0.1,0.1-0.1c0.1-0.1,0.2-0.3,0.3-0.4c0.1-0.1,0.2-0.2,0.2-0.3c0.2-0.3,0.3-0.6,0.5-1l0.3,0.9l0.4-2.5
		l-0.6-0.1L46.6,33l-0.2-0.3l-0.8,0.2c0-0.2,0-0.4,0-0.5l0.9,0.1l0,0l0,0c0.2-0.5,0.6-1,0.5-1.7c0.1,0.4,0.2,0.4,0.3,0.3
		c0-0.5-0.1-0.9-0.1-1.3l0.1,0.1l0-0.1l-0.1-0.1l-0.1-0.2l0.4-0.6v0.5l0.4-0.3c0-0.1-0.1-0.3-0.1-0.4c0.1-0.4,0.2-0.8-0.1-1.2
		c0,0,0.1-0.1,0.1-0.2c0.1,0.1,0.1,0.2,0.2,0.3l0.1-0.1l-0.3-0.7l0.2-0.4L47.7,26c0-0.1,0.1-0.1,0.1-0.2c0.4-0.3,0.4-0.8,0.5-1.3
		c0.1-0.6-0.3-0.8-0.6-1.1c-0.3-0.3-0.7-0.6-0.7-1.1c0-0.2,0.1-0.4,0-0.6c-0.1-0.4-0.3-0.8-0.6-1.3l0.6,0.1l0-0.1L46.5,20
		c0.4-0.4,0.4-0.5,0-0.9l0.2-0.1l-0.1-0.1l-0.1,0.2L46.1,19l0.2-0.1c0.1-0.1,0.2-0.3,0.2-0.4c-0.2-0.4,0-0.5,0.2-0.7
		c-0.1-0.1-0.1-0.1-0.2-0.2c-0.5-0.7-1-1.5-1.9-1.8c-0.2-0.1-0.4-0.3-0.7-0.5c-0.2,0.1-0.4-0.1-0.6-0.4l0-0.1l-0.1,0
		c-0.2,0.1-0.5,0.2-0.7,0.2c-0.6,0-1.3-0.1-1.9,0.1c0,0-0.1,0-0.1,0c-0.1-0.4-0.4-0.1-0.5,0c-0.3,0.2-0.5,0.1-0.7-0.2
		c-0.3,0.4-0.4,0.4-0.7,0c-0.1,0.1-0.3,0.3-0.4,0.2c-0.4-0.2-0.7,0.2-1,0.3c-0.2,0.1-0.4,0.2-0.6,0.1c-0.9-0.3-1.5,0.2-2.1,0.7
		c-0.4,0.3-0.6,0.7-1,1c0.2,0.1,0.2,0.5,0,0.7c-0.1,0.1-0.2,0.1-0.2,0.2c-0.1,0.4-0.2,0.9-0.2,1.1l0.4,0.5l-0.1,0.2l-0.6,0
		c0.1,0.2,0.2,0.4,0.3,0.6l0,0l0,0l0.5-0.5c-0.1,0.5-0.1,0.9-0.2,1.4l-0.7,0.2c0,0.1,0,0.2,0,0.3c0,0.5,0,0.9-0.4,1.2
		c0,0-0.1,0.2,0,0.3c0.1,0.5-0.1,1,0.2,1.4c0,0,0,0,0,0c-0.1,0.4,0.1,0.4,0.4,0.5c0.2,0,0.5,0.1,0.8,0.1c0,0,0-0.1,0.1-0.1
		c0,0.1,0.1,0.2,0.1,0.3l0.1-0.3c0,0.2,0.1,0.4,0.1,0.6l0.1-0.2l0.7,0.5c0-0.1,0-0.2,0.1-0.3l0.2,0.2c0-0.2,0-0.4,0-0.6l0.1,0
		c0.1,0.4,0.2,0.7,0.4,1.1c0,0,0.1,0.1,0.1,0.1l-0.2,0.1c0.3,0.1,0.3,0.3,0.2,0.5c-0.1,0.2-0.2,0.4-0.1,0.5c0.1,0.5,0.3,0.9,0.4,1.3
		c0,0.2,0,0.4,0,0.5c0,0.2,0.1,0.3,0.3,0.5c0.3,0.3,0.2,0.6,0,0.8c-0.3,0.3-0.3,0.6-0.2,0.9c0,0.7,0.1,1.4,0.1,2.1
		c0,0.4,0.6,0.8,0.9,0.7l0.9-0.4c0.1,0.1,0.1,0.3,0.2,0.3c0.4,0.2,0.8,0.3,1.2,0.5c0.2,0.1,0.3,0.1,0.5,0.1
		c-0.1,0.2-0.2,0.5-0.3,0.5c-0.4,0.2-0.8,0.3-1.3,0.4C38.2,36.6,38,36.7,38,37c-0.1,0.4-0.2,0.8-0.3,1.3c0,0,0,0,0-0.1
		c-0.3-0.2-0.5-0.6-0.9-0.5c-0.2,0.1-0.5,0.4-0.5,0.6c0,0.5,0.3,0.9,0.7,0.9c0.5,0,1,0,1.5,0c1,0,2,0.1,3,0.2c0.1,0,0.3,0,0.4,0
		c0.1,0,0.3-0.1,0.4-0.2c0.2-0.1,0.4-0.2,0.6,0c0.1,0.1,0.3,0.3,0.4,0.4c0.2,0.2,0.4,0.9,0.2,1.1c-0.3,0.3-0.6-0.1-0.9-0.2
		c0,0,0-0.1,0-0.1c-0.2-0.1-0.4-0.3-0.7-0.1c-0.4,0.3-0.8,0.6-1.2,0.9l-0.1,0.1l0,0l0.1-0.1h0.3c-0.1,0.1-0.1,0.2-0.2,0.2
		c-0.5,0.1-0.5,0.6-0.6,0.9c-0.1,0-0.2,0-0.2,0.1c-0.3,0.3-0.6,0.6-0.9,0.8c-0.2,0.1-0.4,0.2-0.6,0.3c-0.3,0.2-0.5,0.2-0.9,0
		c0,0.2,0,0.4,0,0.6c0,0,0,0-0.1,0c-0.1,0-0.3,0-0.4,0l0,0.1c-0.1,0-0.2,0.1-0.3,0.1c-0.1,0.1-0.2,0.2-0.2,0.3
		c0,0.1,0.1,0.2,0.2,0.3l-0.1,0.3c0.2,0.1,0.3,0.2,0.4,0.3c0.1,0,0.1,0.1,0.2,0.1c0.7-0.1,1.1,0.4,1.5,0.9c0,0,0.1,0.1,0.2,0.1
		c0.1,0,0.1,0,0.2,0c0.1,0,0.2-0.2,0.2-0.2c0.1-0.1,0.1-0.1,0.2-0.2c0.4-0.1,0.7-0.1,1,0.2c0.3,0.3,0.9,0.1,1.1-0.3
		c0-0.1,0.2-0.3,0.2-0.3c0.3,0,0.5-0.1,0.4-0.5l0.1,0.3l1.4-0.7l0.2,0.2l0.5-0.2c0-0.1-0.1-0.2-0.1-0.4c0.3-0.1,0.8-0.8,0.7-0.9
		c-0.3-0.2-0.1-0.4,0-0.6c0-0.1,0-0.1,0-0.2l-1,0.1L44,43c0.2-0.3,0.3-0.5,0.5-0.8c0.2-0.3,0.5-0.5,0.7-0.9c0.2-0.4,0.4-0.9,0.6-1.4
		c0,0.2,0.1,0.3,0,0.4C45.6,41,45.3,41.7,45,42.5L45,42.5L45,42.5C45,42.5,45,42.5,45,42.5L45,42.5z M29.4,39.2L29.4,39.2L29.4,39.2
		L29.4,39.2L29.4,39.2z M38.8,48.5l0.2-0.1l-0.1-0.1L38.8,48.5L38.8,48.5C38.8,48.5,38.8,48.5,38.8,48.5
		C38.8,48.5,38.8,48.5,38.8,48.5L38.8,48.5z M36.2,48.2L36.2,48.2l-0.3,0.2l0.8,0.4l0.5-0.4l-0.3-0.2v0l0,0L36.2,48.2z M40.1,41.5
		c-0.3-0.1-0.3-0.2,0-0.4l0,0l0,0c0-0.3,0-0.4-0.4-0.4c-0.6,0.1-1.2,0.2-1.7,0.5c-0.2,0.1-0.4,0.4-0.6,0.5l0,0.2
		c0.4-0.2,0.7-0.1,0.7,0.4c0-0.1,0-0.2,0-0.3c0.4,0.1,0.8,0.2,1.1,0.1C39.6,42,39.9,41.9,40.1,41.5l0.2-0.2l-0.1-0.1
		C40.1,41.3,40.1,41.4,40.1,41.5L40.1,41.5z M33.2,32.7l0.1,0.1l0,0L33.2,32.7c0.1-0.3,0.2-0.7,0.3-1c0-0.1,0-0.2,0-0.3
		c-0.2,0.6-0.5,0.7-1,0.7c-0.2,0-0.4,0.1-0.7,0.1l0.5,0.5l-0.8,0.1l0.2,0.2l-0.2,0.2c0,0.3,0,0.4,0,0.7l0.3,0.2l-0.3,0.7l-0.2-0.2
		c-0.1,0.4,0,0.6,0.5,0.7c-0.1-0.2-0.1-0.4-0.2-0.6l0.6,0.1l0.1,0.2l0.5-0.2c-0.1-0.2-0.2-0.5-0.3-0.7l0.7-0.1
		c0-0.1-0.1-0.2-0.1-0.3c0.2-0.6-0.2-0.5-0.5-0.4c0,0,0,0-0.1,0c0-0.1-0.1-0.2-0.1-0.3c0.2,0.2,0.3,0.3,0.5,0
		C33,32.7,33.2,32.7,33.2,32.7L33.2,32.7z M37.2,40.7c-0.1,0-0.2,0.1-0.3,0.1c-0.6-0.1-1.2-0.2-1.8-0.3c-0.1,0-0.1-0.1-0.1-0.2
		c0.2-0.4,0.5-0.4,0.8-0.1c0-0.4,0.2-0.4,0.5-0.4c0.2,0,0.4,0,0.7,0l0-0.2h-3.1l0-0.1l0.1-0.1c-0.5,0.2-0.3-0.4-0.5-0.5l0-0.2
		c-0.1,0.4-0.6,0.2-0.8,0.6c-0.2,0.4,0,0.8-0.1,1.1c0.1,0,0.2,0,0.2,0c0.2,0.2,0.4,0.4,0.5,0.6c0.3,0.5,0.6,1.1,0.9,1.6
		c0.1,0.2,0.2,0.3,0.4,0.4c0.2,0.1,0.3,0.2,0.5,0.2c0.1,0,0.2-0.1,0.3-0.1L35.1,43l0.2-0.1l-1-0.7c0.4-0.1,0.3-0.2,0.2-0.5
		c-0.1-0.2-0.2-0.4-0.1-0.5c0.1-0.2,0.3-0.4,0.6-0.3c0.6,0.1,1.3,0.2,1.9,0.2c0.4,0,0.7-0.1,1.1-0.2c0.3-0.1,0.6-0.2,0.8-0.3
		c0.1,0,0.2-0.2,0.3-0.3c-0.2-0.1-0.4-0.2-0.4-0.2c-0.3,0.3-0.4,0-0.5-0.2c0-0.1-0.2-0.1-0.3-0.1c0,0.4-0.4,0.3-0.6,0.5
		C37.3,40.4,37.2,40.5,37.2,40.7z M43,51.9L43,51.9L43,51.9c0.1-0.3,0.3-0.2,0.4,0c0.2,0.2,0.7,0.2,0.9,0c0.2-0.2,0.4-0.3,0.6-0.5
		c0.1-0.1,0.2-0.3,0.4-0.4c0.2,0.1,0.4,0,0.5-0.3c0.1-0.1,0.1-0.3,0.2-0.4c0.3-0.3,0.5-0.5,0.8-0.8c0.4-0.5,0.7-1,1.2-1.4
		c0.4-0.4,0.7-0.8,0.9-1.3c0.3-0.5,0.4-1.1,0.7-1.7c0.3-0.7,0.2-1.4-0.1-2.1l0.2,0.8L49.3,44L48.7,44v-0.2c-0.3,0.2-0.6,0.4-0.9,0.6
		c-0.1,0-0.1,0.1-0.1,0.2c-0.4,0.9-1.2,1.5-1.8,2.2c0,0-0.1,0.1-0.1,0.1c-0.5-0.2-0.6,0.2-0.8,0.5c-0.4,0.4-0.8,0.9-1.3,1.3
		c-0.4,0.3-0.3,0.4-0.1,0.7l-0.7,0.3c0,0.2,0.1,0.3,0.1,0.5l-0.9,0.2c0.1,1,0,1.1-0.8,1.4c-0.3,0.1-0.5,0.2-0.8,0.3l0,0.1
		c0.4-0.1,0.8-0.1,1.2-0.2c0.4-0.1,0.8-0.1,1.1,0.2L43,51.9z M36.8,36.8L36.8,36.8c-0.3-0.2-0.5-0.3-0.7-0.4
		c-0.3-0.3-0.5-0.5-0.8-0.8c-0.2-0.2-0.6-0.3-0.7,0c-0.2,0.4-0.4,0.3-0.6,0c0.1,0.5,0.2,0.9,0.7,0.9c0.1,0,0.3,0.2,0.4,0.2
		c0.2,0.1,0.4,0.3,0.6,0.3C36,37,36.4,36.8,36.8,36.8z M34.1,28.5c0.2,0.3,0.5,0.6,0.8,1c0,0,0.3,0,0.4-0.1c0.1-0.2,0-0.4,0-0.7
		c-0.2-0.6-0.6-1-1.1-1.3l-0.1,0.1l0.7,1.1L34.1,28.5z M42.6,40l0-0.2l-3.1-0.3c0,0.2,0,0.4,0.1,0.6c0.5,0,1-0.1,1.5-0.1
		C41.5,40,42,40,42.6,40L42.6,40z M39,35.8c-0.3-0.6-0.8-0.7-1.2-0.2L39,35.8z M41.3,47.4l-0.1-0.1c-0.1,0.2-0.5-0.1-0.6,0.3
		l0.1,0.2L41.3,47.4z M39.9,48.4c0-0.2,0-0.4,0-0.5l-0.4,0.4L39.9,48.4z M31.1,32.6c0,0.1-0.1,0.1-0.1,0.2c0,0,0.1,0.1,0.1,0.1
		c0,0,0.1-0.1,0.1-0.1C31.2,32.8,31.2,32.7,31.1,32.6L31.1,32.6z M47.1,19.8c0-0.1,0.1-0.1,0.1-0.1c0,0-0.1-0.1-0.1-0.1
		c0,0-0.1,0.1-0.1,0.1C47,19.7,47.1,19.8,47.1,19.8z M29.3,26.9L29.3,26.9c0,0.1,0.1,0.1,0.1,0.1c0,0,0,0,0,0
		C29.4,26.9,29.3,26.9,29.3,26.9z M39.3,48.3L39.3,48.3l0,0.1h0L39.3,48.3z M44.9,42.8L44.9,42.8C44.9,42.8,44.9,42.8,44.9,42.8
		C44.9,42.8,44.9,42.8,44.9,42.8L44.9,42.8z M35.6,26.7L35.6,26.7L35.6,26.7L35.6,26.7L35.6,26.7z M42,57.5
		C41.9,57.5,41.9,57.5,42,57.5C41.9,57.5,41.9,57.5,42,57.5L42,57.5L42,57.5z M44.3,14.8L44.3,14.8L44.3,14.8L44.3,14.8z"/>
	<path class="st5" d="M51.3,28.8c0-0.1,0.1-0.3,0.2-0.4c0.1-0.1,0.3-0.4,0.3-0.3c0.5,0.2,0.6-0.2,0.8-0.6c0,0.1,0.1,0.3,0.1,0.4
		c0,0.5,0.1,1,0.1,1.5c0,0.3-0.1,0.6-0.1,0.9c0.1,0.7-0.2,1.3-0.4,2c-0.1,0.4-0.3,0.8-0.5,1.2v0c0.2-0.6,0.3-1.1,0.5-1.7
		c0.2-1,0.6-1.9,0.2-3c0,0.2,0,0.5,0,0.6c-0.2-0.1-0.3-0.3-0.5-0.2c-0.3,0-0.3,0.3-0.3,0.5c0,0.2,0.1,0.5,0.1,0.7
		c0.2,1.1,0.2,2.2-0.5,3.1c-0.1,0.2-0.4,0.3-0.6,0.5l-0.1-0.2c0.1-0.1,0.2-0.2,0.3-0.3c0.2-0.2,0.5-0.4,0.6-0.7
		c0.5-1.2,0.2-2.5,0-3.7c0-0.1-0.1-0.2-0.2-0.3L51.3,28.8C51.3,28.8,51.3,28.8,51.3,28.8C51.3,28.8,51.3,28.8,51.3,28.8
		C51.3,28.8,51.3,28.8,51.3,28.8C51.3,28.8,51.3,28.8,51.3,28.8z"/>
	<path class="st5" d="M30.6,48.7c0-1.1,0.2-2.2,0.6-3.3c0,0.2,0.1,0.3,0.1,0.5c0,1,0.6,1.8,1.1,2.7c0.2,0.4,0.4,0.9,0.6,1.3
		c0,0.1-0.1,0.1-0.2,0.2c-0.2-0.9-0.9-1.2-1.5-1.7c-0.5,0.2-0.5,0.7-0.6,1.1C30.7,49.2,30.6,49,30.6,48.7z"/>
	<path class="st4" d="M54.1,15.3l-0.3-0.1l0-0.1l-0.1,0c0-0.1,0-0.2,0-0.2c0.1,0,0.2-0.1,0.3-0.1c0,0.1,0.1,0.2,0.2,0.3v-0.3l0,0
		l0,0l0.1,0.1l0.1,0l0-0.1l0-0.1c-0.1-0.1-0.2-0.2-0.2-0.3c0-0.1-0.1-0.1-0.1-0.2c-0.4,0.1-0.9,0.2-1.3,0.2c-0.2,0-0.4-0.2-0.6-0.2
		c0.2-0.1,0.5-0.3,0.8-0.4c0.4-0.2,0.4-0.4,0.2-0.7c0,0,0-0.1,0-0.1l0,0.1l-0.3-0.1l0.2-0.3l0.5,0.3c0-0.2,0-0.3-0.1-0.5
		c0.3,0.3,0.4,0.9,0.2,1.3c0.2,0,0.4,0,0.6,0c0.2,0,0.3,0,0.2,0.2c0,0,0,0-0.1,0c0,0-0.1,0-0.1-0.1c0,0,0,0,0,0.1l0.1,0h0.1l0.5-0.1
		c0,0.1-0.1,0.2-0.1,0.4l0,0l0,0l0.5,0.4l-0.4,0v0.7L54.1,15.3z"/>
	<path class="st4" d="M41.4,6.7c-0.5,0.5-1.1,0.3-1.6,0.1c-0.4-0.1-0.6-0.1-0.9,0.3c-0.1,0.1-0.4,0.1-0.6,0.2
		c-0.3,0.1-0.5,0.1-0.8,0.1c-0.3,0.1-0.6,0.4-0.8-0.1c-0.1-0.1,0-0.3,0-0.4l0.9-0.1l0-0.1l-0.7-0.2c0.2,0,0.4-0.1,0.6-0.1
		c0.3,0,0.5,0.2,0.8,0.3c0.2,0.1,0.4,0,0.4-0.3l0.2,0.3c0-0.2,0-0.4,0-0.6C39,6.3,39,6.4,39.1,6.5c0.1,0.1,0.3,0.1,0.4,0.1
		c0.2,0,0.3,0,0.5,0C40.4,6.5,41,6.4,41.4,6.7z"/>
	<path class="st4" d="M50.7,12.8l-0.4,0.3c0-0.3,0-0.4,0-0.6l-0.1-0.1c-0.1,0.1-0.2,0.3-0.2,0.4c0,0.1-0.1,0.1-0.2,0.1
		c-0.1,0-0.1-0.1-0.2-0.2c0-0.5,0.3-0.9,0.5-1.2l0.1,0.1c0.2,0.2,0.2,0.2,0.3,0c0,0.2,0,0.3,0.1,0.4l1.3,0.5L50.7,12.8
		C50.6,12.8,50.6,12.8,50.7,12.8C50.6,12.8,50.6,12.8,50.7,12.8z"/>
	<path class="st5" d="M31.1,53.9c-0.2-0.9,0.7-1.6,1.6-1.8c0,0.5-0.6,1.2-1.1,1.3C31.3,53.4,31.1,53.5,31.1,53.9z"/>
	<path class="st4" d="M49.4,11c0,0.3-0.1,0.7-0.1,1c0,0.2,0.3,0.3,0.1,0.6c-0.1,0.1-0.1,0.1-0.1,0.2c-0.1-0.1-0.1-0.2-0.1-0.3
		c-0.1-0.4-0.2-0.8-0.3-1.3c-0.1-0.2-0.1-0.5-0.1-0.7c0.2-0.2,0.2,0,0.3,0.1C49.1,10.8,49.2,10.9,49.4,11L49.4,11L49.4,11z"/>
	<path class="st4" d="M53.9,16.8l-0.3,0c0-0.1-0.1-0.2-0.1-0.4l0.7-0.1l-0.3-0.2l0-0.1l0.5,0.1c0.2,0.4,0.5,0.9,0.3,1.4
		c-0.2-0.1-0.6-0.1-0.3-0.5c0,0-0.1-0.1-0.1-0.2L54,16.5L53.9,16.8z"/>
	<path class="st4" d="M47.6,8.5c0.2,0.5,0.4,1.1,0.5,1.6c0,0.2,0,0.4-0.1,0.5c-0.2-0.8-0.4-1.5-0.7-2.3l0.3,0l0,0L47.6,8.5z"/>
	<path class="st4" d="M50.2,45.2c0,0-0.1-0.1-0.1-0.1c0-0.6-0.1-1.1-0.1-1.7c0-0.2,0-0.4,0.3-0.3C50.3,43.8,50.4,44.5,50.2,45.2z"/>
	<path class="st5" d="M51.9,33.5c-0.1,0.2-0.2,0.5-0.3,0.7c-0.2,0.5-0.4,1.1-0.6,1.6l0,0c0-0.6,0.1-1.2,0.4-1.7
		C51.6,33.9,51.7,33.7,51.9,33.5L51.9,33.5z"/>
	<path class="st4" d="M54.6,15.8l-0.2-0.1c0.2-0.3-0.1-0.1-0.2-0.2v0c0.4,0,0.7-0.1,1.1-0.1c0.2,0,0.5,0.1,0.7,0L54.6,15.8z"/>
	<path class="st4" d="M54.5,17.9l0.3-0.2l0.1,0.1l-0.1,0.1l0.3,0.2l0,0.1L54.5,17.9z"/>
	<path class="st4" d="M47.6,10.3v0.2l-0.1,0c0-0.2-0.1-0.4-0.1-0.5C47.4,10.1,47.5,10.2,47.6,10.3z"/>
	<path class="st6" d="M50.9,36l-0.3,0.7l0,0C50.7,36.4,50.8,36.2,50.9,36L50.9,36z"/>
	<path class="st4" d="M49.4,11L49.4,11c-0.1-0.2-0.2-0.4-0.2-0.6l0,0l0,0C49.3,10.5,49.3,10.8,49.4,11z"/>
	<path class="st4" d="M52.9,27L52.9,27C52.8,27,52.8,27,52.9,27C52.9,27,52.9,27,52.9,27L52.9,27z"/>
	<path class="st4" d="M46.4,9.2l0-0.2L46.5,9c0,0.1,0.1,0.1,0.1,0.2L46.4,9.2C46.5,9.2,46.4,9.2,46.4,9.2L46.4,9.2z"/>
	<path class="st4" d="M46.4,8.8L46.5,9L46.4,9L46.4,8.8L46.4,8.8z"/>
	<path class="st4" d="M46.3,8.8l-0.1-0.2l0.1-0.1C46.3,8.7,46.3,8.7,46.3,8.8L46.3,8.8z"/>
	<path class="st6" d="M51,35.8L50.9,36C51,35.9,51,35.9,51,35.8z"/>
	<path class="st4" d="M46.2,8.5l0.1,0.1l-0.1,0.1L46.2,8.5C46.1,8.5,46.1,8.5,46.2,8.5z"/>
	<path class="st4" d="M46.1,8.5l0-0.1L46.1,8.5C46.1,8.5,46.1,8.5,46.1,8.5z"/>
	<path class="st6" d="M40.5,55.3L40.5,55.3L40.5,55.3L40.5,55.3z"/>
	<path class="st3" d="M51,35.8c0,0.1-0.1,0.1-0.1,0.2c-0.1,0.2-0.2,0.5-0.4,0.7L49.5,37c0-0.9,0-1.8,0-2.6c0-0.2,0.2-0.6-0.2-0.7
		c0,0,0.1-0.2,0.1-0.3c0-0.1,0.1-0.3,0.1-0.4l0.2-0.4c0.1-0.4,0.2-0.8,0.3-1.2c0,0.2,0,0.3,0.1,0.5c0.1,0.1,0.2,0.2,0.4,0.3
		c0.1-0.1,0.1-0.3,0.2-0.4c0-0.2,0-0.5,0.1-0.7c0.2-0.4,0-0.7-0.2-1l0.3-1l0.2,0.1l0.3-0.5c0,0.1,0,0.1,0,0.2c0,0,0,0,0,0
		c0,0,0,0,0,0c0,0,0,0,0,0c0,0,0,0,0,0c0,0,0,0.1,0,0.1l0.1-0.1c0.1,0.1,0.2,0.2,0.2,0.3c0.2,1.2,0.6,2.5,0,3.7
		c-0.1,0.3-0.4,0.4-0.6,0.7c-0.1,0.1-0.2,0.2-0.3,0.3l0.1,0.2c0.2-0.1,0.5-0.3,0.6-0.5c0.7-0.9,0.7-2,0.5-3.1
		c-0.1-0.2-0.1-0.5-0.1-0.7c0-0.2-0.1-0.5,0.3-0.5c0.1,0,0.3,0.1,0.5,0.2c0-0.2,0-0.4,0-0.6c0.4,1,0,2-0.2,3
		c-0.1,0.6-0.3,1.1-0.5,1.7c-0.1,0.2-0.3,0.4-0.4,0.6C51.2,34.6,51,35.2,51,35.8z"/>
	<path class="st3" d="M33.5,29.1l0.1,0.3l-0.9,0.3c0.1,0,0.2,0,0.3,0c0.1,0,0.2,0,0.3,0c0.1,0,0.2,0.1,0.4,0.1
		c-0.4,0.4-0.7,0.6-1.2,0.5c-0.1-0.5-0.2-0.5-0.8-0.4c0-0.1,0-0.2,0-0.3c0.8,0.2,1.2,0,1.4-0.9L33.5,29.1z"/>
	<path class="st5" d="M50.5,30c0.3,0.3,0.5,0.5,0.2,1c-0.1,0.2,0,0.5-0.1,0.7c0,0.1-0.1,0.3-0.2,0.4c-0.1-0.1-0.3-0.2-0.4-0.3
		C50,31.6,50,31.5,50,31.3l0.3-0.7l0.1,0.2C50.4,30.6,50.5,30.3,50.5,30z"/>
	<path class="st5" d="M32.1,28.3c-0.4,0.1-0.7,0.1-1.1,0.2c-0.3,0.1-0.6,0.3-1,0.5c0-0.1,0-0.2,0-0.3l0,0l0.3-0.2l0,0
		c0.2-0.1,0.3-0.1,0.5-0.2c0.4-0.1,0.8-0.2,1.1-0.3L32.1,28.3z"/>
	<path class="st4" d="M51.3,28.6L51,29.1L50.9,29c0-0.2,0-0.4,0-0.6c0-0.2,0-0.4,0-0.6C51.2,28,51.4,28.2,51.3,28.6z"/>
	<path class="st4" d="M50.5,28.3c0.3,0.5,0.1,1,0,1.5C50.2,29,50.2,28.8,50.5,28.3z"/>
	<path class="st7" d="M32.1,28.3C32,28.2,32,28.1,31.9,28l1.1,0.2l-0.3,0.2L32.1,28.3z"/>
	<path class="st4" d="M53.5,16.4c0,0.1,0.1,0.2,0.1,0.4l-1-0.5c0,0,0-0.1,0-0.1L53.5,16.4z"/>
	<path class="st3" d="M32,28.5l0.8,0.1C32.4,29,32.3,29,32,28.5z"/>
	<path class="st4" d="M53.9,16.8l0.1-0.3l0.3,0.5L53.9,16.8z"/>
	<path class="st4" d="M47.8,11.1c-0.2-0.1-0.5-0.1-0.2-0.4L47.8,11.1L47.8,11.1z"/>
	<path class="st4" d="M27.9,33.6l-0.2-0.2l0.1-0.1L27.9,33.6L27.9,33.6z"/>
	<path class="st4" d="M47.9,11.6c-0.1-0.2-0.1-0.3-0.2-0.5l0,0L47.9,11.6L47.9,11.6z"/>
	<path class="st4" d="M54.2,15.5c0,0.1,0.4-0.2,0.2,0.2L54.2,15.5z"/>
	<path class="st4" d="M54.2,14.8v0.3c-0.1-0.2-0.1-0.2-0.2-0.3L54.2,14.8z"/>
	<path class="st6" d="M47.7,22.5l0.3,0.1v0.1l-0.3,0L47.7,22.5l-0.1,0.1L47.7,22.5z"/>
	<path class="st4" d="M53.7,15.1l0.1,0l0,0.1L53.7,15.1z"/>
	<path class="st4" d="M49.3,32.4l0-0.2h0.1L49.3,32.4L49.3,32.4z"/>
	<path class="st4" d="M53.7,22.1l0-0.3l0.1,0c0,0.1,0,0.2,0,0.2L53.7,22.1z"/>
	<path class="st6" d="M48.2,20.9l0.2,0.1l0,0.1l-0.3,0L48.2,20.9z"/>
	<path class="st6" d="M48.1,19l0.2,0L48.1,19L48.1,19C48.1,19,48.1,19,48.1,19L48.1,19z"/>
	<path class="st4" d="M24.2,16.1C24.2,16.1,24.1,16.1,24.2,16.1c-0.1,0.1-0.2,0-0.2,0C24.1,16,24.1,16,24.2,16.1L24.2,16.1z"/>
	<path class="st4" d="M47.6,8.5l0-0.2L47.6,8.5L47.6,8.5z"/>
	<path class="st4" d="M46.4,9.2C46.4,9.2,46.5,9.2,46.4,9.2l0,0.1L46.4,9.2z"/>
	<path class="st6" d="M30.5,25.9L30.5,25.9L30.5,25.9L30.5,25.9z"/>
	<path class="st6" d="M28.5,39.6L28.5,39.6L28.5,39.6z"/>
	<path class="st4" d="M47.9,11.6L47.9,11.6L47.9,11.6L47.9,11.6z"/>
	<path class="st6" d="M44.4,14.6L44.4,14.6L44.4,14.6L44.4,14.6z"/>
	<path class="st4" d="M54.4,14.7l0,0.1l0,0l-0.1-0.1L54.4,14.7z"/>
	<path class="st4" d="M53.8,19.5l0-0.1l0.2,0L53.8,19.5z"/>
	<path class="st4" d="M53.9,19.4l0,0.1c0,0-0.1,0.1-0.1,0.1l-0.1-0.1L53.9,19.4z"/>
	<path class="st3" d="M36.8,45c-0.1-0.1-0.2-0.2-0.2-0.3c0-0.1,0.1-0.2,0.2-0.3c0.1-0.1,0.2-0.1,0.3-0.1l0-0.1c0.1,0,0.3,0,0.4,0
		c0,0,0.1,0,0.1,0c0-0.2,0-0.4,0-0.6c0.3,0.2,0.6,0.2,0.9,0c0.2-0.1,0.4-0.2,0.6-0.3c0.3-0.3,0.6-0.6,0.9-0.8c0.1,0,0.2-0.1,0.2-0.1
		c0.1-0.4,0.1-0.8,0.6-0.9c0.1,0,0.1-0.1,0.2-0.2l0,0l0,0h-0.3l0,0c0.4-0.3,0.8-0.6,1.2-0.9c0.3-0.2,0.5,0,0.7,0.1c0,0,0,0.1,0,0.1
		c0.3,0.1,0.5,0.5,0.9,0.2c0.2-0.2,0-0.9-0.2-1.1c-0.2-0.1-0.3-0.3-0.4-0.4c-0.2-0.2-0.4-0.2-0.6,0c-0.1,0.1-0.2,0.2-0.4,0.2
		c-0.1,0-0.3,0.1-0.4,0c-1-0.1-2-0.1-3-0.2c-0.5,0-1,0-1.5,0c-0.4,0-0.7-0.4-0.7-0.9c0-0.2,0.3-0.5,0.5-0.6c0.4-0.2,0.7,0.3,0.9,0.5
		c0,0,0,0,0,0.1c0.1-0.4,0.2-0.8,0.3-1.3c0-0.4,0.2-0.4,0.5-0.5c0.4-0.1,0.8-0.2,1.3-0.4c0.2-0.1,0.2-0.4,0.3-0.5
		c-0.2,0-0.3-0.1-0.5-0.1c-0.4-0.2-0.8-0.3-1.2-0.5c-0.1,0-0.2-0.2-0.2-0.3l-0.9,0.4c-0.3,0.1-0.9-0.3-0.9-0.7c0-0.7,0-1.4-0.1-2.1
		c0-0.3,0-0.6,0.2-0.9c0.2-0.2,0.2-0.5,0-0.8c-0.1-0.1-0.2-0.3-0.3-0.5c0-0.2,0-0.4,0-0.5c-0.1-0.5-0.3-0.9-0.4-1.3
		c0-0.2,0-0.4,0.1-0.5c0.1-0.3,0.1-0.4-0.2-0.5L36,27l0,0l0,0c0,0-0.1-0.1-0.1-0.1c-0.1-0.4-0.3-0.7-0.4-1.1l-0.1,0
		c0,0.2,0,0.4,0,0.6l-0.2-0.2c0,0.1,0,0.1-0.1,0.3L34.4,26l-0.1,0.2c-0.1-0.2-0.1-0.4-0.1-0.6L34,25.9c0-0.1-0.1-0.2-0.1-0.3
		c0,0.1-0.1,0.1-0.1,0.1c-0.3-0.1-0.6-0.1-0.8-0.1c-0.3-0.1-0.5-0.1-0.4-0.5c0,0,0,0,0,0c-0.3-0.4-0.1-1-0.2-1.4c0-0.1,0-0.2,0-0.3
		c0.5-0.3,0.5-0.7,0.4-1.2c0-0.1,0-0.2,0-0.3l0.7-0.2c0.1-0.5,0.1-0.9,0.2-1.4l-0.5,0.5c-0.1-0.2-0.2-0.4-0.3-0.6l0.6,0l0.1-0.2
		l-0.4-0.5c0-0.2,0.1-0.7,0.2-1.1c0-0.1,0.2-0.2,0.2-0.2c0.2-0.2,0.2-0.6,0-0.7c0.3-0.3,0.6-0.7,1-1c0.6-0.5,1.2-1,2.1-0.7
		c0.2,0.1,0.4-0.1,0.6-0.1c0.3-0.1,0.6-0.5,1-0.3c0.1,0,0.3-0.2,0.4-0.2c0.3,0.4,0.5,0.4,0.7,0c0.2,0.3,0.4,0.4,0.7,0.2
		c0.1-0.1,0.3-0.4,0.5,0c0,0,0.1,0,0.1,0c0.6-0.3,1.3-0.2,1.9-0.1c0.2,0,0.5-0.1,0.7-0.2l0,0.1c0.2,0.3,0.3,0.5,0.6,0.4
		c0.3,0.2,0.5,0.4,0.7,0.5c0.9,0.3,1.4,1,1.9,1.8c0.1,0.1,0.1,0.1,0.2,0.2c-0.2,0.2-0.5,0.3-0.2,0.7c0,0.1-0.1,0.3-0.2,0.4L46.1,19
		l0.3,0.2l0,0c0.3,0.4,0.3,0.5,0,0.9l0.6,0.3l0,0.1l-0.6-0.1c0.2,0.5,0.4,0.9,0.6,1.3c0.1,0.2,0,0.4,0,0.6c0,0.5,0.4,0.8,0.7,1.1
		c0.3,0.3,0.7,0.5,0.6,1.1c-0.1,0.5-0.1,0.9-0.5,1.3c-0.1,0.1-0.1,0.1-0.1,0.2l0.3,0.5l-0.2,0.4l0,0l0,0l0.3,0.7L48,27.7
		c-0.1-0.1-0.1-0.2-0.2-0.3c-0.1,0.1-0.1,0.2-0.1,0.2c0.3,0.4,0.2,0.8,0.1,1.2c0,0.1,0.1,0.2,0.1,0.4l-0.4,0.3v-0.5l-0.4,0.6
		l0.1,0.2h0c0,0.4,0.1,0.8,0.1,1.3c-0.1,0.1-0.3,0.1-0.3-0.3c0.2,0.7-0.3,1.2-0.5,1.7l-0.9-0.1c0,0.1,0,0.3,0,0.5l0.8-0.2l0.2,0.3
		l0.3-0.4l0.6,0.1l-0.4,2.5l-0.3-0.9c-0.2,0.3-0.3,0.6-0.5,1c-0.1,0.1-0.2,0.2-0.2,0.3c-0.1,0.1-0.2,0.3-0.3,0.4c0,0,0,0.1-0.1,0.1
		c0,0-0.1,0.1-0.1,0.1c0,0-0.1,0-0.1,0c0,0-0.1,0-0.1-0.1l-0.5,0.8c-0.5-0.1-1.1-0.3-1.6-0.5c-0.2-0.1-0.4-0.3-0.6-0.5
		c-0.3-0.3-0.6-0.6-0.9-0.9c-0.1-0.1-0.3-0.2-0.4-0.3c-0.5-0.3-1.1-0.6-1.7-0.9c0.1,0.1,0.1,0.2,0.2,0.3c0.6,0.7,1.3,1.3,1.9,2
		c0.2,0.3,0.3,0.6,0.6,0.9c0.3,0.3,0.6,0.6,1,0.7c0.3,0.1,0.6,0.2,0.7,0.6c0.1,0.1,0.2,0.2,0.3,0.3c0.1-0.5,0.3-0.6,0.7-0.6
		c0.2,0,0.5-0.2,0.7-0.2c0,0.1,0.1,0.3,0.2,0.6l0.1,0c0.1-0.3,0.2-0.6,0.3-0.9l0.2,0l0.1,0.4l1-0.1c-0.3,0.7-0.2,0.7-0.2,1.4
		c0,0.2,0,0.6-0.5,0.5l0.2,0.6c-0.4-0.2-0.5,0.2-0.6,0.4c-0.3,0.5-0.6,1.1-0.8,1.6h-0.4c0.2-0.7,0.4-1.4,0.6-2.1c0-0.1,0-0.2,0-0.4
		c-0.2,0.5-0.4,1-0.6,1.4c-0.2,0.3-0.5,0.6-0.7,0.9c-0.2,0.2-0.3,0.5-0.5,0.8l0.1,0.1l1-0.1c0,0.1,0,0.1,0,0.2
		c-0.1,0.2-0.4,0.3,0,0.6c0.1,0.1-0.4,0.8-0.7,0.9c0,0.1,0.1,0.2,0.1,0.4l-0.5,0.2L43.9,45l-1.4,0.7l-0.1-0.3c0,0.3-0.1,0.5-0.4,0.5
		c-0.1,0-0.2,0.2-0.2,0.3c-0.1,0.4-0.8,0.6-1.1,0.3c-0.3-0.3-0.7-0.3-1-0.2c-0.1,0-0.1,0.1-0.2,0.2c-0.1,0.1-0.2,0.2-0.2,0.2
		c-0.1,0-0.1,0-0.2,0c-0.1,0-0.1-0.1-0.2-0.1c-0.4-0.5-0.8-1-1.5-0.9c-0.1,0-0.2,0-0.2-0.1c-0.1-0.1-0.3-0.2-0.4-0.3
		C36.7,45.3,36.7,45.2,36.8,45L36.8,45L36.8,45z M43.2,28.1l-0.3-0.2c-0.3-0.1-0.6-0.3-0.9-0.4c-0.3,0-0.7,0-1,0.1l-0.6,0v-0.5h0.3
		c0-0.2,0-0.3,0-0.5l0.3,0.3l1.3-0.5c0.2,0.1,0.4,0.2,0.5,0.2c0.2,0.1,0.4,0.1,0.6,0c0.3-0.1,0.6,0.1,0.9,0.2l-0.3,0.2
		c0.2,0.4,0.4,0.7,0.6,1.1c0.1,0.1,0.2,0.1,0.3,0.2l0.1,0.1l0.1-0.1l-0.1-0.1l0-0.3l0.4-0.1l-0.5-0.7l0.3-0.2l-0.3,0
		c-0.1,0-0.1,0-0.3,0c0.6-0.4,0.9,0.1,1.3,0.2c0.1-0.1,0.2-0.2,0.3-0.3l-0.5,0l0.3-0.7c-0.1-0.1-0.5-0.1-0.5-0.2
		c-0.1-0.3-0.3-0.3-0.6-0.4c-0.1,0-0.2-0.1-0.3-0.1l0-0.1l0.4,0c-0.2-0.1-0.4-0.1-0.6,0c-0.2,0-0.4,0.1-0.5,0.1
		c-0.2-0.1-0.4-0.4-0.7-0.6c0,0,0,0-0.1-0.1c0-0.1,0-0.1,0-0.2c0,0,0,0,0,0c0,0,0,0,0,0l0,0c-0.2,0-0.4-0.1-0.6,0
		c-0.5,0.3-1,0.2-1.5,0.3c-0.3,0-0.4,0.1-0.5,0.3l-0.6,0.1l-0.2,0l-0.1,0.1c-0.2,0.2-0.5,0.4-0.7,0.6c-0.2,0.2-0.4,0.5-0.6,0.6
		C38,26.9,38,27.1,38,27.3l0,0l0,0c0.1,0.1,0.2,0.2,0.2,0.3c0,0.4-0.1,0.7-0.1,1.1c0,0.1,0,0.1,0.1,0.2c0,0.1,0.1,0.1,0.1,0.2
		c0.2,0.2,0.3,0.3,0.3,0.6c0,0.1,0,0.1,0,0.2c0,0.1,0.1,0.1,0.1,0.2c0.3,0.2,0.6,0.4,0.9,0.6c0.3,0.1,0.6,0.1,0.9,0.1
		c0.2,0,0.5,0,0.7,0c0.6,0,1.3,0.2,1.8-0.5c-0.6,0-1.1,0-1.6-0.1c-0.3-0.1-0.6-0.3-0.8-0.4c0,0,0-0.2,0-0.3l0.3,0.2l0.7-0.2l0-0.1
		c-0.3,0-0.3,0-0.3-0.2l1,0c0.1,0,0.1,0.1,0.2,0.1c0.5-0.2,1-0.2,1.5,0.2c0.2,0.1,0.4,0.1,0.7,0.1c-0.2-0.2-0.4-0.4-0.4-0.5
		c0-0.2-0.1-0.3-0.3-0.3l-0.4-0.2l0,0L43.2,28.1L43.2,28.1z M46.8,39.2l0.1,0c0-0.1,0-0.3,0-0.4l-0.1,0C46.7,38.9,46.7,39,46.8,39.2
		L46.8,39.2z M46.7,38.1C46.7,38.1,46.7,38.1,46.7,38.1C46.7,38.1,46.7,38.1,46.7,38.1C46.8,38.1,46.8,38.1,46.7,38.1
		C46.8,38.1,46.8,38.1,46.7,38.1L46.7,38.1z M43.2,39.1L43.2,39.1L43.2,39.1L43.2,39.1z M43.4,39.4L43.4,39.4L43.4,39.4L43.4,39.4z
		 M45.9,27.4L45.9,27.4L45.9,27.4L45.9,27.4z M46.9,29.7L46.9,29.7C46.9,29.8,46.9,29.8,46.9,29.7C46.9,29.8,46.9,29.8,46.9,29.7
		L46.9,29.7z"/>
	<path class="st3" d="M43,51.9L42.7,52c-0.4-0.3-0.7-0.3-1.1-0.2c-0.4,0.1-0.8,0.1-1.2,0.2l0-0.1c0.3-0.1,0.5-0.2,0.8-0.3
		c0.8-0.2,0.9-0.4,0.8-1.4l0.9-0.2c0-0.2-0.1-0.3-0.1-0.5l0.7-0.3c-0.2-0.3-0.2-0.5,0.1-0.7c0.5-0.4,0.9-0.8,1.3-1.3
		c0.2-0.2,0.3-0.7,0.8-0.5c0,0,0.1,0,0.1-0.1c0.6-0.7,1.4-1.3,1.8-2.2c0-0.1,0.1-0.1,0.1-0.2c0.3-0.2,0.6-0.4,0.9-0.6V44l0.6,0.1
		l0.3-0.4l-0.2-0.8c0.3,0.7,0.5,1.4,0.1,2.1c-0.3,0.5-0.4,1.1-0.7,1.7c-0.2,0.5-0.5,0.9-0.9,1.3c-0.5,0.4-0.8,1-1.2,1.4
		c-0.2,0.3-0.5,0.6-0.8,0.8c-0.1,0.1-0.2,0.3-0.2,0.4c-0.1,0.3-0.3,0.4-0.5,0.3c-0.2,0.2-0.3,0.3-0.4,0.4c-0.2,0.2-0.4,0.3-0.6,0.5
		c-0.2,0.2-0.7,0.2-0.9,0C43.3,51.7,43.1,51.6,43,51.9L43,51.9z M48.6,44.5C48.6,44.5,48.6,44.5,48.6,44.5
		C48.6,44.5,48.6,44.5,48.6,44.5C48.5,44.5,48.5,44.5,48.6,44.5L48.6,44.5z M42.2,51.4C42.2,51.4,42.3,51.3,42.2,51.4
		C42.3,51.3,42.2,51.3,42.2,51.4C42.2,51.3,42.2,51.3,42.2,51.4L42.2,51.4z M43.6,51.7L43.6,51.7L43.6,51.7L43.6,51.7z"/>
	<path class="st4" d="M38.1,40.8C37.7,40.9,37.4,41,37,41c-0.6,0-1.3-0.1-1.9-0.2c-0.4-0.1-0.5,0.2-0.6,0.3c-0.1,0.1,0,0.4,0.1,0.5
		c0.1,0.3,0.2,0.4-0.2,0.5l1,0.7L35.1,43l0.2,0.3c-0.1,0-0.2,0.1-0.3,0.1c-0.2,0-0.3-0.1-0.5-0.2c-0.2-0.1-0.3-0.2-0.4-0.4
		c-0.3-0.5-0.6-1.1-0.9-1.6c-0.2-0.2-0.3-0.4-0.5-0.6c0,0-0.1,0-0.2,0c0.2-0.3,0-0.7,0.1-1.1c0.2-0.4,0.7-0.2,0.8-0.6
		c0,0.1,0,0.1,0,0.2l-0.1,0l0,0l0-0.1c0.2,0.1,0,0.7,0.5,0.5l-0.1,0.1l0,0.1h3.1l0,0.2c-0.2,0-0.4,0-0.7,0c-0.2,0-0.5,0-0.5,0.4
		c-0.3-0.4-0.6-0.3-0.8,0.1c0,0.1,0.1,0.2,0.1,0.2c0.6,0.1,1.2,0.2,1.8,0.3c0.1,0,0.2-0.1,0.3-0.1L38.1,40.8z"/>
	<path class="st3" d="M33.2,32.7c-0.1,0-0.2,0-0.3,0.1c-0.1,0.3-0.3,0.2-0.5,0c0,0.1,0.1,0.2,0.1,0.3c0,0,0.1,0,0.1,0
		c0.3-0.1,0.7-0.2,0.5,0.4c0,0.1,0.1,0.2,0.1,0.3L32.5,34c0.1,0.3,0.2,0.5,0.3,0.7L32.3,35l-0.1-0.2l-0.6-0.1
		c0.1,0.2,0.1,0.3,0.2,0.6c-0.5-0.2-0.6-0.3-0.5-0.7l0.2,0.2l0.3-0.7l-0.3-0.2c0-0.2,0-0.4,0-0.7l0.2-0.2l-0.2-0.2l0.8-0.1l-0.5-0.5
		c0.3,0,0.5-0.1,0.7-0.1c0.5,0.1,0.8-0.1,1-0.7c0,0.1,0.1,0.2,0,0.3C33.4,32,33.3,32.4,33.2,32.7L33.2,32.7z"/>
	<path class="st3" d="M40.1,41c-0.3,0.2-0.3,0.4,0,0.4h0C40,41.9,39.6,42,39.3,42c-0.4,0-0.7-0.1-1.1-0.1c0,0.1,0,0.2,0,0.3
		c0-0.5-0.3-0.5-0.7-0.4l0-0.2c0.2-0.2,0.4-0.4,0.6-0.5c0.5-0.3,1.1-0.4,1.7-0.5C40,40.6,40.1,40.8,40.1,41L40.1,41z"/>
	<path class="st4" d="M36.8,36.8C36.4,36.8,36,37,35.7,37c-0.2,0-0.4-0.2-0.6-0.3c-0.1-0.1-0.3-0.2-0.4-0.2
		c-0.5-0.1-0.5-0.5-0.7-0.9c0.3,0.3,0.5,0.4,0.6,0c0.1-0.3,0.5-0.2,0.7,0c0.2,0.3,0.5,0.6,0.8,0.8C36.3,36.5,36.5,36.6,36.8,36.8
		L36.8,36.8z"/>
	<path class="st4" d="M34.1,28.5h0.6l-0.7-1.1l0.1-0.1c0.5,0.3,0.9,0.7,1.1,1.3c0.1,0.3,0.1,0.5,0,0.7c0,0.1-0.3,0.2-0.4,0.1
		C34.5,29.1,34.3,28.7,34.1,28.5z"/>
	<path class="st3" d="M38.1,40.8l-0.9-0.1c0.1-0.2,0.2-0.3,0.3-0.4c0.2-0.2,0.6-0.1,0.6-0.5c0.1,0,0.2,0,0.3,0.1
		c0.1,0.2,0.2,0.5,0.5,0.2c0.1,0,0.3,0.1,0.4,0.2c-0.1,0.1-0.2,0.2-0.3,0.3C38.7,40.6,38.4,40.7,38.1,40.8z"/>
	<path class="st4" d="M42.6,40c-0.5,0-1.1,0-1.6,0c-0.5,0-1,0.1-1.5,0.1c0-0.2,0-0.3-0.1-0.6l3.1,0.3L42.6,40z"/>
	<path class="st3" d="M31.9,27.9l-0.3-0.2c0.1-0.1,0.2-0.1,0.3-0.2c0,0,0.1,0,0.1,0c0.6-0.5,1.2-0.4,1.5,0.3h-1.4L31.9,27.9z"/>
	<path class="st4" d="M36.2,48.2l0.7-0.1h0l0.3,0.2l-0.5,0.4l-0.8-0.4L36.2,48.2C36.2,48.2,36.2,48.2,36.2,48.2
		C36.2,48.3,36.2,48.3,36.2,48.2L36.2,48.2z M36.2,48.4L36.2,48.4L36.2,48.4L36.2,48.4z"/>
	<path class="st4" d="M31.9,27.9l0.3,0l1.7,0.4c0,0.1,0,0.1,0,0.2L33,28.2L31.9,27.9c-0.4,0.2-0.8,0.3-1.2,0.4
		c-0.2,0-0.3,0.1-0.5,0.2c0.1-0.1,0.2-0.2,0.4-0.3C31.1,28.1,31.5,28,31.9,27.9z"/>
	<path class="st4" d="M39,35.8l-1.2-0.2C38.2,35.1,38.7,35.2,39,35.8z"/>
	<path class="st4" d="M41.3,47.4l-0.6,0.3l-0.1-0.2c0.1-0.3,0.4-0.1,0.6-0.3L41.3,47.4z"/>
	<path class="st4" d="M39.9,48.4l-0.3-0.2l0.4-0.4C39.9,48.1,39.9,48.2,39.9,48.4z"/>
	<path class="st7" d="M31.1,32.6c0.1,0.1,0.1,0.1,0.1,0.2c0,0-0.1,0.1-0.1,0.1c0,0-0.1-0.1-0.1-0.1C31,32.8,31.1,32.7,31.1,32.6z"/>
	<path class="st4" d="M38.8,48.5l0.1-0.2l0.1,0.1L38.8,48.5L38.8,48.5z"/>
	<path class="st7" d="M46.5,19.1l0.1-0.2l0.1,0.1L46.5,19.1L46.5,19.1z"/>
	<path class="st7" d="M47.1,19.8c0,0-0.1-0.1-0.1-0.1c0,0,0.1-0.1,0.1-0.1c0,0,0.1,0.1,0.1,0.1C47.2,19.7,47.2,19.8,47.1,19.8z"/>
	<path class="st7" d="M40.1,41.5c0-0.1,0-0.1,0.1-0.2l0.1,0.1L40.1,41.5L40.1,41.5z"/>
	<path class="st4" d="M30.3,28.4L30,28.6L30.3,28.4z"/>
	<path class="st7" d="M47.2,29.7l0.1,0.1l0,0.1L47.2,29.7L47.2,29.7z"/>
	<path class="st7" d="M33.2,32.7l0.1,0.1l0,0L33.2,32.7L33.2,32.7z"/>
	<path class="st7" d="M42.1,57.1l0.1-0.1l0,0.1L42.1,57.1L42.1,57.1z"/>
	<path class="st4" d="M48.1,18.9C48.1,19,48.1,19,48.1,18.9L47.9,19c0,0,0-0.1,0-0.1H48.1z"/>
	<path class="st4" d="M29.3,26.9c0,0,0.1,0,0.1,0c0,0,0,0,0,0C29.4,26.9,29.3,26.9,29.3,26.9L29.3,26.9z"/>
	<path class="st4" d="M47.8,20.6l0.3,0.1l0,0L47.8,20.6L47.8,20.6z"/>
	<path class="st7" d="M40.6,41.2l-0.1,0.1l0,0L40.6,41.2L40.6,41.2z"/>
	<path class="st4" d="M39.3,48.3l0,0.1h0L39.3,48.3L39.3,48.3z"/>
	<path class="st4" d="M48.7,20.6l-0.1,0c0,0,0,0,0,0C48.6,20.6,48.7,20.6,48.7,20.6L48.7,20.6z"/>
	<path class="st7" d="M44.9,42.8L44.9,42.8C44.9,42.8,44.9,42.8,44.9,42.8C44.9,42.8,44.9,42.8,44.9,42.8L44.9,42.8z"/>
	<path class="st4" d="M47.6,22.6L47.6,22.6L47.6,22.6L47.6,22.6z"/>
	<path class="st7" d="M35.6,26.7L35.6,26.7L35.6,26.7L35.6,26.7L35.6,26.7z"/>
	<path class="st7" d="M41.7,57.3c0,0,0,0.1,0,0.1L41.7,57.3C41.7,57.3,41.7,57.3,41.7,57.3L41.7,57.3z"/>
	<path class="st7" d="M41.9,57.5L41.9,57.5L41.9,57.5C41.9,57.5,41.9,57.5,41.9,57.5C41.9,57.5,41.9,57.5,41.9,57.5z"/>
	<path class="st7" d="M46.5,32.4L46.5,32.4L46.5,32.4L46.5,32.4z"/>
	<path class="st4" d="M47.8,20.6L47.8,20.6L47.8,20.6L47.8,20.6z"/>
	<path class="st4" d="M29.4,39.2L29.4,39.2L29.4,39.2L29.4,39.2z"/>
	<path class="st7" d="M40.1,41L40.1,41L40.1,41L40.1,41z"/>
	<path class="st7" d="M45,42.5L45,42.5L45,42.5z"/>
	<path class="st7" d="M45,42.5L45,42.5L45,42.5L45,42.5z"/>
	<path class="st7" d="M43.4,14.8L43.4,14.8C43.5,14.8,43.4,14.9,43.4,14.8L43.4,14.8z"/>
	<path class="st4" d="M44.3,14.8L44.3,14.8L44.3,14.8L44.3,14.8z"/>
	<path class="st4" d="M33.7,15L33.7,15L33.7,15C33.7,15,33.7,15,33.7,15L33.7,15z"/>
	<path class="st4" d="M29.4,39.2L29.4,39.2L29.4,39.2L29.4,39.2z"/>
	<path class="st4" d="M36.9,48.1L36.9,48.1L36.9,48.1L36.9,48.1z"/>
	<path class="st4" d="M47.4,17.8L47.4,17.8L47.4,17.8L47.4,17.8z"/>
	<path class="st4" d="M38.8,48.5C38.8,48.5,38.8,48.5,38.8,48.5C38.8,48.5,38.8,48.5,38.8,48.5L38.8,48.5L38.8,48.5z"/>
	<path class="st7" d="M43,51.9L43,51.9L43,51.9L43,51.9z"/>
	<path class="st7" d="M33.3,20.7L33.3,20.7L33.3,20.7L33.3,20.7z"/>
	<path class="st4" d="M22.5,16.1L22.5,16.1L22.5,16.1L22.5,16.1z"/>
	<path class="st4" d="M54.2,13.8l-0.1,0C54.1,13.8,54.1,13.7,54.2,13.8C54.1,13.7,54.2,13.8,54.2,13.8L54.2,13.8z"/>
	<path class="st4" d="M53,13L53,13C53,12.9,53,13,53,13L53,13z"/>
	<path class="st4" d="M54.3,13.8h-0.1H54.3C54.2,13.8,54.2,13.8,54.3,13.8L54.3,13.8z"/>
	<path class="st4" d="M54.7,14.1L54.7,14.1L54.7,14.1L54.7,14.1z"/>
	<path class="st4" d="M54.4,14.8L54.4,14.8L54.4,14.8L54.4,14.8z"/>
	<path class="st4" d="M50.7,12.8C50.6,12.8,50.6,12.8,50.7,12.8C50.6,12.8,50.6,12.8,50.7,12.8L50.7,12.8z"/>
	<path class="st6" d="M51.4,28.9L51.4,28.9C51.3,29,51.3,28.9,51.4,28.9L51.4,28.9z"/>
	<path class="st5" d="M41.3,29.1c0,0.2,0,0.2,0.3,0.2l0,0.1l-0.7,0.2l-0.3-0.2c0,0.1-0.1,0.3,0,0.3c0.3,0.2,0.5,0.4,0.8,0.4
		c0.5,0.1,1.1,0.1,1.6,0.1c-0.5,0.6-1.2,0.4-1.8,0.5c-0.2,0-0.5,0-0.7,0c-0.3,0-0.6,0-0.9-0.1c-0.3-0.1-0.6-0.3-0.9-0.6
		c0-0.1-0.1-0.1-0.1-0.2c0-0.1,0-0.1,0-0.2c0.1-0.3,0-0.5-0.3-0.6c-0.1,0-0.1-0.1-0.1-0.2c0-0.1-0.1-0.1-0.1-0.2
		c0-0.4,0.1-0.7,0.1-1.1c0-0.1-0.2-0.2-0.2-0.3c0-0.2,0-0.4,0.3-0.5c0.2-0.1,0.4-0.4,0.6-0.6c0.2-0.2,0.4-0.4,0.7-0.6
		c0.3,0,0.1,0.1,0.1,0.3c0,0.1,0,0.2,0,0.3c0.1,0,0.2,0,0.2,0c0.2-0.4,0.7-0.3,0.9-0.2c0.5,0.1,0.5-0.2,0.7-0.4l-1.1-0.2
		c0-0.3,0.2-0.3,0.5-0.3c0.5,0,1,0,1.5-0.3c0.1-0.1,0.4,0,0.6,0c0,0.1,0,0.1,0,0.2l0,0.1l0.1,0c0.2,0.2,0.4,0.4,0.7,0.6
		c0.1,0.1,0.3,0,0.5-0.1c0.2,0,0.4,0,0.6,0l-0.4,0l0,0.1c0.1,0,0.2,0.1,0.3,0.1c0.2,0.1,0.5,0.1,0.6,0.4c0,0.1,0.4,0.2,0.5,0.2
		L45.4,27l0.5,0c-0.1,0.1-0.2,0.2-0.3,0.3c-0.4-0.2-0.7-0.6-1.3-0.2c0.1,0,0.2,0,0.3,0l0.3,0l-0.3,0.2l0.5,0.7l-0.4,0.1l0,0.3
		c-0.1-0.1-0.2-0.1-0.3-0.2c-0.2-0.3-0.4-0.7-0.6-1.1l0.3-0.2c-0.3-0.1-0.6-0.3-0.9-0.2c-0.2,0-0.4,0-0.6,0c-0.1,0-0.3-0.1-0.5-0.2
		L40.9,27l-0.3-0.3c0,0.2,0,0.3,0,0.5h-0.3c0,0.2,0,0.3,0,0.5l-0.8,0.5l0,0.1l1.4-0.5c0.4,0,0.7-0.1,1-0.1c0.3,0,0.6,0.2,0.9,0.4
		l0.3,0.2l0,0l0.4,0.3l0,0c0,0.1,0.1,0.2,0.2,0.3c0,0,0.1-0.1,0.2-0.1c0.3,0,0.3,0.1,0.3,0.3c0,0.2,0.2,0.3,0.4,0.5
		c-0.3,0-0.5,0-0.7-0.1c-0.5-0.4-1-0.4-1.5-0.2c0,0-0.1,0-0.2-0.1l0.2-0.7l0.9,0.5c-1.1-1-2.7-1.2-3.2-0.4l0.5-0.2L41.3,29.1z
		 M39.2,28.5l0.2-0.1l-0.1-0.1L39.2,28.5L39.2,28.5L39.2,28.5z"/>
	<path class="st4" d="M41.3,29.1l-0.6-0.9l-0.5,0.2c0.5-0.8,2.1-0.6,3.2,0.4l-0.9-0.5L42.3,29L41.3,29.1z"/>
	<path class="st4" d="M40.5,25.4l1.1,0.2c-0.2,0.3-0.2,0.6-0.7,0.4c-0.3-0.1-0.7-0.2-0.9,0.2c0,0-0.1,0-0.2,0c0-0.1-0.1-0.3,0-0.3
		c0.1-0.1,0.2-0.3-0.1-0.3l0.1-0.1c0.1,0.1,0.1,0.1,0.2,0.2l0.1-0.2L40.5,25.4z"/>
	<path class="st4" d="M40.9,27.6l-1.4,0.5l0-0.1l0.8-0.5L40.9,27.6z"/>
	<path class="st4" d="M44,28.5c-0.1,0-0.2,0.1-0.2,0.1c-0.1-0.1-0.1-0.2-0.2-0.3L44,28.5z"/>
	<path class="st3" d="M46.8,39.2c0-0.1,0-0.3,0-0.4l0.1,0c0,0.1,0,0.3,0,0.4L46.8,39.2z"/>
	<path class="st4" d="M43.6,28.4l-0.4-0.3L43.6,28.4z"/>
	<path class="st4" d="M43.2,28.1l-0.3-0.2C43,28,43.1,28,43.2,28.1z"/>
	<path class="st7" d="M44.7,28.4l0.1,0.1l-0.1,0.1L44.7,28.4L44.7,28.4z"/>
	<path class="st3" d="M46.7,38.1C46.8,38.1,46.8,38.1,46.7,38.1C46.8,38.1,46.8,38.1,46.7,38.1C46.7,38.1,46.7,38.1,46.7,38.1
		C46.7,38.1,46.7,38.1,46.7,38.1z"/>
	<path class="st5" d="M39.9,25.5l-0.1,0.2c-0.1-0.1-0.1-0.1-0.2-0.2L39.9,25.5z"/>
	<path class="st6" d="M43.2,39.1L43.2,39.1L43.2,39.1L43.2,39.1z"/>
	<path class="st6" d="M43.4,39.4L43.4,39.4L43.4,39.4L43.4,39.4z"/>
	<path class="st6" d="M45.9,27.4L45.9,27.4L45.9,27.4L45.9,27.4z"/>
	<path class="st6" d="M46.9,29.7C46.9,29.8,46.9,29.8,46.9,29.7C46.9,29.8,46.9,29.8,46.9,29.7L46.9,29.7z"/>
	<path class="st6" d="M43,24.8L43,24.8C43,24.8,43,24.8,43,24.8C43,24.8,43,24.8,43,24.8L43,24.8z"/>
	<path class="st6" d="M36,27L36,27L36,27L36,27z"/>
	<path class="st6" d="M47.9,26.9L47.9,26.9L47.9,26.9L47.9,26.9z"/>
	<path class="st6" d="M38,27.3L38,27.3L38,27.3L38,27.3z"/>
	<path class="st6" d="M40.9,41.2L40.9,41.2L40.9,41.2z"/>
	<path class="st6" d="M36.8,45L36.8,45L36.8,45L36.8,45z"/>
	<path class="st6" d="M48.6,44.5L48.6,44.5C48.5,44.5,48.5,44.5,48.6,44.5C48.6,44.5,48.6,44.5,48.6,44.5
		C48.6,44.5,48.6,44.5,48.6,44.5z"/>
	<path class="st6" d="M42.2,51.4L42.2,51.4C42.2,51.3,42.2,51.3,42.2,51.4C42.2,51.3,42.3,51.3,42.2,51.4
		C42.3,51.3,42.2,51.4,42.2,51.4z"/>
	<path class="st6" d="M43.6,51.7L43.6,51.7L43.6,51.7L43.6,51.7z"/>
	<path class="st6" d="M33.4,39L33.4,39L33.4,39L33.4,39L33.4,39z"/>
	<path class="st6" d="M36.2,48.2L36.2,48.2C36.2,48.3,36.2,48.3,36.2,48.2C36.2,48.2,36.2,48.2,36.2,48.2L36.2,48.2z"/>
	<path class="st6" d="M36.2,48.4L36.2,48.4L36.2,48.4L36.2,48.4z"/>
	<path class="st4" d="M39.2,28.5l0.1-0.2l0.1,0.1L39.2,28.5L39.2,28.5z"/>
	<path class="st7" d="M43,25L43,25L43,25C43,25,43,25,43,25z"/>
	<path class="st4" d="M39.2,28.5L39.2,28.5L39.2,28.5L39.2,28.5z"/>
</g>
</svg>
